<mxfile host="65bd71144e">
    <diagram id="yu97zIS3JQtbvUzbhzOe" name="Page-1">
        <mxGraphModel dx="2092" dy="1448" grid="0" gridSize="10" guides="1" tooltips="1" connect="1" arrows="1" fold="1" page="1" pageScale="1" pageWidth="4681" pageHeight="3300" math="0" shadow="0">
            <root>
                <mxCell id="0"/>
                <mxCell id="1" parent="0"/>
                <mxCell id="2" value="" style="shape=image;verticalLabelPosition=bottom;labelBackgroundColor=default;verticalAlign=top;aspect=fixed;imageAspect=0;image=data:image/png,iVBORw0KGgoAAAANSUhEUgAAB7cAAARNCAIAAAC2cVMnAAAgAElEQVR4Aezde5BkdX0//LN3WC5yESGiu0UQNIllGRUDEbJFNG6qHhBZ4wNURYmplE9MJaVilQMssD8EBRIN/ECNCcE1cjMaURCMhMia2Svscl/2AiyzS8/MzuzOzM793qcfw3cdhtlZtqdnuvuc06+pKTx9+pzv9/N5fZp/3rRnooIfAgQIECBAgAABAgQIECBAgAABAgQIECBQqwJRrTaubwIECBAgQIAAAQIECBAgQIAAAQIECBAgUJCS+xAQIECAAAECBAgQIECAAAECBAgQIECAQO0KSMlrd/Y6J0CAAAECBAgQIECAAAECBAgQIECAAAEpuc8AAQIECBAgQIAAAQIECBAgQIAAAQIECNSuwCFS8jiO834qLhDHce1+JHVOgAABAgQIECBAgAABAgQIECBAgACBCgpMkpLHcdzV1ZXL5bZv377FT5UEtm/fnsvlurq6JOYV/NfBVgQIECBAgAABAgQIECBAgAABAgQI1JzAxJQ8n883NTVVKRm27SQCzc3N+Xy+5j6YGiZAgAABAgQIECBAgAABAgQIECBAgEBFBCam5B0dHSGpbWlp6evrGx0drfjjRmyYHx0d7evra2lpCbPo6OioyIfBJgQIECBAgAABAgQIECBAgAABAgQIEKg5gYkp+Y4dO7Zs2dLW1lZzEolsuK2tbcuWLTt27EhkdYoiQIAAAQIECBAgQIAAAQIECBAgQIBA6gVel5LHcRy+vDw8PJz6zjLRwPDwcJiIp5NnYp6aIECAAAECBAgQIECAAAECBAgQIEAgcQKvS8nz+XzIZD0IOyGDMpGEDEIZBAgQIECAAAECBAgQIECAAAECBAhkVUBKnujJSskTPR7FESBAgAABAgQIECBAgAABAgQIECCQfgEpeaJnKCVP9HgUR4AAAQIECBAgQIAAAQIECBAgQIBA+gWk5ImeoZQ80eNRHAECBAgQIECAAAECBAgQIECAAAEC6RfIfkq+adOmG2644cILLzz55JOjV39SNDUpeYqGpVQCBAgQIECAAAECBAgQIECAAAECBNIokP2U/IILLgjh+Ng/UzQnKXmKhqVUAgQIECBAgAABAgQIECBAgAABAgTSKJD9lPzGG2+8+uqrH3jggd27dy9YsCCKXtdywmcmJU/4gJRHgAABAgQIECBAgAABAgQIECBAgEDaBV4XGWc+k5WSp/3zqn4CBAgQIECAAAECBAgQIECAAAECBAjMrICUfGY9Z3i1zP93ixn2shwBAgQIECBAgAABAgQIECBAgAABAgSmKCAlnyJYZS+XklfW224ECBAgQIAAAQIECBAgQIAAAQIECNScgJQ80SOXkid6PIojQIAAAQIECBAgQIAAAQIECBAgQCD9AsWm5HEcd/YPV/03juPpmHsu+XT03EuAAAECBAgQIECAAAECBAgQIECAAIHsCRSbknf2Dy+ue7Dqv539w9OZgZR8OnruJUCAAAECBAgQIECAAAECBAgQIECAQPYEpOSJnqknriR6PIojQIAAAQIECBAgQIAAAQIECBAgQCD9AlLyRM9QSp7o8SiOAAECBAgQIECAAAECBAgQIECAAIH0CxSbknsueVVmLSWvCrtNCRAgQIAAAQIECBAgQIAAAQIECBCoHYFiU/JsiHgueTbmqAsCBAgQIECAAAECBAgQIECAAAECBAjMlICUfKYky7KO75KXhdWiBAgQIECAAAECBAgQIECAAAECBAgQ+I1A9lPyBx988A9+8zNr1qwoin7z6g8efPDB3zgk9H+l5AkdjLIIECBAgAABAgQIECBAgAABAgQIEMiKQPZT8pUrV0YH+Vm5cmXC5yglT/iAlEeAAAECBAgQIECAAAECBAgQIECAQNoFsp+Sp3pCUvJUj0/xBAgQIECAAAECBAgQIECAAAECBAgkX0BKnugZSckTPR7FESBAgAABAgQIECBAgAABAgQIECCQfgEpeaJnKCVP9HgUR4AAAQIECBAgQIAAAQIECBAgQIBA+gWk5ImeoZQ80eNRHAECBAgQIECAAAECBAgQIECAAAEC6ReQkid6hlLyRI9HcQQIECBAgAABAgQIECBAgAABAgQIpF9ASp7oGUrJEz0exREgQIAAAQIECBAgQIAAAQIECBAgkH4BKXmiZyglT/R4FEeAAAECBAgQIECAAAECBAgQIECAQPoFpOSJnqGUPNHjURwBAgQIECBAgAABAgQIECBAgAABAukXkJIneoZS8kSPR3EECBAgQIAAAQIECBAgQIAAAQIECKRfQEqe6BlKyRM9HsURIECAAAECBAgQIECAAAECBAgQIJB+ASl5omcoJU/0eBRHgAABAgQIECBAgAABAgQIECBAgED6BaTkiZ6hlDzR41EcAQIECBAgQIAAAQIECBAgQIAAAQLpF5CSJ3qGUvJEj0dxBAgQIECAAAECBAgQIECAAAECBAikX0BKnugZSskTPR7FESBAgAABAgQIECBAgAABAgQIEEi5QDySj/NxypuYbvnZT8mjKFq8ePF0nap0v5S8SvC2JUCAAAECBAgQIECAAAECBAgQIFATAj1rGpuuX9/+o+0DL+6riYYna1JKPplKYs5JyRMzCoUQIECAAAECBAgQIECAAAECBAgQyKDAnjuey9XV5+rq9z20I4PtFdeSlLw4pypdJSWvErxtCRAgQIAAAQIECBAgQIAAAQIECGRfID84mrtydUjJB3f4LvmrE89kJuuJK9n/t1mHBAgQIECAAAECBAgQIECAAAECBAhMXaB/894QkTeuWBeP5qe+QEbuqNHvkj/00EMf+chHjjnmmAULFpx++ul1dXX79k38TyW9vb11dXWLFy9esGDBqaee+pWvfGV4eHjx4sVR9BraqlWroii69NJL29vb//qv//qkk06aP3/+7/3e791xxx0z8gHJ5H+3mBEZixAgQIAAAQIECBAgQIAAAQIECBAgME2B9h9tDyl5291bprlUqm9/LfAtFAqZzGQP/C751772tSiK5s6d++EPf/iiiy5629veFkXR6aef3tLSMjbLwcHBM888M4qi44477hOf+MR55523cOHCj3/845Om5BdccMHpp5/+1re+9ZOf/OS55547Z86cKIpuv/32sdVKPsjkRErWcCMBAgQIECBAgAABAgQIECBAgAABAjMlEOfjpuvXh5S898nWmVo2jevUXEr++OOPz549+8gjj9ywYUMY2ODg4Cc/+ckoij7xiU+MjfC6666LouiDH/zg2HfMGxoa3v72t0ev/oxdFr5LHkXRxRdfPDg4GM7/5Cc/iaJo0aJFY5eVfCAlL5nOjQQIECBAgAABAgQIECBAgAABAgQIvIHAUK47ROS5y+tHe4ff4MrMv1V0Sh7Hhf591f+N46mOZMJ3yT/96U9HUXTFFVeMX6e1tfXwww+fPXv2K6+8Es6ffPLJURStXr16/GW33377pCn50Ucf3dbWNv7Kd7/73b9+EktDQ8P4kyUcS8lLQHMLAQIECBAgQIAAAQIECBAgQIAAAQKHFOh6ZGdIyVu//fQhL872BUWn5P37CiuOrv7vr8uY4s+ElPyUU06Jomjz5s0TlrnggguiKLr33nsLhcLOnTujKDrppJMmXNPd3T1pSn7uuedOuHLZsmVRFK1bt27C+am+lJJPVcz1BAgQIECAAAECBAgQIECAAAECBAgUI9By25MhJe9atf+rw8Xclclrai4lX7BgQRRFvb29E8b5+c9/Poqir3/964VCYf369VEUnXHGGROuKRQKxxxzzIF/vfNTn/rUhCsvvfTSKIpWrVo14fxUX0rJpyrmegIECBAgQIAAAQIECBAgQIAAAQIEDikw2jW0/3ErdfXDuyeGpYe8PWMXSMn3D/QLX/hCySn5pZdeOuFjISWfAOIlAQIECBAgQIAAAQIECBAgQIAAAQLJEeh9fHdIyZtveCye+mOuk9PIjFRSdEqeleeShyeuPP/88xP4Pv7xj5f8xBUp+QRMLwkQIECAAAECBAgQIECAAAECBAgQSLLA3u8/H1Lyjp+8mOQ6K1Nb0Sl5Zcopwy4Tnkse/nrnVVddNX6rPXv2HH744bNmzZrw1zvXrl07/rI77rhj0ueSS8nHKzkmQIAAAQIECBAgQIAAAQIECBAgQCDJAvFIvvHqNSEl79/WnuRSK1NbzaXkjz322OzZs48++uiNGzcG4qGhoYsuuiiKok984hNj6Nddd10URWeeeWZnZ2c4uXPnzsWLF0vJx4gcECBAgAABAgQIECBAgAABAgQIECCQRoGB7R0hIm+8ak08nE9jCzNbc82l5IVC4atf/WoURXPnzv3IRz5y8cUXv/3tb4+i6LTTTmtpaRnDHRwcPPPMM6MoOv744//sz/7s/PPPP+KIIz72sY8tWrRo3rx5Y5etWrUqiiLfJR8DcUCAAAECBAgQIECAAAECBAgQIECAQMIF9t3/UkjJ935vc8JLrUx5tZiSFwqFBx988MMf/vCb3vSm+fPnv+Md7/jyl7/c0dExQbynp+fLX/7yokWL5s+f/9u//dvXXHPNwMDAggULTjrppLErpeRjFA4IECBAgAABAgQIECBAgAABAgQIEEi+QBzHzTc9HlLyng3NyS+4AhVmPyWfQcT169dHUfSnf/qnM7jmGy+Vz+e3vPqTz/s/PrwxlXcJECBAgAABAgQIECBAgAABAgQIEDi0wHBrX4jIc3X1o52Dh76hBq6Qkh90yE8++eT4bHrHjh3vec97oii66667DnrPTL8hJZ9pUesRIECAAAECBAgQIECAAAECBAgQqGmB7l/lQkre8n+fqGmIcc1LycdhvP7wne9850knnfQnf/InF1988R/+4R8uWLAgiqKPfexjcRy//sIyvpKSlxHX0gQIECBAgAABAgQIECBAgAABAgRqT6D1O0+HlLzz4Yba637yjqXkk7sUCoVvfvObf/RHf3TiiSfOmzfvqKOO+oM/+IPbbrttZGTkoDeU4Q0peRlQLUmAAAECBAgQIECAAAECBAgQIECgRgXyfcO5K+pDSj70SneNKhzQtpT8AJIknZCSJ2kaaiFAgAABAgQIECBAgAABAgQIECCQboG+p1pDRN503fo4X7lnZiRcTUqe6AFJyRM9HsURIECAAAECBAgQIECAAAECBAgQSJVA+71bQ0re/sPtqSq8vMVKycvrO83VpeTTBHQ7AQIECBAgQIAAAQIECBAgQIAAAQJBIB6Nm65dF1Lyvmf3YhkTkJKPUSTxQEqexKmoiQABAgQIECBAgAABAgQIECBAgEAKBQYbOkNEnrtydX6gon9/MeFaUvJED0hKnujxKI4AAQIECBAgQIAAAQIECBAgQIBAegQ6f/5ySMn33P5seqquRKVS8kool7yHlLxkOjcSIECAAAECBAgQIECAAAECBAgQIDBeYPc/bgopeffqxvHnHUvJE/0ZkJInejyKI0CAAAECBAgQIECAAAECBAgQIJASgZH2gf2PW6mrH9nbn5KqK1SmlLxC0KVtIyUvzc1dBAgQIECAAAECBAgQIECAAAECBAiMF+hZ1xRS8t1f3zj+vONCoSAlT/THQEqe6PEojgABAgQIECBAgAABAgQIECBAgEBKBPbc8VxIyfc9uCMlJVeuTCl55axL2ElKXgKaWwgQIECAAAECBAgQIECAAAECBAgQGC+QHxzNXbk6pOQDL+0b/5Zj3yVP+mdASp70CamPAAECBAgQIECAAAECBAgQIECAQOIF+je3hYi8ccXaeDSf+HorXaDvkldafEr7ScmnxOViAgQIECBAgAABAgQIECBAgAABAgQOFOj48QshJW+7e8uB7zojJU/0Z0BKnujxKI4AAQIECBAgQIAAAQIECBAgQIBA4gXiOG66fkNIyXufaEl8vVUoUEpeBfTit5SSF2/lSgIECBAgQIAAAQIECBAgQIAAAQIEDhQYauwJEXnu8vrR3uEDL3BGSp7oz4CUPNHjURwBAgQIECBAgAABAgQIECBAgACBxAt0PbIzpOSt33468cVWp8Dsp+QNDQ1RFC1ZsqS/v7+urm7RokXz588/9dRTb7zxxjiOq6Ne9K5S8qKpXEiAAAECBAgQIECAAAECBAgQIECAwCQCLbc9GVLyrkd3TfK2U4VCraTkZ5111tlnn33cccctW7Zs6dKlhx12WBRFy5cvT/hnQEqe8AEpjwABAgQIECBAgAABAgQIECBAgECSBUa7h/Y/bqWufqi5N8mlVrG2WknJw9fJu7q6gvXGjRvnzJmzcOHCnp6eKuofcmsp+SGJXECAAAECBAgQIECAAAECBAgQIECAwMEEejfuDil589ceS/6jNQ7WRbnPF5uSx3HcNdRV9d8SBhmeuDJ79uxt27aN1zzvvPN+HZ2vWrVq/MmkHUvJkzYR9RAgQIAAAQIECBAgQIAAAQIECBBIkUDb958PKXnHT15MUdkVLrXYlLxrqOvd33t31X+7hvZ/Gbx4ppCSn3LKKRNuueyyy6IouueeeyacT9RLKXmixqEYAgQIECBAgAABAgQIECBAgAABAikSiEfyjVevDSl5/9b2FFVe4VJrJSU/55xzJsiuWLEiiqKVK1dOOJ+ol1LyRI1DMQQIECBAgAABAgQIECBAgAABAgRSJDDwQkeIyBuvWhMPj6ao8gqXWisp+ZIlSybISskngHhJgAABAgQIECBAgAABAgQIECBAgECWBPY98FJIyfeu3Jylvma8l2JT8rQ/l1xKPuMfHQsSIECAAAECBAgQIECAAAECBAgQIJBYgTiOm296PKTkPRuaE1tnEgorNiVPQq2l1RCeSy4lL03PXQQIECBAgAABAgQIECBAgAABAgQIpFFguLUvROS5uvqRzsE0tlCxmqXknktesQ+bjQgQIECAAAECBAgQIECAAAECBAgQqJBA9//kQkrecssTFdoytdtIyaXkqf3wKpwAAQIECBAgQIAAAQIECBAgQIAAgYMI7PnnZ0JK3vmLhoNc4vR+ASm5lNy/DAQIECBAgAABAgQIECBAgAABAgQIZEog3z+Su6I+pOSDu7oy1VsZmsl+Sl4GtMotmc/nt7z6k8/nK7ernQgQIECAAAECBAgQIECAAAECBAgQSLNA39N7QkTe9JX1cT5OcyuVqF1KXgnlkveQkpdM50YCBAgQIECAAAECBAgQIECAAAECNSvQ/oNtISVv//dtNYtQfONS8uKtqnCllLwK6LYkQIAAAQIECBAgQIAAAQIECBAgkGaBOB83XbsupOR9z+5JcysVql1KXiHo0raRkpfm5i4CBAgQIECAAAECBAgQIECAAAECNSswuLMrROS5K1bnB0Zq1qH4xqXkxVtV4UopeRXQbUmAAAECBAgQIECAAAECBAgQIEAgzQKd/9kQUvI9//JMmvuoXO1S8spZl7CTlLwENLcQIECAAAECBAgQIECAAAECBAgQqGWBlps3hZS8u76xlh2K711KXrxVFa6UklcB3ZYECBAgQIAAAQIECBAgQIAAAQIEUisw0jGw/3ErdfXDe/tT20dFC5eSV5R7qptJyacq5noCBAgQIECAAAECBAgQIECAAAECtSzQs64ppOS7/2FjLTtMqXcp+ZS4Kn2xlLzS4vYjQIAAAQIECBAgQIAAAQIECBAgkGaBvd99LqTk+362I819VLR2KXlFuae6mZR8qmKuJ0CAAAECBAgQIECAAAECBAgQIFCzAvmh0dzy1SElH3hxX806TLVxKflUxSp6vZS8otw2I0CAAAECBAgQIECAAAECBAgQIJBmgf7n20JE3njN2ngkn+ZWKlq7lLyi3FPdTEo+VTHXEyBAgAABAgQIECBAgAABAgQIEKhZgY4fvxBS8ra7ttQsQgmNS8lLQKvcLVLyylnbiQABAgQIECBAgAABAgQIECBAgECaBeI4bv7qhpCS925qSXMrla5dSl5p8SntJyWfEpeLCRAgQIAAAQIECBAgQIAAAQIECNSswFBTT4jIc5fXj/YM1axDCY1LyfejLV68OIpep1GC5ozfIiWfcVILEiBAgAABAgQIECBAgAABAgQIEMikQNd/7wopeeu3nspkg+Vr6nW5cC1nslLy8n3IrEyAAAECBAgQIECAAAECBAgQIECAQLkFWr/5VEjJu365q9x7ZWx9Kfn+gUrJM/bJ1g4BAgQIECBAgAABAgQIECBAgACB2hEY7R7KXV4fUvKhpp7aaXxGOpWS72eUks/I58kiBAgQIECAAAECBAgQIECAAAECBAhUXqB3Y0uIyJu/tiGO48oXkOods5+SNzQ0RFG0ZMmS/v7+urq6RYsWzZ8//9RTT73xxhvHf1wmTcnXrVv3sY997M1vfvP8+fMXL178uc99rqmpacK8h4eHb7zxxtNPP33BggVvf/vbv/jFL/b09CxZsiSKooaGhnBxkTVMWLlQKNTyM3AO1HCGAAECBAgQIECAAAECBAgQIECAAIFJBdru2hJS8o77Xpj0AiffQKBWUvKzzjrr7LPPPu6445YtW7Z06dLDDjssiqLly5eP0RyYkt95551z5syJouhDH/rQxRdffPrpp0dRdOKJJ27dunXsrjiOL7zwwiiKjjjiiPPPP3/ZsmXHHHPMGWeccdZZZx2Ykh+yhrFlxw6k5GMUDggQIECAAAECBAgQIECAAAECBAgQmFQgHsk3XrM2pOT9W9omvcbJNxColZQ8fJ28q6srWGzcuHHOnDkLFy7s6dn/jJ4JKfkrr7xy+OGHz5kz5/777w+35PP5L3zhC1EUfeADHxgDvfPOO6MoOuWUU3K5XDjZ1tb23ve+N3r1Z8J3yQ9Zw9iyYwdS8jEKBwQIECBAgAABAgQIECBAgAABAgQITCow8GJHiMhzy9fkh0YnvcbJNxAoNiWP43i0q6vqv+OfkfIGXY1/KzztZPbs2du2bRt//rzzzvt1bL1q1apwckJKfs0110RRdMkll4y/ZXBw8K1vfWsURWvWrAnnP/ShD0VRdOedd46/7JFHHpk0JT9kDeMXCcdS8gNNnCFAgAABAgQIECBAgAABAgQIECBAYLzAvgdeCin53pWbx593XKRAsSn5aFfXlne+q+q/o7/5MniR7RUKhZCSn3LKKRNuueyyy6Iouueee8L5CSn5ueee++uvjT/44IMT7vr85z8fRdENN9xQKBSGh4fnz58/a9asgYGBCZcdd9xxBz5x5ZA1TFjEc8kPBHGGAAECBAgQIECAAAECBAgQIECAAIEJArv//vGQkvesb57wlpfFCNRKSn7OOedM4FixYkUURStXrgznJ6Tk73znO6Mo2rx54n97ufnmm6Mo+tu//dtCobB79+4oik444YQJKxcKhfDQlQlPXDlkDQeu47vkB5o4Q4AAAQIECBAgQIAAAQIECBAgQIDAmMDwnr79j1upqx/ZN/HrvGOXOXgDgVpJyZcsWTJBobSU/JZbbik5JT9kDRMq9F3yA0GcIUCAAAECBAgQIECAAAECBAgQIEBgvEB3fS6k5C03PzH+vOPiBYpNydP+XPJDJtQTvksenrjy0EMPTaAMf8Bz7Ikr8+bNm/SJK8cff/yBT1w5ZA0T9pKSHwjiDAECBAgQIECAAAECBAgQIECAAAEC4wX2/PMzISXv/EXD+POOixcoNiUvfsWkXRmeS37IhHpCSh7+euef//mfj29naGjo5JNPPvCvd959993jL/vlL3856V/vPGQN4xcJx564cqCJMwQIECBAgAABAgQIECBAgAABAgQIBIF8/0juitUhJR/c2YWlNAEp+eTPJd+1a9fhhx8+d+7csT/gmc/nv/SlL0VR9P73v3/M+s4774yi6NRTT21sbAwn29vb3/e+90nJx4gcECBAgAABAgQIECBAgAABAgQIECBQJoG+Z/aEiLzpK+vifFymXTK/rJR88pS8UCh8//vfnz179qxZs84+++xLLrkk/D3PE088cevWrWMfiziOL7zwwiiKjjzyyAsuuGDZsmXHHnvsBz7wgTPPPDOKoqampnBlkd9nH1t27MB3yccoHBAgQIAAAQIECBAgQIAAAQIECBAgMEGg/d+3hZS8/QfbJrzlZfECUvKDpuSFQmHt2rXnn3/+8ccfP2/evEWLFn3uc58b+874GPHw8PANN9xw2mmnzZ8//+STT/67v/u77u7ud7zjHbNmzerv7w+XScnHuBwQIECAAAECBAgQIECAAAECBAgQIDAjAnE+bvrKupCS9z2zZ0bWrM1Fsp+SV36uuVxu7ty573rXu6a/te+ST9/QCgQIECBAgAABAgQIECBAgAABAgQyKTC4sytE5LkrVuf7RzLZY2WakpJP1/mZZ54ZHh4eW6WlpeXDH/5wFEXXX3/92MmSD6TkJdO5kQABAgQIECBAgAABAgQIECBAgEC2BTp/0RBS8j3//Ey2Oy13d1Ly6QovXbr02GOPPffccy+++OIlS5YceeSRURSdccYZAwMD0126UJCST9/QCgQIECBAgAABAgQIECBAgAABAgQyKdBy8xMhJe+uz2WywYo1JSWfLvW999770Y9+9Ld+67cWLFiwcOHC9773vddff31fX9901331fin5jDBahAABAgQIECBAgAABAgQIECBAgEDGBEb2De5/3Epd/fCemUkjM0ZUfDtS8uKtqnCllLwK6LYkQIAAAQIECBAgQIAAAQIECBAgkHiBnvXNISXf/fePx3Gc+HoTXaCUPNHjkZInejyKI0CAAAECBAgQIECAAAECBAgQIFAlgb0rN4eUfN8DL1WphOxsKyVP9Cyl5Ikej+IIECBAgAABAgQIECBAgAABAgQIVEMgPzSaW74mpOQDL3ZUo4RM7SklT/Q4peSJHo/iCBAgQIAAAQIECBAgQIAAAQIECFRDoH9re4jIG69ZG4/kq1FCpvaUkid6nFLyRI9HcQQIECBAgAABAgQIECBAgAABAgSqIdBx3wshJW+78/lq7N5rGIAAACAASURBVJ+1PaXkiZ6olDzR41EcAQIECBAgQIAAAQIECBAgQIAAgYoLxHHc/LUNISXv3dhS8f0zuKGUPNFDlZInejyKI0CAAAECBAgQIECAAAECBAgQIFBxgaGmnhCR5y6vH+0eqvj+GdxQSp7ooUrJEz0exREgQIAAAQIECBAgQIAAAQIECBCouEDXL3eFlLz1m09VfPNsbiglT/RcpeSJHo/iCBAgQIAAAQIECBAgQIAAAQIECFRcoPVbT4WUvOu/d1V882xuKCVP9Fyl5Ikej+IIECBAgAABAgQIECBAgAABAgQIVFZgtGcod3l9SMmHGnsqu3lmd5OSJ3q0UvJEj0dxBAgQIECAAAECBAgQIECAAAECBCor0LupJUTkTV/dEMdxZTfP7G5S8slH+zd/8zdRFM2ePfvee++d/IpCYefOnbfeeuvSpUtPPPHEuXPnHn/88UuXLr3//vsPdn0J56XkJaC5hQABAgQIECBAgAABAgQIECBAgEBWBdru2hJS8o4fv5DVHivfl5R8EvOrr746iqKjjz569uzZ8+bN+8UvfjHJRYXChz70oSiKFixYsGTJkosuuuiMM86IXv354he/OOn1JZyUkpeA5hYCBAgQIECAAAECBAgQIECAAAECmRSIR/ON16wNKXn/822Z7LEqTUnJJ7LfeuutURSddNJJzz777N133z137twjjjhi/fr1E68rFC666KLbbrutu7t77K0HH3xw7ty5URQ9/PDDYyencyAln46eewkQIECAAAECBAgQIECAAAECBAhkSWDgpX0hIs8tX5MfGs1Sa9XtRUr+Ov+77rpr1qxZixYteuGF/f+HhZ/+9KcLFiw49thjN2/e/LpLD/Lis5/9bBRFf/EXf3GQ96d2Wko+NS9XEyBAgAABAgQIECBAgAABAgQIEMiuwL6f7Qgp+d7vPpfdLqvQWfZT8oaGhiiKlixZ0t/fX1dXt2jRovnz55966qk33njjhMfbP/TQQ3Pnzj3ttNN27do1fhSPPPLIwoUL3/rWtzY0NIw/P+nxt771rSiKPvrRj0767lRPSsmnKuZ6AgQIECBAgAABAgQIECBAgAABAlkV2P0PG0NK3rOuKas9VqWvWknJzzrrrLPPPvu4445btmzZ0qVLDzvssCiKli9fPoa+Zs2aww8//N3vfvfu3bvHTo4drFmz5k1vetNpp53W2to6dnLSgy996UtRFH3605+e9N2pnpSST1XM9QQIECBAgAABAgQIECBAgAABAgQyKTC8p2//41bq6kc6BjLZY7WaKjYlj+N4sG+46r8Tvv1djFr4Lnn4OnlXV1e4ZePGjXPmzFm4cGFPT08xixR5zb59+0444YQoin784x8XecsbXyYlf2Mf7xIgQIAAAQIECBAgQIAAAQIECBCoEYHu+saQkrfcvKlGWq5Ym8Wm5IN9w9/8/35Z9d/BvuGp0oSUfPbs2du2bRt/73nnnffr6HzVqlXjT07z+KKLLoqi6MwzzywhzZ90ayn5pCxOEiBAgAABAgQIECBAgAABAgQIEKg1gT23PxtS8s7/PPRzoWsNZ5r91kpKfsopp0yQuuyyy6IouueeeyacL/nljTfeGEXRcccdt2PHjpIXmXCjlHwCiJcECBAgQIAAAQIECBAgQIAAAQIEalAgPzCSu2J1SMkHGzprUKCsLddKSn7OOedMcFyxYkUURStXrpxwvrSXd95556xZs4444oj169eXtsKkd0nJJ2VxkgABAgQIECBAgAABAgQIECBAgEBNCfQ9uydE5E3XrovzcU31XoFmi03J0/5c8iVLlkzQnMGU/Gc/+9ncuXPnz5//8MMPT9hlmi+l5NMEdDsBAgQIECBAgAABAgQIECBAgACBDAi0//u2kJK3/+B1j5XOQGtJaKHYlDwJtZZWQ3gueflS8l/96leHHXbYnDlz/uM//qO0Ct/gLin5G+B4iwABAgQIECBAgAABAgQIECBAgEAtCMT5uOkr60NK3vf0nlpoucI9Ssmn9cSVJ5544uijj541a9ZMPbllwvil5BNAvCRAgAABAgQIECBAgAABAgQIECBQawKDu7pCRJ67oj7fP1Jr7VegXyl56Sn5tm3bTjjhhF//xc5bb721TKOSkpcJ1rIECBAgQIAAAQIECBAgQIAAAQIE0iLQ+XBDSMlbv/NMWmpOV51S8tJT8ve+971RFJ1wwgmXHvBzww03zMjnQEo+I4wWIUCAAAECBAgQIECAAAECBAgQIJBegZZbnggpeff/5NLbRZIrl5KXnpIvXrw4OsjPgY9BL+1DICUvzc1dBAgQIECAAAECBAgQIECAAAECBLIhMNI5uP9xK3X1w6192WgqaV1kPyVPmviU6pGST4nLxQQIECBAgAABAgQIECBAgAABAgQyJtCzoTmk5M1//3gcxxnrLiHtSMkTMojJy5CST+7iLAECBAgQIECAAAECBAgQIECAAIHaENj7vc0hJd/3wEu10XEVupSSVwG9+C2l5MVbuZIAAQIECBAgQIAAAQIECBAgQIBAxgTi4dHGq9aElHzghY6MdZecdqTkyZnFJJVIySdBcYoAAQIECBAgQIAAAQIECBAgQIBAbQj0b20PEXnj1WvjkXxtNF2FLqXkVUAvfkspefFWriRAgAABAgQIECBAgAABAgQIECCQMYGOn7wYUvK27z+fsdYS1Y6UPFHjmFiMlHyiiNcECBAgQIAAAQIECBAgQIAAAQIEakMgjuPmrz0WUvLejbtro+nqdCklr457kbtKyYuEchkBAgQIECBAgAABAgQIECBAgACBjAkM7+4NEXmurn60eyhj3SWqHSl5osYxsRgp+UQRrwkQIECAAAECBAgQIECAAAECBAjUhkDXo6+ElLzlm0/VRsdV61JKXjX6YjaWkhej5BoCBAgQIECAAAECBAgQIECAAAEC2RNo/fbTISXvemRn9rpLVEdS8kSNY2IxUvKJIl4TIECAAAECBAgQIECAAAECBAgQqAGB0d7h3OX1ISUfauypgY6r2aKUvJr6h9xbSn5IIhcQIECAAAECBAgQIECAAAECBAgQyJ5A7xMtISJv+uqGOI6z12CiOpKSJ2ocE4uRkk8U8ZoAAQIECBAgQIAAAQIECBAgQIBADQi03b0lpOQdP36hBtqtcotS8ioP4I23l5K/sY93CRAgQIAAAQIECBAgQIAAAQIECGRPIB7NN65YG1Ly/ufbstdg0jqSkidtIq+rR0r+Og4vCBAgQIAAAQIECBAgQIAAAQIECNSAwMBL+0JEnlu+Oj80WgMdV7nF7KfkfX19P/nJT/7yL//y9NNPX7BgwcKFC9/znvdce+21PT1v9Mz7m266KXr156abbqriiKTkVcS3NQECBAgQIECAAAECBAgQIECAAIGqCOx7cEdIyffc8VxVCqi1TbOfkt9+++0h7/6d3/mdT37yk0uXLj3qqKOiKHrXu97V2to66bzvuOOOKIoOe/UniqI77rhj0ssqcFJKXgFkWxAgQIAAAQIECBAgQIAAAQIECBBIlMDur28MKXnPuqZEFZbVYrKfkn/ve9/77Gc/u2XLlrERNjc3//7v/34URZdccsnYybGD++67b86cOUceeeSjjz76y1/+8sgjj5wzZ8599903dkElD6TkldS2FwECBAgQIECAAAECBAgQIECAAIGqC4zs7d//uJW6+pH2garXUwsFZD8ln3SK69ati6JowYIFQ0ND4y949NFHFyxYcOyxx65fvz6cX79+/THHHLNgwYJHH310/JWVOZaSV8bZLgQIECBAgAABAgQIECBAgAABAgQSItC9ujGk5Lv/cVNCSsp8GTWakvf19YXHsDQ3N4/NeNOmTUcdddRb3vKWp59+euxkoVB46qmnTjjhhKOOOmrTptd9LleuXBlF0YoVK3bt2nXJJZe8+c1vPuyww97//vc/8MAD42+fzrGUfDp67iVAgAABAgQIECBAgAABAgQIECCQOoE9tz8bUvLOn7+cuuJTWnCNpuTPPfdcFEXz5s0bHBwMk9u2bdsJJ5zwtre9bdu2bQfOctu2bW9729tOOOGE8e+GlPzSSy99y1vecuqpp1500UVnnXVWFEWzZ89++OGHD1ykhDNS8hLQ3EKAAAECBAgQIECAAAECBAgQIEAgpQL5wZHclatDSj7Y0JnSLlJXdo2m5H/1V38VRdH5558/nYGFlDyKoi996Uv5fD4sdfPNN0dRdM4550xn5bF7peRjFA4IECBAgAABAgQIECBAgAABAgQIZF6g/7m9ISJvunZdPBpnvt+ENFhsSh7H8UBvT9V/43gGPhkPPfTQrFmz5s2bN+HJKlMdSUjJTznllPEPNx8ZGTn22GPnzZs3/uRUVx67Xko+RuGAAAECBAgQIECAAAECBAgQIECAQOYF2n+4PaTk7fduzXyzyWmw2JR8oLfn6//v/1P134Henmnabd269dhjj42i6JZbbpnmUiEl/8xnPjNhnfe9731RFI1/4vmEC4p/KSUv3sqVBAgQIECAAAECBAgQIECAAAECBFItEOfjpuvWh5S87+nWVPeSruJrKyVvbGxcvHhxFEWXXXbZ9OcUUvKrr756wlJLliyJoqihoWHC+RJeSslLQHMLAQIECBAgQIAAAQIECBAgQIAAgTQKDL3SHSLy3BX1+b7hNLaQ0pprKCVvb2//3d/93SiKPvOZz8zIk1tCSr5ixYoJs5eSTwDxkgABAgQIECBAgAABAgQIECBAgACBQwp0PtwQUvLW7zx9yItdMIMCxabkaX8ueU9Pzwc/+MEoipYtWzY6OjojglLyGWG0CAECBAgQIECAAAECBAgQIECAAAEChUKh5dYnQ0re/asckEoKFJuSV7KmGd9rcHDwj//4j6MoWrp06Yz8Uc1QoZR8xidlQQIECBAgQIAAAQIECBAgQIAAAQK1KTDaObj/cSt19cOtfbWJUK2us5+Sj46OXnjhhVEUnXPOOX19M/nxkpJX61NrXwIECBAgQIAAAQIECBAgQIAAAQIZE+h5rDmk5M03PT4jz4vOmE9Z28l+Sn7LLbdEr/5ceOGFlx7ws3fv3pJ9peQl07mRAAECBAgQIECAAAECBAgQIECAAIHxAnu/tzmk5Pvuf2n8eccVEMh+Sr5ixYqQkk/6z4aGhpKVpeQl07mRAAECBAgQIECAAAECBAgQIECAAIExgXg433jVmpCSD2zvGDvvoDIC2U/JK+NYpl3y+fyWV3/y+XyZtrAsAQIECBAgQIAAAQIECBAgQIAAAQLVFRjY1h4i8sar18QjksBKT0NKXmnxKe0nJZ8Sl4sJECBAgAABAgQIECBAgAABAgQIpFGg46cvhpR87/efT2P9aa9ZSp7oCUrJEz0exREgQIAAAQIECBAgQIAAAQIECBCYtkAcx803PBZS8t7Hd097PQtMWUBKPmWySt4gJa+ktr0IECBAgAABAgQIECBAgAABAgQIVF5geHdviMhzdfWj3UOVL8COUvJEfwak5Ikej+IIECBAgAABAgQIECBAgAABAgQITFuga9UrISVvue3JaS9mgVIEpOSlqFXsHil5xahtRIAAAQIECBAgQIAAAQIECBAgQKAqAq3/9HRIybse2VmVAmwqJU/0Z0BKnujxKI4AAQIECBAgQIAAAQIECBAgQIDA9ARGe4dzl9eHlHwo1z29xdxdooCUvES4ytwmJa+Ms10IECBAgAABAgQIECBAgAABAgQIVEWg78nWEJE3Xb8hzsdVqcGmUvJEfwak5Ikej+IIECBAgAABAgQIECBAgAABAgQITE+g7Z6tISVv/9H26a3k7tIFpOSl21XgTil5BZBtQYAAAQIECBAgQIAAAQIECBAgQKAqAvFo3LhiXUjJ+zfvrUoNNi0UClLyRH8MpOSJHo/iCBAgQIAAAQIECBAgQIAAAQIECExDYHBHZ4jIc1euzg+OTmMlt05LQEo+Lb5y3ywlL7ew9QkQIECAAAECBAgQIECAAAECBAhUS2DfQy+HlHzPHc9Vqwb7+i550j8DUvKkT0h9BAgQIECAAAECBAgQIECAAAECBEoV2P2NjSEl71nbVOoa7psBAd8lnwHE8i0hJS+frZUJECBAgAABAgQIECBAgAABAgQIVFFgpK1//+NW6upH2geqWImtpeSJ/gxIyRM9HsURIECAAAECBAgQIECAAAECBAgQKFWge01jSMl3f2NTqWu4b2YEpOSvOV566aVRFK1ateq1U9U+kpJXewL2J0CAAAECBAgQIECAAAECBAgQIFAWgT3/+mxIyff9/OWybGDRogWk5K9RSclfs3BEgAABAgQIECBAgAABAgQIECBAgEDZBPKDI7krV4eUfPDlzrLtY+GiBKTkrzFJyV+zcESAAAECBAgQIECAAAECBAgQIECAQNkE+p/bGyLyxv+zLh6Ny7aPhYsSkJK/xiQlf83CEQECBAgQIECAAAECBAgQIECAAAECZRNo/9H2kJK33bO1bJtYuFiB7KfkDQ0Nv37a+JIlS/r7++vq6hYtWjR//vxTTz31xhtvjOPX/VcaKXmxnxrXESBAgAABAgQIECBAgAABAgQIECBQqkCcj5uuWx9S8r6nWktdxn0zJlArKflZZ5119tlnH3fcccuWLVu6dOlhhx0WRdHy5cvHQ0rJx2s4JkCAAAECBAgQIECAAAECBAgQIECgHAIDL3aEiDx3xep833A5trDmlASKTcnjOM73j1T9d8K3v4tpNXyXPHydvKurK9yycePGOXPmLFy4sKenZ2wRKfkYhQMCBAgQIECAAAECBAgQIECAAAECBMokMPa4lb0rN5dpC8tOSaDYlDzfP7L/v2/U1VfxIN8/MqX2CoVCSMlnz569bdu28feed955v47OV61aNXZSSj5G4YAAAQIECBAgQIAAAQIECBAgQIAAgXIIxMP5xmvWetxKOWxLXrNWUvJTTjllgtFll10WRdE999wzdl5KPkbhgAABAgQIECBAgAABAgQIECBAgACBcgj0Pbs3ROSNV6/JD42WYwtrTlWgVlLyc845ZwLNihUroihauXLl2Hkp+RiFAwIECBAgQIAAAQIECBAgQIAAAQIEyiHQ9v3nQ0refu/WcqxvzRIEik3J0/5c8iVLlkzQkZJPAPGSAAECBAgQIECAAAECBAgQIECAAIGyCvzvc62vXB1S8v5t7WXdy+LFCxSbkhe/YtKuDM8lLyYlT1rlhUIhn89vefUnn88nsDwlESBAgAABAgQIECBAgAABAgQIECBQvEDv47tDRN70lXXxqMSveLnyXiklf+2JK+WVLml1KXlJbG4iQIAAAQIECBAgQIAAAQIECBAgkESBPf/yTEjJO376YhLrq9WapOSvpeSf+tSn3vnOd953333J+TBIyZMzC5UQIECAAAECBAgQIECAAAECBAgQmI7AaOdg7vL6kJIP7uyazlLunVkBKflrKfmSJUsm/D3PmbUuYTUpeQlobiFAgAABAgQIECBAgAABAgQIECCQQIHu+lyIyJtvejyO4wRWWLMlScml5DX74dc4AQIECBAgQIAAAQIECBAgQIAAgcoJtNz6ZEjJO3/RULld7VSEQPZT8iIQknuJ75IndzYqI0CAAAECBAgQIECAAAECBAgQIFC0wHBrX4jIc3X1wy29Rd/nwkoISMkroVzyHlLykuncSIAAAQIECBAgQIAAAQIECBAgQCA5Ap0PN4SUvOWWJ5JTlUqCgJQ80Z8EKXmix6M4AgQIECBAgAABAgQIECBAgAABAkUIxHHcfNPjISXv/p9cEXe4pKICUvKKck91Myn5VMVcT4AAAQIECBAgQIAAAQIECBAgQCBpAoO7uvY/buXy+pHOwaSVpx4peaI/A1LyRI9HcQQIECBAgAABAgQIECBAgAABAgSKENh3/0shJd/zz88UcblLKi0gJa+0+JT2k5JPicvFBAgQIECAAAECBAgQIECAAAECBJImEI/GTdetDyl5z2PNSStPPYVCQUqe6I+BlDzR41EcAQIECBAgQIAAAQIECBAgQIAAgUMJDGzv2P+4lStX5/uGD3W596sgICWvAnrxW0rJi7dyJQECBAgQIECAAAECBAgQIECAAIEECrT/+7aQku/9t+cTWJ6SJn6XPI7jLa/+DA/7bxqJ+HgMDw+HicRxnIiCFEGAAAECBAgQIECAAAECBAgQIECAQNEC+aHRxqvXhpS875k9Rd/nwooKvO675IVCYceOHVu2bGlra6toFTY7iEBbW9uWLVt27NhxkPedJkCAAAECBAgQIECAAAECBAgQIEAguQJ9T+8JEXnjNWvj4dHkFlrblU1MyTs6OsKXl1taWvr6+kZHR/N+Ki4wOjra19fX0tISZtHR0VHbn1LdEyBAgAABAgQIECBAgAABAgQIEEilwN7vbQ4pefu/b0tlA7VR9MSUPJ/PNzc3h3DWP5Mg0NzcnM/na+PTqEsCBAgQIECAAAECBAgQIECAAAEC2RHI9w3nrlwdUvKBF3wRNrmTnZiSFwqFOI67uroaGxu3b9+ehJi4NmvYvn17Y2NjV1eXJ5In998elREgQIAAAQIECBAgQIAAAQIECBA4uEDPhuYQkTddtz4e9XcHDy5V7XcmScnHlxTHccUfN2LDvGR8/IfQMQECBAgQIECAAAECBAgQIECAAIE0CrR+5+mQku974KU01l87NR8iJa8dCJ0SIECAAAECBAgQIECAAAECBAgQIEBgpgRG9g2EiDxXVz/0SvdMLWudcghIycuhak0CBAgQIECAAAECBAgQIECAAAECBGpaoPtXr4SUfPffP+7REQn/KEjJEz4g5REgQIAAAQIECBAgQIAAAQIECBAgkD6BlpufCCl553/tTF/1NVaxlLzGBq5dAgQIECBAgAABAgQIECBAgAABAgTKLDC8u3fscSvDe/rKvJvlpysgJZ+uoPsJECBAgAABAgQIECBAgAABAgQIECAwXqDzPxtCSt5y25PjzztOpoCUPJlzURUBAgQIECBAgAABAgQIECBAgAABAqkUiPNx8w2PhZS8e3VjKnuosaKl5DU2cO0SIECAAAECBAgQIECAAAECBAgQIFBOgcGGzv2PW7m8frRrqJxbWXtmBKTkM+NoFQIECBAgQIAAAQIECBAgQIAAAQIECBQKhY6fvBhS8j23PwskFQJS8lSMSZEECBAgQIAAAQIECBAgQIAAAQIECKRAIB7NN127LqTkvRt3p6BiJRYKUnKfAgIECBAgQIAAAQIECBAgQIAAAQIECMyMQP/W9v2PW1m+Oj8wMjOLWqXMAlLyMgNbngABAgQIECBAgAABAgQIECBAgACBmhFou3drSMnb7tpSM02nvlEpeepHqAECBAgQIECAAAECBAgQIECAAAECBJIgkB8cbbxqTUjJ+5/bm4SS1FCMgJS8GCXXECBAgAABAgQIECBAgAABAgQIECBA4BACfU+2hoi8ccXaeCR/iKu9nRgBKXliRqEQAgQIECBAgAABAgQIECBAgAABAgTSLLD3u8+FlLz9R9vT3EfN1S4lr7mRa5gAAQIECBAgQIAAAQIECBAgQIAAgRkXGO0Zyl1RH1LygZf2zfj6FiyfgJS8fLZWJkCAAAECBAgQIECAAAECBAgQIECgVgR61jWFiLzpqxvifFwrbWeiTyl5JsaoCQIECBAgQIAAAQIECBAgQIAAAQIEqirQ+u2nQ0q+78EdVS3E5lMWkJJPmcwNBAgQIECAAAECBAgQIECAAAECBAgQGC8w0j4QIvJcXf1QY8/4txwnX0BKnvwZqZAAAQIECBAgQIAAAQIECBAgQIAAgUQLdD26K6Tku7++MY49biXRwzqwOCn5gSbOECBAgAABAgQIECBAgAABAgQIECBAoFiBOI53f2NTSMm7/ntXsbe5LjECUvLEjEIhBAgQIECAAAECBAgQIECAAAECBAikUGCoqWfscSsjbf0p7KDWS5aS1/onQP8ECBAgQIAAAQIECBAgQIAAAQIECExHYN9DL4eUvPVbT01nHfdWS0BKXi15+xIgQIAAAQIECBAgQIAAAQIECBAgkHqBOB83f21DSMl71jalvp+abEBKXpNj1zQBAgQIECBAgAABAgQIECBAgAABAjMhMLhj3/7HrVxRP9ozNBNLWqPSAlLySovbjwABAgQIECBAgAABAgQIECBAgACBzAh0/PiFkJLvueO5zDRVa41IyWtt4volQIAAAQIECBAgQIAAAQIECBAgQGBmBOKRfOP/WRdS8t4nWmZmUatUXEBKXnFyGxIgQIAAAQIECBAgQIAAAQIECBAgkAmB/s1tISJvvGpNfnAkEz3VYhNS8lqcup4JECBAgAABAgQIECBAgAABAgQIEJi+QNvdW0JK3nbP1umvZoVqCUjJqyVvXwIECBAgQIAAAQIECBAgQIAAAQIEUiyQHxjJLV8TUvL+59tS3EnNly4lr/mPAAACBAgQIECAAAECBAgQIECAAAECBKYu0LupJUTkTdeui0fyU1/AHUkRkJInZRLqIECAAAECBAgQIECAAAECBAgQIEAgRQJ7/vXZkJJ33PdCispW6oECUvIDTZwhQIAAAQIECBAgQIAAAQIECBAgQIDAGwmMdg/lLq8PKfngy51vdKn3Ei8gJU/8iBRIgAABAgQIECBAgAABAgQIECBAgEDCBLrXNIaIvPlrj8X5OGHVKWdqAlLyqXm5mgABAgQIECBAgAABAgQIECBAgAABAi3ffCqk5J0/f5lG2gWk5GmfoPoJECBAgAABAgQIECBAgAABAgQIEKiowPDe/hCR5+rqh3f3VnRvm5VBQEpeBlRLEiBAgAABAgQIECBAgAABAgQIECCQXYGuR3aGlHz3P27Kbpc11JmUvIaGrVUCBAgQIECAAAECBAgQIECAAAECBKYpEMfx7n/YGFLyrlWvTHM1tydBQEqehCmogQAB0j5JPwAAIABJREFUAgQIECBAgAABAgQIECBAgACBdAgM5brHHrcy0jGQjqJV+YYCUvI35PEmAQIECBAgQIAAAQIECBAgQIAAAQIExgns+9mOkJK3/tPT4047TLGAlDzFw1M6AQIECBAgQIAAAQIECBAgQIAAAQKVFIjzcdP1G0JK3rO+uZJb26t8AlLy8tlamQABAgQIECBAgAABAgQIECBAgACBTAkMvNix/3ErV6we7R3OVG813IyUvIaHr3UCBAgQIECAAAECBAgQIECAAAECBKYi0P7D7SEl37ty81Tuc22iBaTkiR6P4ggQIECAAAECBAgQIECAAAECBAgQSIhAPJxvvGZtSMn7nmpNSFXKmL6AlHz6hlYgQIAAAQIECBAgQIAAAQIECBAgQCD7An3P7g0ReePVa/JDo9lvuGY6lJLXzKg1SoAAAQIECBAgQIAAAQIECBAgQIDANATavv98SMnbf7BtGsu4NXECUvLEjURBBAgQIECAAAECBAgQIECAAAECBAgkTSDfP5K7cnVIyfu3tSetPPVMR0BKPh099xIgQIAAAQIECBAgQIAAAQIECBAgUBMCvY/vDhF501fWx6P5mui5ZpqUktfMqDVKgAABAgQIECBAgAABAgQIECBAgECpAnv+5ZmQknf89MVS13BfQgWk5AkdjLIIECBAgAABAgQIECBAgAABAgQIEEiIwGjnYO7y+pCSD+7sSkhVypgpASn5TElahwABAgQIECBAgAABAgQIECBAgACBbAp01+dCRN580+NxHGezyRruSkpew8PXOgECBAgQIECAAAECBAgQIECAAAECRQi03PpkSMk7f9FQxOUuSZmAlDxlA1MuAQIECBAgQIAAAQIECBAgQIAAAQKVFBhu7QsRea6ufri1r5Jb26syAlLyyjjbhQABAgQIECBAgAABAgQIECBAgACBVAp0PtwQUvKWW55IZQOKPpSAlPxQQt4nQIAAAQIECBAgQIAAAQIECBAgQKBWBeI4br7p8ZCSd/9PrlYZMt63lDzjA9YeAQIECBAgQIAAAQIECBAgQIAAAQIlCwzu6tr/uJXL60c6B0tex41JFpCSJ3k6aiNAgAABAgQIECBAgAABAgQIECBAoJoC++5/KaTke/75mWrWYe9yCkjJy6lrbQIECBAgQIAAAQIECBAgQIAAAQIEUisQj8ZN160PKXnvY7tT24fCDyEgJT8EkLcJECBAgAABAgQIECBAgAABAgQIEKhNgYHtHfsft3Ll6nzfcG0i1ELXUvJamLIeCRAgQIAAAQIECBAgQIAAAQIECBCYskD7D7aFlHzvvz0/5ZvdkB4BKXl6ZqVSAgQIECBAgAABAgQIECBAgAABAgQqJZAfGm28em1Iyfue2VOpbe1TBQEpeRXQbUmAAAECBAgQIECAAAECBAgQIECAQMIF+p7eEyLyxmvWxsOjCa9WedMRkJJPR8+9BAgQIECAAAECBAgQIECAAAECBAhkU2Dv9zaHlLz9h9uz2aGufiMgJf+NhP8lQIAAAQIECBAgQIAAAQIECBAgQIDAqwL5vuHclatDSj7wQgeVbAtIybM9X90RIECAAAECBAgQIECAAAECBAgQIDBlgZ4NzSEib7pufZyPp3y/G1IlICVP1bgUS4AAAQIECBAgQIAAAQIECBAgQIBA+QVav/N0SMn3PfBS+XezQ5UFpORVHoDtCRAgQIAAAQIECBAgQIAAAQIECBBIlMDIvoEQkefq6ode6U5UbYoph4CUvByq1iRAgAABAgQIECBAgAABAgQIECBAIK0C3b96JaTku/9hYxx73Epa51h83VLy4q1cSYAAAQIECBAgQIAAAQIECBAgQIBA9gVabn4ipOSd/7Uz+93qsFCQkvsUECBAgAABAgQIECBAgAABAgQIECBAYL/A8O7escetDO/p41ILAlLyWpiyHgkQIECAAAECBAgQIECAAAECBAgQKEqg8z8bQkrectuTRd3govQLSMnTP0MdECBAgAABAgQIECBAgAABAgQIECAwEwJxPm6+4bGQknevbpyJJa2RAgEpeQqGpEQCBAgQIECAAAECBAgQIECAAAECBCogMNjQuf9xK5fXj3YNVWBHWyRBQEqehCmogQABAgQIECBAgAABAgQIECBAgACB6gt0/OTFkJLvuf3Z6lejgkoJSMkrJW0fAgQIECBAgAABAgQIECBAgAABAgQSLBCP5puuXRdS8t6NLQmuVGkzLCAln2FQyxEgQIAAAQIECBAgQIAAAQIECBAgkEaB/q3t+x+3snx1fmAkjS2ouTQBKXlpbu4iQIAAAQIECBAgQIAAAQIECBAgQCBTAm33bA0pedtdWzLVmGYOJSAlP5SQ9wkQIECAAAECBAgQIECAAAECBAgQyLpAfnC08ao1ISXvf25v1tvV3+sEpOSv4/CCAAECBAgQIECAAAECBAgQIECAAIEaFOh7sjVE5I0r1sUj+RoUqOWWpeS1PH29EyBAgAABAgQIECBAgAABAgQIECDwvwJ7v/tcSMk7/uMFIrUmICWvtYnrlwABAgQIECBAgAABAgQIECBAgACB1wmM9gzlrqgPKfnAS/te954XNSAgJa+BIWuRAAECBAgQIECAAAECBAgQIECAAIGDC/SsawoRefNXN8T5+OAXeiebAlLybM5VVwQIECBAgAABAgQIECBAgAABAgQIFCnQ+u2nQ0q+78EdRd7isiwJSMmzNE29ECBAgAABAgQIECBAgAABAgQIECAwNYGR9oEQkefq6ocae6Z2s6szISAlz8QYNUGAAAECBAgQIECAAAECBAgQIECAQEkCXY/uCin57m9sjGOPWykJMeU3SclTPkDlEyBAgAABAgQIECBAgAABAgQIECBQqkAcx7u/sSmk5F3/vavUZdyXbgEpebrnp3oCBAgQIECAAAECBAgQIECAAAECBEoWGGrqGXvcykhbf8nruDHVAlLyVI9P8QQIECBAgAABAgQIECBAgAABAgQIlC6w76GXQ0re+q2nSl/FnSkXkJKnfIDKJ0CAAAECBAgQIECAAAECBAgQIECgJIE4Hzd/bUNIyXvWNpW0hpuyICAlz8IU9UCAAAECBAgQIECAAAECBAgQIECAwFQFBnfs2/+4lSvqR3uGpnq76zMjICXPzCg1QoAAAQIECBAgQIAAAQIECBAgQIDAFAQ6fvxCSMn33PHcFG5zaeYEpOSZG6mGCBAgQIAAAQIECBAgQIAAAQIECBA4lEA8km9csS6k5L1Pth7qcu9nWUBKnuXp6o0AAQIECBAgQIAAAQIECBAgQIAAgUkF+je3hYi88ao1+cGRSa9xskYEpOQ1MmhtEiBAgAABAgQIECBAgAABAgQIECDwmkDbXVtCSt52z9bXzjqqSQEpeU2OXdMECBAgQIAAAQIECBAgQIAAAQIEalggPzCSW74mpOT9z7fVsITW/1dASu5zQIAAAQIECBAgQIAAAQIECBAgQIBAbQn0bmoJEXnTtevikXxtNa/bAwSk5AeQOEGAAAECBAgQIECAAAECBAgQIECAQKYF9vzrsyEl77jvhUw3qrmiBKTkRTG5iAABAgQIECBAgAABAgQIECBAgACBbAiMdg/lLq8PKfngy53ZaEoX0xGQkk9Hz70ECBAgQIAAAQIECBAgQIAAAQIECKRMoHt1Y4jIm294LM7HKateuWUQkJKXAdWSBAgQIECAAAECBAgQIECAAAECBAgkVaDlm0+FlLzz5y8ntUZ1VVRASl5RbpsRIECAAAECBAgQIECAAAECBAgQIFBFgeG9/SEiz9XVD+/urWIltk6OgJQ8ObNQCQECBAgQIECAAAECBAgQIECAAAEC5RXoemRnSMlbbt5U3p2snh4BKXl6ZqVSAgQIECBAgAABAgQIECBAgAABAgSmIRDH8e5/2BhS8q5Vr0xjJbdmSkBKnqlxaoYAAQIECBAgQIAAAQIECBAgQIAAgYMJDOW6xx63MtIxcLDLnK81ASl5rU1cvwQIECBAgAABAgQIECBAgAABAgRqVGDfz3aElLz1n56uUQJtTyYgJZ9MxTkCBAgQIECAAAECBAgQIECAAAECBLIlEOfjpus3hJS8Z31ztprTzbQEpOTT4nMzAQIECBAgQIAAAQIECBAgQIAAAQKpEOjf2r7/cStXrB7tHU5FzYqsjICUvDLOdiFAgAABAgQIECBAgAABAgQIECBAoJoCe7/7XEjJ9/7b89Wsw97JE5CSJ28mKiJAgAABAgQIECBAgAABAgQIECBAYEYFRvb25y6vDyn5wIsdM7q2xVIvICVP/Qg1QIAAAQIECBAgQIAAAQIECBAgQIDAGwuM/d3O3d/YGMfxG1/s3VoTkJLX2sT1S4AAAQIECBAgQIAAAQIECBAgQKC2BPJDo40r1u7/u53rmmqred0WISAlLwLJJQQIECBAgAABAgQIECBAgAABAgQIpFagZ0NziMgbr1mbHxxJbR8KL5eAlLxcstYlQIAAAQIECBAgQIAAAQIECBAgQKDqAnEct9y8KaTk++5/qer1KCCBAlLyBA5FSQQIECBAgAABAgQIECBAgAABAgQIzIzA4I7OEJHn6uqHW/tmZlGrZEtASp6teeqGAAECBAgQIECAAAECBAgQIECAAIFxAm13bQkp+Z5/fXbcaYcEXhOQkr9m4YgAAQIECBAgQIAAAQIECBAgQIAAgSwJjHYO5q6oDyl5//NtWWpNLzMoICWfQUxLESBAgAABAgQIECBAgAABAgQIECCQIIHOhxtCRN58w2NxPk5QZUpJkoCUPEnTUAsBAgQIECBAgAABAgQIECBAgAABAjMkEI/km65bH1Ly7l+9MkOrWiaDAlLyDA5VSwQIECBAgAABAgQIECBAgAABAgQI9D3ZGiLy3PI1o73DQAgcTEBKfjAZ5wkQIECAAAECBAgQIECAAAECBAgQSLFA67eeCil5+w+3p7gNpZdfQEpefmM7ECBAgAABAgQIECBAgAABAgQIECBQWYGhXPf+L5LX1Q819lR2c7ulTEBKnrKBKZcAAQIECBAgQIAAAQIECBAgQIAAgUMKtP9we0jJW7/99CEvdkGNC0jJa/wDoH0CBAgQIECAAAECBAgQIECAAAECWRMY7R3OLV8dUvK+p1qz1p5+ZlpASj7TotYjQIAAAQIECBAgQIAAAQIECBAgQKCqAl2rXgkRedN16+ORfFVrsXkKBKTkKRiSEgkQIECAAAECBAgQIECAAAECBAgQKFIgzsfNNzwWUvLO/9pZ5F0uq2UBKXktT1/vBAgQIECAAAECBAgQIECAAAECBLIm0L+5LUTkuStWj3YNZq09/ZRBQEpeBlRLEiBAgAABAgQIECBAgAABAgQIECBQJYE9tz8bUvK2u7dUqQTbpkxASp6ygSmXAAECBAgQIECAAAECBAgQIECAAIGDCQy39u3/Inld/eDLnQe7zHkC4wWk5OM1HBMgQIAAAQIECBAgQIAAAQIECBAgkGKBjp++GFLylpufiOM4xZ0ovYICUvIKYtuKAAECBAgQIECAAAECBAgQIECAAIGyCeQHRhqvXhtS8p7Hmsu2j4WzJiAlz9pE9UOAAAECBAgQIECAAAECBAgQIECgNgV61jaFiLxxxbr80GhtIui6BAEpeQlobiFAgAABAgQIECBAgAABAgQIECBAIFkCcRzv/vrGkJLve3BHsopTTbIFpOTJno/qCBAgQIAAAQIECBAgQIAAAQIECBAoQmDghY4Qkecurx9p6y/iDpcQ2C8gJfdRIECAAAECBAgQIECAAAECBAgQIEAg9QJ7/+35kJLvXbk59c1ooLICUvLKetuNAAECBAgQIECAAAECBAgQIECAAIGZFhhpH8hdXh9S8oFt7TO9vPUyLiAlz/iAtUeAAAECBAgQIECAAAECBAgQIEAg8wKdP385ROS7//7xOB9nvl8NzqyAlHxmPa1GgAABAgQIECBAgAABAgQIECBAgEBFBeLh0aZr14WUvHt1Y0X3tlkmBKTkmRijJggQIECAAAECBAgQIECAAAECBAjUqkDvxpYQkTdetSbfP1KrDPouXUBKXrqdOwkQIECAAAECBAgQIECAAAECBAgQqK5AHMcttz4ZUvKO+16objF2T6mAlDylg1M2AQIECBAgQIAAAQIECBAgQIAAAQKFwZ1dISLP1dUP7+4lQqAEASl5CWhuIUCAAAECBAgQIECAAAECBAgQIEAgEQJt924NKXnrd55JREGKSKGAlDyFQ1MyAQIECBAgQIAAAQIECBAgQIAAAQKFwmj3UO7K1SEl73t2DxICpQlIyUtzcxcBAgQIECBAgAABAgQIECBAgAABAlUW6PrvXSEib/7ahng0rnI1tk+tgJQ8taNTOAECBAgQIECAAAECBAgQIECAAIEaFohH801f3RBS8q5f7qphCa1PV0BKPl1B9xMgQIAAAQIECBAgQIAAAQIECBAgUHmBvmf2hIg8d+Xq0Z6hyhdgx8wISMkzM0qNECBAgAABAgQIECBAgAABAgQIEKghgdbvPB1S8vYfbKuhtrVaBgEpeRlQLUmAAAECBAgQIECAAAECBAgQIECAQDkFhpp793+RvK5+cFdXObeydvYFpOTZn7EOCRAgQIAAAQIECBAgQIAAAQIECGRMoOPHL4SUvOW2J+PY3+3M2Hgr3Y6UvNLi9iNAgAABAgQIECBAgAABAgQIECBAYDoC+b7hxqvWhJS8d1PLdJZyL4FCoSAl9zEgQIAAAQIECBAgQIAAAQIECBAgQCBNAt31jSEib7p2XTycT1Ppak2kgJQ8kWNRFAECBAgQIECAAAECBAgQIECAAAECkwnE+bj57x8PKXnnf7482SXOEZiagJR8al6uJkCAAAECBAgQIECAAAECBAgQIECgigL9W9tDRJ67vH6kY6CKldg6MwJS8syMUiMECBAgQIAAAQIECBAgQIAAAQIEsi+w97vPhZR87789n/1udVgRASl5RZhtQoAAAQIECBAgQIAAAQIECBAgQIDAtAVG9vbv/yJ5Xf3Ai/umvZ4FCPyvgJTc54AAAQIECBAgQIAAAQIECBAgQIAAgXQI7PvZjpCS7/7GxjiO01G0KhMvICVP/IgUSIAAAQIECBAgQIAAAQIECBAgQIBAoZAfGm1csTak5D3rmpAQmCkBKflMSVqHAAECBAgQIECAAAECBAgQIECAAIEyCvRsaA4ReeM1a/ODI2XcydI1JiAlr7GBa5cAAQIECBAgQIAAAQIECBAgQIBACgXiOG65eVNIyffd/1IKO1BycgWk5MmdjcoIECBAgAABAgQIECBAgAABAgQIEAgCgzs6Q0Seq6sfbu3DQmAGBaTkM4hpKQIECBAgQIAAAQIECBAgQIAAAQIEyiLQdteWkJLv+ddny7KBRWtYQEpew8PXOgECBAgQIECAAAECBAgQIECAAIE0CIx2DuauqA8pef/zbWkoWY1pEpCSp2laaiVAgAABAgQIECBAgAABAgQIECBQgwKdDzeEiLz5hsfifFyDAlouq4CUvKy8FidAgAABAgQIECBAgAABAgQIECBAYFoC8Ui+6br1ISXv/tUr01rLzQQmE5CST6biHAECBAgQIECAAAECBAgQIECAAAECyRDoe7I1ROS55WtGe4eTUZQqMiUgJc/UODVDgAABAgQIECBAgAABAgQIECBAIGMCrd96KqTk7T/anrHWtJMQASl5QgahDAIECBAgQIAAAQIECBAgQIAAAQIEJgoM5br3f5G8rn6osWfi214TmAkBKflMKFqDAAECBAgQIECAAAECBAgQIECAAIEyCLT/cHtIyVu//XQZlrckgf8VkJL7HBAgQIAAAQIECBAgQIAAAQIECBAgkESB0d7h3PLVISXve6o1iSWqKRMCUvJMjFETBAgQIECAAAECBAgQIECAAAECBDIn0LXqlRCRN123Ph7JZ64/DSVFQEqelEmogwABAgQIECBAgAABAgQIECBAgACBMYE4Hzff8FhIyTv/a+fYeQcEZlxASj7jpBYkQIAAAQIECBAgQIAAAQIECBAgQGC6Av2b20JEnrti9WjX4HSXcz+BgwtIyQ9u4x0CBAgQIECAAAECBAgQIECAAAECBKoksOf2Z0NK3nb3liqVYNtaEZCS18qk9UmAAAECBAgQIECAAAECBAgQIEAgLQLDrX37v0heVz/4cmdaylZnSgWk5CkdnLIJECBAgAABAgQIECBAgAABAgQIZFag46cvhpS85eYn4jjObJ8aS4aAlDwZc1AFAQIECBAgQIAAAQIECBAgQIAAAQKvCuQHRhqvXhtS8p7HmqkQKLeAlLzcwtYnQIAAAQL/P3v3/SVXdeUP+w+0PZ7gF4wZjz32zDjN+Gt77FEEGZEMSGSBMAiRZAYGmwwiCqpbauWcs1RVnXOudPWuplolqVqtThVueNbSWu6uuvecvZ/d/uXj43sJECBAgAABAgQIECBAgMACBEa2Z8sReWbNjlKuuIA7XUpgUQJS8kWxuYkAAQIECBAgQIAAAQIECBAgQIAAgToIBEHQsW5POSUf+OBcHXawJIFqASl5tYjfCRAgQIAAAQIECBAgQIAAAQIECBBolsDE6f5yRJ5enir0jjerDPsmSkBKnqhxa5YAAQIECBAgQIAAAQIECBAgQIBAqAV6Xj5WTsl7Nh8NdaGKi5GAlDxGw9QKAQIECBAgQIAAAQIECBAgQIAAgSgLFPom0stT5ZR84mRflFtRe5QEpORRmpZaCRAgQIAAAQIECBAgQIAAAQIECMRYYPCj8+WIvOPh3UEpiHGnWguVgJQ8VONQDAECBAgQIECAAAECBAgQIECAAIGECgT5YvaeHeWUfLglk1AFbTdDQEreDHV7EiBAgAABAgQIECBAgAABAgQIECBwo8Dono5yRJ5Z3VoaL9z4pd8I1FFASl5HXEsTIECAAAECBAgQIECAAAECBAgQIDAfgSAIOp/YV07J+/92ej63uIZArQSk5LWStA4BAgQIECBAgAABAgQIECBAgAABAosUmLw4VI7I08tS+Y7RRa7iNgKLEpCSL4rNTQQIECBAgAABAgQIECBAgAABAgQI1E6g9/UT5ZS8a+Oh2q1qJQLzEpCSz4vJRQQIECBAgAABAgQIECBAgAABAgQI1EmgOJxLr2wpp+Rjh3vqtItlCcwmICWfTcbnBAgQIECAAAECBAgQIECAAAECBAg0QmDo80vliLz9gZ1BMWjElvYgcJ2AlPw6DD8SIECAAAECBAgQIECAAAECBAgQINBYgaBYyt6/s5ySD31xqbGb243AlICU3N8BAQIECBAgQIAAAQIECBAgQIAAAQJNExg71F2OyNMrW4ojuabVYeMEC0jJEzx8rRMgQIAAAQIECBAgQIAAAQIECBBotkDXxoPllLzvf082uxb7J1RASp7QwWubAAECBAgQIECAAAECBAgQIECAQNMFcu2j0wfJl6UmLw01vR4FJFNASp7MueuaAAECBAgQIECAAAECBAgQIECAQPMF+v96upySdz61Pwi8t7P5E0lmBVLyZM5d1wQIECBAgAABAgQIECBAgAABAgSaLFAay2dWt5ZT8tG9nU2uxvYJFpCSJ3j4WidAgAABAgQIECBAgAABAgQIECDQPIHhVLockWfv2RHkS80rxM5JF5CSJ/0vQP8ECBAgQIAAAQIECBAgQIAAAQIEGi8QlIL2h3aXU/LBj883vgA7EqgISMkrFH4gQIAAAQIECBAgQIAAAQIECBAgQKBBAuMn+soReXp5qtA/0aBdbUPgZgJS8pup+IwAAQIECBAgQIAAAQIECBAgQIAAgXoK9Lx4pJyS97xyrJ77WJvA3AJS8rmNXEGAAAECBAgQIECAAAECBAgQIECAQA0FCj3j0wfJl6UmzgzUcGVLEViEgJR8EWhuIUCAAAECBAgQIECAAAECBAgQIEBg8QID758rp+Qd6/cEQbD4hdxJoBYCUvJaKFqDAAECBAgQIECAAAECBAgQIECAAIH5CZRyxcya7eWUfGRHdn43uYpAHQWk5HXEtTQBAgQIECBAgAABAgQIECBAgAABAlUCIzvbyxF55u7tpclC1bd+JdB4ASl5483tSIAAAQIECBAgQIAAAQIECBAgQCChAkEQdD62t5ySD7x7NqEK2g6ZgJQ8ZANRDgECBAgQIECAAAECBAgQIECAAIH4CkyeGyhH5OllqXzXWHwb1VmUBKTkUZqWWgkQIECAAAECBAgQIECAAAECBAhEWqD3tePllLz7hcORbkTxcRKQksdpmnohQIAAAQIECBAgQIAAAQIECBAgEF6BwuBkekWqnJKPH+sNb6EqS5iAlDxhA9cuAQIECBAgQIAAAQIECBAgQIAAgSYJDH5yoRyRtz+4KygFTarCtgSqBaTk1SJ+J0CAAAECBAgQIECAAAECBAgQIECg5gJBoZS9t62ckg9/dbnm61uQwKIFpOSLpnMjAQIECBAgQIAAAQIECBAgQIAAAQLzFRjb31WOyNOrWouj+fne5joC9ReQktff2A4ECBAgQIAAAQIECBAgQIAAAQIEEi/QteFAOSXv+79TiccAEC4BKXm45qEaAgQIECBAgAABAgQIECBAgAABAvETyKWHpw+SL0vlMiPxa1BHkRaQkkd6fIonQIAAAQIECBAgQIAAAQIECBAgEAGBvjdPlVPyrmcORqBcJSZMQEqesIFrlwABAgQIECBAgAABAgQIECBAgEBjBYqj+fSqlnJKPnagq7Gb243A3AJS8rmNXEGAAAECBAgQIECAAAECBAgQIECAwKIFhrZdLkfk2XvbgkJp0eu4kUCdBKTkdYK1LAECBAgQIECAAAECBAgQIECAAAECV4Ji0P7grnJKPvjpRSIEQiggJQ/hUJREgAABAgQIECBAgAABAgQIECBAICYC40d6yhF5ekVLcWgyJl1pI14CUvJfP12KAAAgAElEQVR4zVM3BAgQIECAAAECBAgQIECAAAECBEIjEARB5xP7yil575bjoalLIQRuEJCS38DhFwIECBAgQIAAAQIECBAgQIAAAQIEaiUwfvTqQfJlqVxmpFbLWodAbQWk5LX1tBoBAgQIECBAgAABAgQIECBAgAABAlMCQSnofHz6IHnPy8egEAitgJQ8tKNRGAECBAgQIECAAAECBAgQIECAAIEIC1x7IvmyVC7rIHmERxn70qXksR+xBgkQIECAAAECBAgQIECAAAECBAg0WmDqIPljVw+Sv+IgeaP97bcgASn5grhcTIAAAQIECBAgQIAAAQIECBAgQIDA3AJjh697IrmD5HODuaKZAlLyZurbmwABAgQIECBAgAABAgQIECBAgED8BIJS0PHo3vSyVHpZqtdB8vgNOHYdScljN1INESBAgAABAgQIECBAgAABAgQIEGiqwNjh7nJEnl6WyrWPNrUWmxOYW0BKPreRKwgQIECAAAECBAgQIECAAAECBAgQmKfADQfJXzs+z7tcRqCJAlLyJuLbmgABAgQIECBAgAABAgQIECBAgEDcBMYOXT1IvjyV73CQPG7zjWU/UvJYjlVTBAgQIECAAAECBAgQIECAAAECBJogMHWQfP3VJ5JvcZC8CSOw5SIEpOSLQHMLAQIECBAgQIAAAQIECBAgQIAAAQI3ERg72DX9RPLlqXyng+Q3IfJRCAWk5CEcipIIECBAgAABAgQIECBAgAABAgQIRE/gm4Pke8opea+D5NEbYHIrlpInd/Y6J0CAAAECBAgQIECAAAECBAgQIFBDgbEDDpLXkNNSjROQkjfO2k4ECBAgQIAAAQIECBAgQIAAAQIE4iowdZB83dWD5H85Edc29RVLASl5LMeqKQIECBAgQIAAAQIECBAgQIAAAQINFRjbf91B8q6xhu5tMwJLE5CSL83P3QQIECBAgAABAgQIECBAgAABAgQSLzB1kPyRqwfJX3eQPPF/EFEDkJJHbWLqJUCAAAECBAgQIECAAAECBAgQIBAygdHrD5J3O0gesvEoZy4BKflcQr4nQIAAAQIECBAgQIAAAQIECBAgQGB2gaB47SB53/+enP1C3xAIqYCUPKSDURYBAgQIECBAgAABAgQIECBAgACBSAiM7u1ML0tN/VueyjtIHomZKfJGASn5jR5+I0CAAAECBAgQIECAAAECBAgQIEBg3gJTB8kf3l1OyR0knzebC8MlICUP1zxUQ4AAAQIECBAgQIAAAQIECBAgQCBCAtcOkq9I5XvGI1S5UglUBKTkFQo/ECBAgAABAgQIECBAgAABAgQIECCwAIGgGLRXDpK/4YnkC6BzaagEpOShGodiCBAgQIAAAQIECBAgQIAAAQIECERGYHRPx/QTyVekCg6SR2ZuCq0WkJJXi/idAAECBAgQIECAAAECBAgQIECAAIE5BYJiqf2hq08kf/PUnNe7gEBoBaTkoR2NwggQIECAAAECBAgQIECAAAECBAiEV2B093UHyXs9kTy8k1LZnAJS8jmJXECAAAECBAgQIECAAAECBAgQIECAwA0CNxwk/z8HyW/A8UvkBKTkkRuZggkQIECAAAECBAgQIECAAAECBAg0WWB0V+UgeUvBQfImT8P2SxWQki9V0P0ECBAgQIAAAQIECBAgQIAAAQIEEiUQFErtD+4qv7ezz0HyRM0+ps1KyWM6WG0RIECAAAECBAgQIECAAAECBAgQqI/AyK72ckSeXtFS6JuozyZWJdA4ASl546ztRIAAAQIECBAgQIAAAQIECBAgQCDqAtcfJO//6+mot6N+AleuXJGS+zMgQIAAAQIECBAgQIAAAQIECBAgQGC+AiM7rztI3u8g+XzdXBdmASl5mKejNgIECBAgQIAAAQIECBAgQIAAAQIhEpg6SP7A9BPJHSQP0WCUsjQBKfnS/NxNgAABAgQIECBAgAABAgQIECBAIDECI21XD5KvbCkMOEiemMHHvVEpedwnrD8CBAgQIECAAAECBAgQIECAAAECtRD45iD5zvJ7O/v/5onktTC1RjgEpOThmIMqCBAgQIAAAQIECBAgQIAAAQIECIRbYGRHthyRp6cOkk+Gu1jVEViAgJR8AVguJUCAAAECBAgQIECAAAECBAgQIJBMgSBfar//6kHyt88kE0HXcRWQksd1svoiQIAAAQIECBAgQIAAAQIECBAgUDOBGw6SDzpIXjNYC4VBQEoehimogQABAgQIECBAgAABAgQIECBAgEB4BYJ8KVs5SP6Og+ThnZTKFicgJV+cm7sIECBAgAABAgQIECBAgAABAgQIJEVgpDUz/UTyVS1FB8mTMvYE9SklT9CwtUqAAAECBAgQIECAAAECBAgQIEBgoQJBvpi9b/qJ5APvnl3o7a4nEH4BKXn4Z6RCAgQIECBAgAABAgQIECBAgAABAk0TGG657iD5kCeSN20QNq6fgJS8frZWJkCAAAECBAgQIECAAAECBAgQIBBtgW8OkreVH7fiIHm0Z6n62QWk5LPb+IYAAQIECBAgQIAAAQIECBAgQIBAsgWuO0jeWhzKJRtD97EVkJLHdrQaI0CAAAECBAgQIECAAAECBAgQILAUgVKumL336kHy9zyRfCmW7g21gJQ81ONRHAECBAgQIECAAAECBAgQIECAAIFmCQyn0uVnraRXtRaHHSRv1hzsW3cBKXndiW1AgAABAgQIECBAgAABAgQIECBAIHICNxwkf/9c5OpXMIH5C0jJ52/lSgIECBAgQIAAAQIECBAgQIAAAQJJERj+evogeWa1g+RJGXpi+5SSJ3b0GidAgAABAgQIECBAgAABAgQIECBwc4Gpg+Rrrz6R/AMHyW+u5NPYCEjJYzNKjRAgQIAAAQIECBAgQIAAAQIECBCojcDwV9cdJB/xRPLaqFoltAJS8tCORmEECBAgQIAAAQIECBAgQIAAAQIEmiDwzUHyHeX3dg586CB5E0ZgywYLSMkbDG47AgQIECBAgAABAgQIECBAgAABAqEWGP7qcjkin3oiuYPkoZ6V4mojICWvjaNVCBAgQIAAAQIECBAgQIAAAQIECMRAoDRZzK69epD8o/Mx6EgLBOYUkJLPSeQCAgQIECBAgAABAgQIECBAgAABAkkRGNp29SD5XQ6SJ2Xo+pSS+xsgQIAAAQIECBAgQIAAAQIECBAgQGBKoDRZyN4zfZB80EFyfxSJEZCSJ2bUGiVAgAABAgQIECBAgAABAgQIECBwS4GhLysHybcXR/O3vNaXBOIjICWPzyx1QoAAAQIECBAgQIAAAQIECBAgQGDRAqWJ6w6Sf3xh0eu4kUDkBKTkkRuZggkQIECAAAECBAgQIECAAAECBAjUXmDoi0vpZan0slTmbgfJa89rxTALSMnDPB21ESBAgAABAgQIECBAgAABAgQIEGiEQGmikPnj1SeSb3WQvBHm9giPgJQ8PLNQCQECBAgQIECAAAECBAgQIECAAIHmCAx9fu0geWnME8mbMwW7NktASt4sefsSIECAAAECBAgQIECAAAECBAgQCIXA1EHyNVcPkn/iIHkohqKIRgpIyRupbS8CBAgQIECAAAECBAgQIECAAAECoRMY+uxi5YnkDpKHbjwKqr+AlLz+xnYgQIAAAQIECBAgQIAAAQIECBAgEFaB0nghs2Z7OSUf/PRiWMtUF4E6CkjJ64hraQIECBAgQIAAAQIECBAgQIAAAQIhF7h2kHzNdgfJQz4s5dVJQEpeJ1jLEiBAgAABAgQIECBAgAABAgQIEAi7gIPkYZ+Q+hoiICVvCLNNCBAgQIAAAQIECBAgQIAAAQIECIRPYPDTq08kX7O9NF4IX4EqItAIASl5I5TtQYAAAQIECBAgQIAAAQIECBAgQCBsAqWxfObu6SeSD33mieRhm496GicgJW+ctZ0IECBAgAABAgQIECBAgAABAgQIhEdg8JML5Zd2ZtbsKE04SB6eyaik0QJS8kaL248AAQIECBAgQIAAAQIECBAgQIBA0wVuOEj++aWm16MAAk0UkJI3Ed/WBAgQIECAAAECBAgQIECAAAECBJojMLj16kHyPzpI3pwR2DU8AlLy8MxCJQQIECBAgAABAgQIECBAgAABAgQaIVAczWfuuvpE8i8cJG+EuT3CLCAlD/N01EaAAAECBAgQIECAAAECBAgQIECg9gKDH08fJM/e4yB57XmtGDkBKXnkRqZgAgQIECBAgAABAgQIECBAgAABAosXuOEg+ZcOki9e0p2xEZCSx2aUGiFAgAABAgQIECBAgAABAgQIECAwt8Dgx+fTy1LpZampg+SThblvcAWBuAtIyeM+Yf0RIECAAAECBAgQIECAAAECBAgQuCpQHMll7motp+RD2y5f/dh/Eki0gJQ80ePXPAECBAgQIECAAAECBAgQIECAQKIEBj66/iB5MVG9a5bAbAJS8tlkfE6AAAECBAgQIECAAAECBAgQIEAgVgJTB8lXO0geq5lqpiYCUvKaMFqEAAECBAgQIECAAAECBAgQIECAQNgFBj68epB87Y7SpIPkYZ+X+homICVvGLWNCBAgQIAAAQIECBAgQIAAAQIECDRN4PqD5MNfpZtWh40JhE9ASh6+maiIAAECBAgQIECAAAECBAgQIECAQK0FBj44V35pZ/betlLOQfJa+1ovygJS8ihPT+0ECBAgQIAAAQIECBAgQIAAAQIE5iFQHL72RPLhrx0knweZS5IkICVP0rT1SoAAAQIECBAgQIAAAQIECBAgkEiBgfcdJE/k4DU9PwEp+fycXEWAAAECBAgQIECAAAECBAgQIEAgmgI3HCRPOUgezSmqup4CUvJ66lqbAAECBAgQIECAAAECBAgQIECAQLMFBt4764nkzR6C/UMtICUP9XgUR4AAAQIECBAgQIAAAQIECBAgQGApAsWhXHpVazklH27JLGUp9xKIq4CUPK6T1RcBAgQIECBAgAABAgQIECBAgACBK9cOkt/XFuSLRAgQmCkgJZ9p4hMCBAgQIECAAAECBAgQIECAAAECcRAoDk2mV7U4SB6HWeqhngJS8nrqWpsAAQIECBAgQIAAAQIECBAgQIBA8wQG3r36RPL7djpI3rw52DnsAlLysE9IfQQIECBAgAABAgQIECBAgAABAgQWIVAcvHaQfKTVE8kXQeiWpAhIyZMyaX0SIECAAAECBAgQIECAAAECBAgkSqD/nTPlZ61k798Z5EuJ6l2zBBYkICVfEJeLCRAgQIAAAQIECBAgQIAAAQIECERAoDA4mV45/UTyke3ZCFSsRALNE5CSN8/ezgQIECBAgAABAgQIECBAgAABAgTqI9D/19Plg+TtDpLXR9iqcRKQksdpmnohQIAAAQIECBAgQIAAAQIECBAgcCWXHk4vT5VT8pEdDpL7kyAwh4CUfA4gXxMgQIAAAQIECBAgQIAAAQIECBCIkEBQCrqePlCOyDvW7QkKnkgeoekptTkCUvLmuNuVAAECBAgQIECAAAECBAgQIECAQD0ERnd3lCPy9LLUxJn+emxhTQIxE5CSx2yg2iFAgAABAgQIECBAgAABAgQIEEiuQGksn127o5yS9245nlwInRNYiICUfCFariVAgAABAgQIECBAgAABAgQIECAQYoH+t8+UI/LMXa2FwckQV6o0AiESkJKHaBhKIUCAAAECBAgQIECAAAECBAgQILBogVxmpPLSzqFtlxe9jhsJJE1ASp60ieuXAAECBAgQIECAAAECBAgQIEAghgJTL+3c4KWdMZyslhogICVvALItCBAgQIAAAQIECBAgQIAAAQIECNRXYHRP57WXdp720s76als9ZgJS8pgNVDsECBAgQIAAAQIECBAgQIAAAQKJEyiNF7Jr26Zf2vmal3Ym7g9Aw0sUkJIvEdDtBAgQIECAAAECBAgQIECAAAECBJos0P/O1Zd2rm4tDHhpZ5PHYfvICUjJIzcyBRMgQIAAAQIECBAgQIAAAQIECBC4JpDLXvfSzi+9tPOajJ8IzFNASj5PKJcRIECAAAECBAgQIECAAAECBAgQCJ1AEARdzxwsP2ul45E9QaEUuhIVRCD0AlLy0I9IgQQIECBAgAABAgQIECBAgAABAgRmERjde91LO095aecsTD4mcEsBKfkteXxJgAABAgQIECBAgAABAgQIECBAIKwCUy/tvPfqSztfORbWMtVFIOwCUvKwT0h9BAgQIECAAAECBAgQIECAAAECBG4qMPDu2fKzVjJTL+2cuOk1PiRAYE4BKfmcRC4gQIAAAQIECBAgQIAAAQIECBAgEDqBXPtoenmqnJIPfXEpdPUpiEB0BKTk0ZmVSgkQIECAAAECBAgQIECAAAECBAh8IzD10s5nr7608+HdXtrp74LAUgSk5EvRcy8BAgQIECBAgAABAgQIECBAgACBJgiM7u8qnyJPL0uNn+xrQgW2JBAjASl5jIapFQIECBAgQIAAAQIECBAgQIAAgQQIlCYK2fumX9rZ87KXdiZg5Fqss4CUvM7AlidAgAABAgQIECBAgAABAgQIECBQU4GB989NHyRf1Vro89LOmuJaLJECUvJEjl3TBAgQIECAAAECBAgQIECAAAEC0RTId4ymV1x9aefnXtoZzSmqOmQCUvKQDUQ5BAgQIECAAAECBAgQIECAAAECBGYRmHpp58bpl3a2P7w7yJdmudDHBAgsQEBKvgAslxIgQIAAAQIECBAgQIAAAQIECBBoosDYgete2nnCSzubOApbx0pASh6rcWqGAAECBAgQIECAAAECBAgQIEAgrgLfvLRzZ/mJ5D0vHY1rm/oi0HgBKXnjze1IgAABAgQIECBAgAABAgQIECBAYMECAx9UXtrZUugdX/D9biBAYBYBKfksMD4mQIAAAQIECBAgQIAAAQIECBAgEBqBfOdoekVL+SD50GcXQ1OXQgjEQUBKHocp6oEAAQIECBAgQIAAAQIECBAgQCDGAkEQdD93qByRtz+0O8gXY9ys1gg0XkBK3nhzOxIgQIAAAQIECBAgQIAAAQIECBBYgMDYwete2nmsdwF3upQAgXkISMnngeQSAgQIECBAgAABAgQIECBAgAABAk0SKE0WsvdffWnnZi/tbNIYbBtrASl5rMerOQIECBAgQIAAAQIECBAgQIAAgYgLDHx4vvyslfQqL+2M+CyVH1YBKXlYJ6MuAgQIECBAgAABAgQIECBAgACBxAvku8YqL+0c/NRLOxP/BwGgPgJS8vq4WpUAAQIECBAgQIAAAQIECBAgQIDA0gSmXtr556sv7fzTLi/tXBqnuwnMKiAln5XGFwQIECBAgAABAgQIECBAgAABAgSaKDB2qHv6WSvLUuNHvbSziaOwdcwFpOQxH7D2CBAgQIAAAQIECBAgQIAAAQIEoihQmiy2V17a+eKRIAii2IWaCURCQEoeiTEpkgABAgQIECBAgAABAgQIECBAIFkCgx9dfWnnypZCz3iymtctgcYKSMkb6203AgQIECBAgAABAgQIECBAgAABAnMJ5LvH0itbyo9bGdx6Ya7LfU+AwJIEpORL4nMzAQIECBAgQIAAAQIECBAgQIAAgdoKTL2084XD5Yi8/cFdpVyxtutbjQCBKgEpeRWIXwkQIECAAAECBAgQIECAAAECBAg0U2Ds8HUv7TzS08xS7E0gGQJS8mTMWZcECBAgQIAAAQIECBAgQIAAAQJRECjliu0P7CofJO/e5KWdUZiZGqMvICWP/gx1QIAAAQIECBAgQIAAAQIECBAgEBeBwY8vlCPy9MqWfPdYXNrSB4FQC0jJQz0exREgQIAAAQIECBAgQIAAAQIECCRH4IaXdn7spZ3JmbxOmywgJW/yAGxPgAABAgQIECBAgAABAgQIECBA4MqVKze8tPMBL+30R0GgcQJS8sZZ24kAAQIECBAgQIAAAQIECBAgQIDAbALjR3qmn7WyLDV22Es7Z3PyOYHaC0jJa29qRQIECBAgQIAAAQIECBAgQIAAAQILEph6aeeDV1/a+cLhIAgWdLuLCRBYioCUfCl67iVAgAABAgQIECBAgAABAgQIECBQA4HBrV7aWQNGSxBYnICUfHFu7iJAgAABAgQIECBAgAABAgQIECBQG4F8z3h6ZUv5cSuDH52vzaJWIUBg3gJS8nlTuZAAAQIECBAgQIAAAQIECBAgQIBArQWCIOh58Ug5Im9/YGdpsljrHaxHgMAcAlLyOYB8TYAAAQIECBAgQIAAAQIECBAgQKB+AuNHe6+9tPNQd/02sjIBArMJSMlnk/E5AQIECBAgQIAAAQIECBAgQIAAgfoK3PDSzue9tLO+2lYnMJuAlHw2GZ8TIECAAAECBAgQIECAAAECBAgQqK/A4CdXX9q5oiXfNVbfzaxOgMAsAlLyWWB8TIAAAQIECBAgQIAAAQIECBAgQKCeAoXe8fSq6Zd2DnzopZ31tLY2gVsKSMlvyeNLAgQIECBAgAABAgQIECBAgAABAvUR6Nl8tPxE8uz9O0uThfpsYlUCBOYWkJLPbeQKAgQIECBAgAABAgQIECBAgAABArUVGD923Us7D3bVdnGrESCwIAEp+YK4XEyAAAECBAgQIECAAAECBAgQIEBgqQJBvtj+0O7yQfLu5w4FQbDUFd1PgMASBKTkS8BzKwECBAgQIECAAAECBAgQIECAAIGFCwx+erEckadXtOQ7Rxe+gDsIEKilgJS8lprWIkCAAAECBAgQIECAAAECBAgQIHBrgRte2vnBuVtf7FsCBBogICVvALItCBAgQIAAAQIECBAgQIAAAQIECEwL9Lx09aWd93lpp78KAqEQkJKHYgyKIECAAAECBAgQIECAAAECBAgQSILA+Im+6WetLEuNHfDSziTMXI8REJCSR2BISiRAgAABAgQIECBAgAABAgQIEIiBQJAvVV7a2bXRSztjMFItxERASh6TQWqDAAECBAgQIECAAAECBAgQIEAg5AJDn1Ve2pnKd3hpZ8jHpbwECUjJEzRsrRIgQIAAAQIECBAgQIAAAQIECDRLoNA3kV7VWn7cysD7XtrZrDnYl8BNBKTkN0HxEQECBAgQIECAAAECBAgQIECAAIHaCvS8fKwckWfvaytNFGq7uNUIEFiKgJR8KXruJUCAAAECBAgQIECAAAECBAgQIDC3wPjJay/tHN3vpZ1zi7mCQCMFpOSN1LYXAQIECBAgQIAAAQIECBAgQIBA4gSCQqnj4d3lg+Rdzx4MgiBxBBomEG4BKXm456M6AgQIECBAgAABAgQIECBAgACBiAsMfXGpHJGnV6Ry7V7aGfFxKj+OAlLyOE5VTwQIECBAgAABAgQIECBAgAABAuEQKPRPZFZffWnne2fDUZQqCBC4QUBKfgOHXwgQIECAAAECBAgQIECAAAECBAjUUKDnlasv7bzXSztr6GopArUUkJLXUtNaBAgQIECAAAECBAgQIECAAAECBCoCE6f6p5+1siw1urez8rkfCBAIlYCUPFTjUAwBAgQIECBAgAABAgQIECBAgEBMBKZe2vnInumXdj7jpZ0xGas2YikgJY/lWDVFgAABAgQIECBAgAABAgQIECDQZIGhLy9PHyRfnsplR5pcje0JEJhdQEo+u41vCBAgQIAAAQIECBAgQIAAAQIECCxKoDBw3Us73/XSzkUhuolAowSk5I2Stg8BAgQIECBAgAABAgQIECBAgEBiBHpfve6lneOFxPStUQKRFJCSR3JsiiZAgAABAgQIECBAgAABAgQIEAitwMTp617aucdLO0M7KIURmBaQkvtTIECAAAECBAgQIECAAAECBAgQIFAzgamXdq67+tLODQeCUlCzpS1EgEB9BKTk9XG1KgECBAgQIECAAAECBAgQIECAQCIFhrZd99LOjJd2JvKPQNNRE5CSR21i6iVAgAABAgQIECBAgAABAgQIEAirQGFgMnNXa3pZKr0s1f/2mbCWqS4CBG4QkJLfwOEXAgQIECBAgAABAgQIECBAgAABAosTCILg2ks71+4ojeUXt467CBBosICUvMHgtiNAgAABAgQIECBAgAABAgQIEIinwOj+rvIp8vSy1Ojujng2qSsCcRSQksdxqnoiQIAAAQIECBAgQIAAAQIECBBorEChbyJz9/ZySt618aCXdjaW324EliQgJV8Sn5sJECBAgAABAgQIECBAgAABAgQIBMWg65mD5Yg8s2Z7oX+CCQECERKQkkdoWEolQIAAAQIECBAgQIAAAQIECBAIo8DQZxcrz1oZO9gVxhLVRIDA7AJS8tltfEOAAAECBAgQIECAAAECBAgQIEBgLoHJS0PpFalySt73vyfnutz3BAiETkBKHrqRKIgAAQIECBAgQIAAAQIECBAgQCAqAqXJQvtDu8sReftDu0sThahUrk4CBCoCUvIKhR8IECBAgAABAgQIECBAgAABAgQILEyg781T089aWZ6avDi0sJtdTYBAOASk5OGYgyoIECBAgAABAgQIECBAgAABAgSiJjB2qLvyOPLBTy9GrXz1EiAwLSAl96dAgAABAgQIECBAgAABAgQIECBAYMEChYHJzJod5ZS8a8OBoBgseAk3ECAQDgEpeTjmoAoCBAgQIECAAAECBAgQIECAAIHoCASloGvjoXJEnrlre6F3PDq1q5QAgWoBKXm1iN8JECBAgAABAgQIECBAgAABAgQI3FpgaNvlyrNWRvd23vpi3xIgEHIBKXnIB6Q8AgQIECBAgAABAgQIECBAgACBcAnk0sPpFS3llLx3y/Eg8KyVcA1INQQWKiAlX6iY6wkQIECAAAECBAgQIECAAAECBJIrUMoVOx7ZU47I2x/YWRrLJ9dC5wTiIiAlj8sk9UGAAAECBAgQIECAAAECBAgQIFB/gf6/np5+1sry1MTZgfpvaAcCBOouICWvO7ENCBAgQIAAAQIECHY8W5cAACAASURBVBAgQIAAAQIE4iEwfrSn8jjywY/Px6MpXRAgICX3N0CAAAECBAgQIECAAAECBAgQIEBgboHiUC57z45ySt755P6gUJr7HlcQIBAFASl5FKakRgIECBAgQIAAAQIECBAgQIAAgaYKBKWg+4XD5Yg8s7o13z3W1HJsToBALQWk5LXUtBYBAgQIECBAgAABAgQIECBAgEAsBYZbMpVnrYzsao9lj5oikFgBKXliR69xAgQIECBAgAABAgQIECBAgACBeQnk2kfTK1vKKXnPy8eCIJjXbS4iQCAiAlLyiAxKmQQIECBAgAABAgQIECBAgAABAs0QCPLFjkf3liPy7H07i6P5ZlRhTwIE6iggJa8jrqUJECBAgAABAgQIECBAgAABAgSiLjDw7tnKs1YmTvdHvR31EyAwU0BKPtPEJwQIECBAgAABAgQIECBAgAABAgSmBMZP9FUi8oH3z0EhQCCWAlLyWI5VUwQIECBAgAABAgQIECBAgAABAksVKI7ksve2lVPyzsf2BYXSUld0PwECoRSQkodyLIoiQIAAAQIECBAgQIAAAQIECBBoqkAQBD2bj04fJF/Vmu8cbWo5NidAoI4CUvI64lqaAAECBAgQIECAAAECBAgQIEAgogIjO7KVZ62MbM9GtAtlEyAwHwEp+XyUXEOAAAECBAgQIECAAAECBAgQIJAggXzXWHpVazkl73nxSBAECWpeqwSSJyAlT97MdUyAAAECBAgQIECAAAECBAgQIDC7QFAodT6+rxyRZ9e2FYdzs1/rGwIE4iAgJY/DFPVAgAABAgQIECBAgAABAgQIECBQK4GBD89VnrUyfqKvVstahwCB0ApIyUM7GoURIECAAAECBAgQIECAAAECBAg0WmDidH8lIu9/50yjt7cfAQLNEJCSN0PdngQIECBAgAABAgQIECBAgAABAuETKI7ms/fvLKfkHev3BPli+GpUEQECtReQktfe1IoECBAgQIAAAQIECBAgQIAAAQKREwiCoOeVY9MHyVe25LIjkWtBwQQILE5ASr44N3cRIECAAAECBAgQIECAAAECBAjESmB0d0flWSvDqXSsetMMAQK3FJCS35LHlwQIECBAgAABAgQIECBAgAABAgkQyHePZVa3llPy7ucPB6UgAU1rkQCBaQEpuT8FAgQIECBAgAABAgQIECBAgACBRAsExVLnU/vLEXn2nh3FoclEc2ieQPIEpOTJm7mOCRAgQIAAAQIECBAgQIAAAQIErhMY3Hqh8qyV8SM9133jRwIEEiEgJU/EmDVJgAABAgQIECBAgAABAgQIECBwU4HJc4Pp5alySt7/1umbXuNDAgTiLSAlj/d8dUeAAAECBAgQIECAAAECBAgQIDCrQGm80P7grnJE3vHIntJkcdZLfUGAQHwFpOTxna3OCBAgQIAAAQIECBAgQIAAAQIEZhcIgqD3Lyemn7WyoiV3eXj2a31DgECcBaTkcZ6u3ggQIECAAAECBAgQIECAAAECBGYTGN3fVXkc+dCXl2e7zOcECMReQEoe+xFrkAABAgQIECBAgAABAgQIECBAoFqg0DeRuXt7OSXv2ngwKAXVV/idAIHECEjJEzNqjRIgQIAAAQIECBAgQIAAAQIECHwjEBSDrmcOliPyzJrthYEJMAQIJFlASp7k6eudAAECBAgQIECAAAECBAgQIJBEgaHPLlaetTJ2sDuJBHomQOA6ASn5dRh+JECAAAECBAgQIECAAAECBAgQiLvA5MWh9IpUOSXve+Nk3NvVHwECcwtIyec2cgUBAgQIECBAgAABAgQIECBAgEA8BEoThfaHdpcj8vaHdpcmCvHoSxcECCxFQEq+FD33EiBAgAABAgQIECBAgAABAgQIREmg742T089aWZ6avDgUpdLVSoBA3QSk5HWjtTABAgQIECBAgAABAgQIECBAgECYBMYOdVceRz746cUwlaYWAgSaKSAlb6a+vQkQIECAAAECBAgQIECAAAECBBojUBiYzKzZUU7JuzYcCIpBY/a1CwEC4ReQkod/RiokQIAAAQIECBAgQIAAAQIECBBYkkBQCro2HipH5Jm7thd6x5e0nJsJEIiXgJQ8XvPUDQECBAgQIECAAAECBAgQIECAwAyBoW2XK89aGd3bOeN7HxAgkGgBKXmix695AgQIECBAgAABAgQIECBAgEDsBXLp4fSKlnJK3rvleBB41krsZ65BAgsTkJIvzMvVBAgQIECAAAECBAgQIECAAAECERIo5Yodj+wpR+TtD+wqjeUjVLxSCRBojICUvDHOdiFAgAABAgQIECBAgAABAgQIEGiCQP9fT08/a2V5avLcQBMqsCUBAqEXkJKHfkQKJECAAAECBAgQIECAAAECBAgQWJTA+NGeyuPIBz++sKg13ESAQPwFpOTxn7EOCRAgQIAAAQIECBAgQIAAAQIJFCgOTWbv2VFOyTuf2h8USglE0DIBAvMRkJLPR8k1BAgQIECAAAECBAgQIECAAAECURIISkH3C4fLEXlmdWu+eyxK1auVAIHGCkjJG+ttNwIECBAgQIAAAQIECBAgQIAAgfoLDKcylWetjOxqr/+GdiBAIMICUvIID0/pBAgQIECAAAECBAgQIECAAAECMwVy2ZH0ypZySt7z8rEgCGZe4xMCBAhUBKTkFQo/ECBAgAABAgQIECBAgAABAgQIRF4gyBc7Ht1bjsiz9+0sjuYj35IGCBCos4CUvM7AlidAgAABAgQIECBAgAABAgQIEGigwMC7ZyvPWpk43d/AnW1FgEBUBaTkUZ2cugkQIECAAAECBAgQIECAAAECBKoExk/0VSLygffPVX3rVwIECNxUQEp+UxYfEiBAgAABAgQIECBAgAABAgQIREygOJLL3ttWTsk7H9sXFEoRa0C5BAg0SUBK3iR42xIgQIAAAQIECBAgQIAAAQIECNROIAiCns1Hpw+Sr2rNd47Wbm0rESAQcwEpecwHrD0CBAgQIECAAAECBAgQIECAQBIERnZkK89aGdmRTULLeiRAoFYCUvJaSVqHAAECBAgQIECAAAECBAgQIECgOQL5ztH0qtZySt7z4pEgCJpTh10JEIimgJQ8mnNTNQECBAgQIECAAAECBAgQIECAwDcCQb7Y+fi+ckSevbetOJwDQ4AAgQUJSMkXxOViAgQIECBAgAABAgQIECBAgACBEAkEpaD3teOVZ62Mn+gLUXFKIUAgIgJS8ogMSpkECBAgQIAAAQIECBAgQIAAAQIzBAY/uVCJyAfeOzvjex8QIEBgbgEp+dxGriBAgAABAgQIECBAgAABAgQIEAihwNj+rkpE3v3C4aDoceQhnJKSCERAQEoegSEpkQABAgQIECBAgAABAgQIECBAoEpg8uJQemVLOSXvWL+nNF6ousCvBAgQmKeAlHyeUC4jQIAAAQIECBAgQIAAAQIECBAIi0ChbyK7tq0ckWfv2VHoHQ9LZeogQCCCAlLyCA5NyQQIECBAgAABAgQIECBAgACBBAuUJgodj+6dftbKypbJ84MJxtA6AQI1EJCS1wDREgQIECBAgAABAgQIECBAgAABAo0RCIpBz4tHKo8jH93b2Zh97UKAQIwFpOQxHq7WCBAgQIAAAQIECBAgQIAAAQJxExh472wlIh/8+ELc2tMPAQLNEJCSN0PdngQIECBAgAABAgQIECBAgAABAgsXGGlrr0Tkva8cC0rBwtdwBwECBKoFpOTVIn4nQIAAAQIECBAgQIAAAQIECBAIocDE6f70ilQ5Je98cn8pVwxhkUoiQCCKAlLyKE5NzQQIECBAgAABAgQIECBAgACBZAnku8Yya7aXI/Ls/TuLg5PJ6l+3BAjUU0BKXk9daxMgQIAAAQIECBAgQIAAAQIECCxZoDiab394dzkiz6xuzaWHl7ykBQgQIHBNQEp+zcJPBAgQIECAAAECBAgQIECAAAECYRMICqWujQcrjyMfP9ITtgrVQ4BA1AWk5FGfoPoJECBAgAABAgQIECBAgAABArEVCIKg781TlYh8aNvl2LaqMQIEmicgJW+evZ0JECBAgAABAgQIECBAgAABAgRuKTD8VboSkfe9cTIIglte7ksCBAgsRkBKvhg19xAgQIAAAQIECBAgQIAAAQIECNRbYPxoT3p5qpySdz17MCiU6r2j9QkQSKaAlDyZc9c1AQIECBAgQIAAAQIECBAgQCDUArnMSGZ1azkib39od3E0H+pyFUeAQJQFpORRnp7aCRAgQIAAAQIECBAgQIAAAQJxFCgOTbbfv7MckWfu3p7vHI1jl3oiQCAsAlLysExCHQQIECBAgAABAgQIECBAgAABAleuXCnlip1P7Z9+HPmK1MSpfiwECBCoq4CUvK68FidAgAABAgQIECBAgAABAgQIEFiAQFAKel87Ph2RL0uN7Mgu4GaXEiBAYFECUvJFsbmJAAECBAgQIECAAAECBAgQIECgDgKDn1yoROT975ypww6WJECAQLWAlLxaxO8ECBAgQIAAAQIECBAgQIAAAQJNERjd31WJyLs3HQmKQVPKsCkBAkkTkJInbeL6JUCAAAECBAgQIECAAAECBAiEUWDywmB6ZUs5Je9Yv7c0UQhjlWoiQCCOAlLyOE5VTwQIECBAgAABAgQIECBAgACBSAkU+iaya9vKEXl27Y5C73ikylcsAQLRFpCSR3t+qidAgAABAgQIECBAgAABAgQIRF2gNFHoWL93+lkrK1smLwxGvSP1EyAQLQEpebTmpVoCBAgQIECAAAECBAgQIECAQKwEgmLQvelI5XHko/s6Y9WeZggQiIKAlDwKU1IjAQIECBAgQIAAAQIECBAgQCCmAgPvnq1E5INbL8S0S20RIBBqASl5qMejOAIECBAgQIAAAQIECBAgQIBAjAVG2rKViLz31WNBKYhxs1ojQCC0AlLy0I5GYQQIECBAgAABAgQIECBAgACBOAtMnO5Pr0iVU/LOJ/eXcsU4d6s3AgRCLCAlD/FwlEaAAAECBAgQIECAAAECBAgQiKlAvmsss2Z7OSJvv39ncWgypo1qiwCBCAhIySMwJCUSIECAAAECBAgQIECAAAECBOIkUBzNtz+0uxyRZ1a35jIjcepOLwQIRE5ASh65kSmYAAECBAgQIECAAAECBAgQIBBhgaBQ6nr2YOVx5ONHeiLcjNIJEIiFgJQ8FmPUBAECBAgQIECAAAECBAgQIEAgCgJBEPS9cbISkQ9tuxyFqtVIgEDMBaTkMR+w9ggQIECAAAECBAgQIECAAAEC4REY2na5EpH3vXkqCILw1KYSAgQSKyAlT+zoNU6AAAECBAgQIECAAAECBAgQaKjA+JGe9PJUOSXvevZgUCg1dHubESBAYBYBKfksMD4mQIAAAQIECBAgQIAAAQIECBConUAuM5JZ3VqOyNsf2l0czddubSsRIEBgSQJS8iXxuZkAAQIECBAgQIAAAQIECBAgQGBOgeLQZPb+neWIPLNme75rbM5bXECAAIGGCUjJG0ZtIwIECBAgQIAAAQIECBAgQIBAEgVKuWLnk/unH0e+IjVxuj+JCnomQCDEAlLyEA9HaQQIECBAgAABAgQIECBAgACBiAsEpaD31WPTEfmy1EhbNuINKZ8AgRgKSMljOFQtESBAgAABAgQIECBAgAABAgRCIjC49UIlIh9492xIqlIGAQIErheQkl+v4WcCBAgQIECAAAECBAgQIECAAIGaCYzu66xE5N2bjgTFoGZLW4gAAQK1E5CS187SSgQIECBAgAABAgQIECBAgAABAlcFJi8Mple2lFPyjkf3liYKV7/xnwQIEAiXgJQ8XPNQDQECBAgQIECAAAECBAgQIEAgBgKF3vHs2h3liDy7tq3QNxGDprRAgEBcBaTkcZ2svggQIECAAAECBAgQIECAAAECzREoTRQ61u+dftbKypbJC4PNqcOuBAgQmJ+AlHx+Tq4iQIAAAQIECBAgQIAAAQIECBCYh0BQDLo3Hak8jnx0f9c8bnIJAQIEmikgJW+mvr0JECBAgAABAgQIECBAgAABAjET6H/nTCUiH9x6IWbdaYcAgVgKSMljOVZNESBAgAABAgQIECBAgAABAgSaIDCyI1uJyHtfOx6UgiYUYUsCBAgsUEBKvkAwlxMgQIAAAQIECBAgQIAAAQIECNxMYOJUf3pFqpySdz61v5Qr3uwqnxEgQCB0AlLy0I1EQQQIECBAgAABAgQIECBAgACByAnkO0czd28vR+Tt9+8sDuUi14KCCRBIrICUPLGj1zgBAgQIECBAgAABAgQIECBAoDYCxZFc+0O7yxF5ZnVrLjNSm3WtQoAAgYYISMkbwmwTAgQIECBAgAABAgQIECBAgEBMBYJCqevZg9OPI1+eGj/aE9NGtUWAQGwFpOSxHa3GCBAgQIAAAQIECBAgQIAAAQL1FgiCoO+Nk9MR+bLU8FeX672j9QkQIFBzASl5zUktSIAAAQIECBAgQIAAAQIECBBIisDQtsuViLzvzVNBECSlc30SIBAjASl5jIapFQIECBAgQIAAAQIECBAgQIBAAwXGj/RUIvKujQeDQqmBm9uKAAECNROQkteM0kIECBAgQIAAAQIECBAgQIAAgeQITF4cyqxuLafk7Q/vLo7mk9O7TgkQiJmAlDxmA9UOAQIECBAgQIAAAQIECBAgQKDuAlMR+d3byxF5Zs32fNdY3be0AQECBOomICWvG62FCRAgQIAAAQIECBAgQIAAAQJxFLg+Ik+vapk40x/HLvVEgECCBKTkCRq2VgkQIECAAAECBAgQIECAAAECSxS4ISJf2TJxsm+JC7qdAAECTReQkjd9BAogQIAAAQIECBAgQIAAAQIECERDYPLStQetpFe2jIvIozE3VRIgMIeAlHwOIF8TIECAAAECBAgQIECAAAECBAhcuXJFRO7PgACBuApIyeM6WX0RIECAAAECBAgQIECAAAECBGomUB2Rn/CglZrZWogAgaYLSMmbPgIFECBAgAABAgQIECBAgAABAgRCLSAiD/V4FEeAwJIFpORLJrQAAQIECBAgQIAAAQIECBAgQCC+ArnLw5m7t6eXpab+rWwZd4o8vrPWGYHECkjJEzt6jRMgQIAAAQIECBAgQIAAAQIE5hCojsiP985xg68JECAQQQEpeQSHpmQCBAgQIECAAAECBAgQIECAQP0FpiLyNdedIheR19/cDgQINEVASt4UdpsSIECAAAECBAgQIECAAAECBEItUB2RH3OKPNTzUhwBAksRkJIvRc+9BAgQIECAAAECBAgQIECAAIEYCuTSN54iF5HHcMhaIkDgmoCU/JqFnwgQIECAAAECBAgQIECAAAECBETk/gYIEEiagJQ8aRPXLwECBAgQIECAAAECBAgQIEBgVoFvIvId6WWpqX8rW8aPetDKrFa+IEAgNgJS8tiMUiMECBAgQIAAAQIECBAgQIAAgSUJiMiXxOdmAgQiKyAlj+zoFE6AAAECBAgQIECAAAECBAgQqJ3ADRH5CqfIaydrJQIEQi8gJQ/9iBRIgAABAgQIECBAgAABAgQIEKizQC4zkvnj1QetTEXkPXXe0PIECBAIkYCUPETDUAoBAgQIECBAgAABAgQIECBAoPEC1RH5ERF544dgRwIEmikgJW+mvr0JECBAgAABAgQIECBAgAABAs0VEJE319/uBAiEQUBKHoYpqIEAAQIECBAgQIAAAQIECBAg0AQBEXkT0G1JgED4BKTk4ZuJiggQIECAAAECBAgQIECAAAEC9RfIZUay91x7FvnYYQ9aqT+6HQgQCKWAlDyUY1EUAQIECBAgQIAAAQIECBAgQKCeArns9RF5SkReT2xrEyAQdgEpedgnpD4CBAgQIECAAAECBAgQIECAQG0FROS19bQaAQJRF5CSR32C6idAgAABAgQIECBAgAABAgQILEBgRkTevYCbXUqAAIE4CkjJ4zhVPREgQIAAAQIECBAgQIAAAQIEbiYgIr+Zis8IEEi6gJQ86X8B+idAgAABAgQIECBAgAABAgQSIlAdkR9yijwhk9cmgTkE8pMT6WNH5rgo1l9LyWM9Xs0RIECAAAECBAgQIECAAAECBL4RyLWPZu/ZkV6Wmvq3IjUmIveHQYDAlStDPd2pLZuf/sn3H7/zH8aGBhNLIiVP7Og1ToAAAQIECBAgQIAAAQIECCRFYCoiX3tdRH7QKfKkjF6fBG4qEARB+sTR9x59cP33v7Putm+V/+18+82bXpyED6XkSZiyHgkQIECAAAECBAgQIECAAIHkCuQ7ROTJnb7OCVQJFPL5o199/sqyX1fC8fIPj//wH7e/uaXq4uT8KiVPzqx1SoAAAQIECBAgQIAAAQIECCRO4IaIfHlqzCnyxP0JaJjAtMBIf1/rG68+8+93VuXjf/7VT/a899eJ0ZEkS0nJkzx9vRMgQIAAAQIECBAgQIAAAQJxFpgRkXfFuVu9ESAwi0D76ZMfPPHwo3f8XVU+/sY9K87sbiuVirPcl6CPpeQJGrZWCRAgQIAAAQIECBAgQIAAgeQIiMiTM2udEripQLGQP96ybcvK31WF44/f+Q+fbHyi+9KFm96VzA+l5Mmcu64JECBAgAABAgQIECBAgACBOAt8E5G3pZelpv4tT40dcIo8zuPWG4EqgbHBgR1v/eXZn/2wKh/f+Isf7Xz7zfHhoarr/Sol9zdAgAABAgQIECBAgAABAgQIEIiVQL5zNLtWRB6rmWqGwDwFOs+f/XjDo4/94LtV+fjrd//h5I6WUtHDVW4OKSW/uYtPCRAgQIAAAQIECBAgQIAAAQJRFKiOyPc7RR7FMaqZwMIESsXiqbaW1+/+Q1U4/tgPvvvxhkc7z51Z2HLJu1pKnryZ65gAAQIECBAgQIAAAQIECBCIqcBURH7vdafIReQxHbS2CFQExoeHdr3zf8/94sdV+fiz//HPO976y9jgQOVKP9xCQEp+CxxfESBAgAABAgQIECBAgAABAgQiI1AVkY+KyCMzOoUSWIxA96ULnzz35OP//I9V+fhrK397vGVbsZBfzKJJvUdKntTJ65sAAQIECBAgQIAAAQIECBCIkYCIPEbD1AqBWwmUSsUzu9veXLuiKhx/9I6/++CJh9tPn7zVzb6bRUBKPguMjwkQIECAAAECBAgQIECAAAECERHId41d/6AVp8gjMjdlEliYwMToyJ73//b8f/6kKh/f8G8/aH3j1ZG+3oUt5+rrBKTk12H4kQABAgQIECBAgAABAgQIECAQNYHqiHxfZ9Q6UC8BAnMI9GYuf/bCM0/88J+q8vFX/ufXR7/6vJDLzXG/r+cSkJLPJeR7AgQIECBAgAABAgQIECBAgEBYBaoj8r0i8rCOSl0EFi4QlErn9+956/67qsLx9d//znuPPpg+cTQIgoWv6o6bCEjJb4LiIwIECBAgQIAAAQIECBAgQIBA+AVE5OGfkQoJLE4gNz62/+P3Nv2//6jKx5/+yfdTWzYP9XQtbll3zSYgJZ9NxucECBAgQIAAAQIECBAgQIAAgfAKTEXk97Wll6Wm/i1PjTpFHt5ZqYzAAgQGOtq/3Pzckz/6XlU+/tJ///LQ51vzkxMLWMul8xaQks+byoUECBAgQIAAAQIECBAgQIAAgXAI5LtvjMj3eNBKOAajCgKLFQiC4OKhA3/70x/X3f7tG/Lx27/99sP3XjpyyMNVFks7r/uk5PNichEBAgQIECBAgAABAgQIECBAICQCMyLyjpAUpgwCBBYhkJ+YOPjpR5t/94sbwvHbvvXUj2/b9vLzA53+C74I1AXfIiVfMJkbCBAgQIAAAQIECBAgQIAAAQLNEvjmQSs7rz1oZY8ErVmjsC+BpQoMdXd99eqmp//19qp8fNNvfnZg6we5ifGlbuD+eQtIyedN5UICBAgQIECAAAECBAgQIECAQFMFJs70Z9bsuBaR7xaRN3UeNiewKIFSqXhu/+63H167/vbvVOXjf31wzYUDe4NSaVELu2nxAlLyxdu5kwABAgQIECBAgAABAgQIECDQMIGRXe3pFS3TEfmy1KiIvGH0NiJQI4GR/r62t17/86/+tSocf+JfvvfFixv7spka7WOZBQtIyRdM5gYCBAgQIECAAAECBAgQIECAQCMFglIw8OG5Sj6eWd06drinkQXYiwCBpQgEpdKFA3vfeeS+9d+vPjz+wn/9274P35kcG1vK+u5duoCUfOmGViBAgAABAgQIECBAgAABAgQI1EuglCv2vHysEpFn72vLXR6u12bWJUCgpgKjA/07337z+f/6adXh8fXf/847j9zn4So1xV7SYlLyJfG5mQABAgQIECBAgAABAgQIECBQP4Hi4GTnE/sqEXnn4/sKA5P1287KBAjURCAolS4ePvDeow8+esd3q/Lx537547a3Xh/p663JRhaplYCUvFaS1iFAgAABAgQIECBAgAABAgQI1FIglxnJ3r+zEpH3bD5amizUcgNrESBQa4GxocHd7771wq//rSocX3/7d95+eO25/btLpWKt97ReDQSk5DVAtAQBAgQIECBAgAABAgQIECBAoLYC40d7M6tbKxH5wHtng1JQ2y2sRoBArQSCILh89ND7jz/02A+qD49v/Pm/bH/ztaGe7lrtZZ16CEjJ66FqTQIECBAgQIAAAQIECBAgQIDAIgWCIBj+Op1enpqOyFekRtraF7mW2wgQqLPA+PDQnvf/tuk3P6s6PL7u9m//9cE1Z/bsLBUdHq/zDGqxvJS8ForWIECAAAECBAgQIECAAAECBAjUQiAolvrfOl05Qp65e/vEqf5aLGwNAgRqKRAEQfr4kQ+ffOSxO/++Kh9/9mc/bP3fV4a6u2q5n7XqLCAlrzOw5QkQIECAAAECBAgQIECAAAEC8xMojeW7nz9cicjb/7Qr3zk6v1tdRYBAgwQmRkb2ffTuQbuTlgAAIABJREFU5t/9oiocX3f7t9+6/67Tu7YXC94f0KBZ1HAbKXkNMS1FgAABAgQIECBAgAABAgQIEFikQKF3vGPdnkpE3rXhQHEkt8i13EaAQK0FgiDInjr+8YZHH7/zH6ry8Wf+/c7Uls0DnR213tN6jROQkjfO2k4ECBAgQIAAAQIECBAgQIAAgZsKTJ4fzN6zoxKR9/7lRJAv3fRKHxIg0GCBybHR/Vvff+n3v6oKx9fd9q031648uaOlWMg3uCTb1VxASl5zUgsSIECAAAECBAgQIECAAAECBBYgMLqvM72ypRKRD312MQiCBdzvUgIE6iAQBEH7mZNbn3388R/+Y1U+vuGnd3z16qb+9kwdtrVkcwSk5M1xtysBAgQIECBAgAABAgQIECBAICgFg59cqOTj6ZUtYwe88c/fBYEmC+TGxw5++uHL//NfVeH4utu+9cYfl59o/aqQd3i8yTOq+fZS8pqTWpAAAQIECBAgQIAAAQIECBAgMLdAkC/2bjleiciza9smLw7NfZsrCBCom0DnuTOfPPfkEz/8p6p8/OmffH/by8/3ZdN129nCTRaQkjd5ALYnQIAAAQIECBAgQIAAAQIEEihQHM51PX2gEpF3rN9T6JtIoIOWCYRBIDcxfujzra8u/01VOL7utm+9fvcfjqW+LOS8SjcMg6pjDVLyOuJamgABAgQIECBAgAABAgQIECAwUyDfMdr+4K5KRN79wuHSeGHmZT4hQKDeAl0Xzn32/IYnf/S9qnz8qX+97YvNG3suX6x3AdYPiYCUPCSDUAYBAgQIECBAgAABAgQIECCQCIGJk32Zu7dXIvL+v50OiqVEdK5JAqERyE9OHPny0y0rf1cVjq+77VtbVv/30a8+z0/6/3aEZloNKURK3hBmmxAgQIAAAQIECBAgQIAAAQIErlwZ2Z5NL09NR+TLU8MtmSAIwBAg0DCB7ksXvnhx41M/vq0qH3/yR//f55ue6b50oWGV2ChUAlLyUI1DMQQIECBAgAABAgQIECBAgEA8BYJiMPDu2coR8sxdrePHeuPZqq4IhE9gbGhw30fvvbLs11Xh+LrbvvXait8c/uKT/ITD4+EbWwMrkpI3ENtWBAgQIECAAAECBAgQIECAQCIFShOFnhePVCLy9gd25rIjiZTQNIGGCpSKxbN7d727/v5H7/huVT7+xL9879M/P9V5/mxDC7JZWAWk5GGdjLoIECBAgAABAgQIECBAgACBWAgU+ic6Ht1bicg7n9pfHMrFojNNEAivQM+lC9teeeGZf7+zKhxfd9u3Xl3+m0OffZwbHwtv9SpruICUvOHkNiRAgAABAgQIECBAgAABAgQSIzB5aSh7b1slIu995VgpV0xM9xol0GiB8ZHh/Vvff3X5b2aG48/+xz9/9eqmnssXG12T/aIgICWPwpTUSIAAAQIECBAgQIAAAQIECERQYOxQd3pVayUiH/zofFDyrs4IDlLJoRcoFYvn9u1+b/0Dj/2g+skqj/3gu++tf+Dcvt2lov+BKvSDbF6BUvLm2duZAAECBAgQIECAAAECBAgQiKlAEARDX1yq5OPpFS2jezpi2qu2CDRToDd96atXNz37H/888/D4q8t/s3/r++PDQ82sz94REZCSR2RQyiRAgAABAgQIECBAgAABAgQiIhAUSn1vnKxE5Jk/7pg4OxCR2pVJIBoC4yPDB7Z+8NqKmzxZ5Zl/v3PbKy90X7oQjU5UGQ4BKXk45qAKAgQIECBAgAABAgQIECBAIBYCxdF817MHKxF5x8O7891eEhiL0WoiBAKlYvH8/j3vPfanmU9WefSO7767/v6ze3cVC4UQVKqEiAlIySM2MOUSIECAAAECBAgQIECAAAECoRXId4+1P7y7EpF3bTxUHM2HtlqFEYiQQG/68tevvfjsz34488kqryz79b6P3vNklQhNM4SlSslDOBQlESBAgAABAgQIECBAgAABAtETmDgzkFmzoxKR9715KiiUoteGigmESWBiZOTgpx++tvK3M8PxqServPx898XzYapXLVEVkJJHdXLqJkCAAAECBAgQIECAAAECBMIjMLq7I72ipRKRD227HARBeMpTCYFoCZRKxfMH9r7/2J8eu/Pvq/LxR+/4u3ceue/s3p2erBKtmYa8Wil5yAekPAIECBAgQIAAAQIECBAgQCDUAkEpGPjwfCUfz6xuHTvcE+qKFUcgxAK9mcupLZs33vTJKv/z630fvTs2NBji8pUWVQEpeVQnp24CBAgQIECAAAECBAgQIECg6QKlXLHn5WOViDx7X1vu8nDTq1IAgcgJTIyOHPz0oy2rfld1cnzdbd/a8G8/2Pbyn7sunItcUwqOkICUPELDUioBAgQIECBAgAABAgQIECAQIoHi0GTnk/srEXnnY/sKAxMhqk8pBEIvUCoVLxzc98ETDz9+5z9U5ePfPFnl3jO724oFr8AN/SCjX6CUPPoz1AEBAgQIECBAgAABAgQIECDQcIFcZqT9/p2ViLxn89HSZKHhVdiQQFQF+rLp1F9e2vjzf6kKx9fd9q2X//Cf+z58x5NVojraaNYtJY/m3FRNgAABAgQIECBAgAABAgQINE9g/FhvZnVrJSIfeO9sUPKuzubNw87REZgcGz30+cdbVv/3zHB8w0/v+HLzc56sEp1hxqpSKXmsxqkZAgQIECBAgAABAgQIECBAoK4CQRAMf51OL09NR+QrUiNt2bruaHECMRCYerLKof2zPVnl7YfvPb17hyerxGDQ0W1BSh7d2amcAAECBAgQIECAAAECBAgQaKhAUCz1//V05Qh55u7tE6f6G1qBzQhESiAIgs5zZ756ddPGX/xo5uHxl37/q70fvD02OBCpnhQbTwEpeTznqisCBAgQIECAAAECBAgQIECgtgKl8UL384crEXn7n3blO0dru4XVCMRGoL89s+P//rLpNz+bGY4//dM7vti8sfP82SDwnKLYDDzyjUjJIz9CDRAgQIAAAQIECBAgQIAAAQL1Fij0jnes21OJyLs2HCiO5Oq9qfUJRE5gpK937wdvv7r8NzPD8fXf/87fHrrn9M7tnqwSnrEGQTDQOXZqV0fqjVNvPbR3pH8yPLU1uBIpeYPBbUeAAAECBAgQIECAAAECBAhETGDsQFfm7u2ViLz3LyeCfCliPSiXQD0FJkZGDn2+9Y17Vqy7/dsz8/G/rP79/q3ve7JKPSewgLVHByfPH+xue+fsu4/vf/63Xz/9sy8q/87t717AQvG6VEoer3nqhgABAgQIECBAgAABAgQIEKidQGmy0PfGyUo+nl6WGvz0osdE1A7YStEWyE9OnNj+9dsP3/voHd+dGY6/9Ptf7Xz7zcGuzmg3Gf3qJ8cL6RN9ez++8NGzh19a3lrJxGf+sOPts9Fvd5EdSMkXCec2AgQIECBAgAABAgQIECBAIN4CucvD7Q/vrkTkmbu3jx1K7kHLeM9adwsSKBYK5/bv/vCpdU/88J9mhuN//tVPWl5/uefShQWt6eIaChTyxY7zg4e+TH/24rEta9pmpuFVn2xZ0/bZi8cOfZnuyyb3XQtS8hr+BVqKAAECBAgQIECAAAECBAgQiINAUAqGvrycXtFSici7njlY6JuIQ296ILBYgaBUSh8/8tnzG57+6R0zw/Fn/v3Ozzc9mz113P/ZYrHAi7+vVAp6syPHt7d/teXkmw/sfuaXX1bl4FW/vrS89aNnD+/9+MLlE32T44XFbxyjO6XkMRqmVggQIECAAAECBAgQIECAAIElCxQGJ7ufO1TJx9PLv3nKSjFY8sIWIBBJgSAIui6c+/q1F5/7xY9nhuNP/uh7H2949MLBfaViMZLtRbPoIAiGesfP7O3a/taZt9fve+7XX1Xl4FW/Pv/br999fH/bO2fPHegeHUjuKzpvMW0p+S1wfEWAAAECBAgQIECAAAECBAgkS2D8SE/2nh2ViLz9wV2TFwaTRaBbAlcFBjra2956/cXf/nxmOP7YnX//7rr7T+1szedErle96vyfEyP5i0d7d39w/oOnD276faoqB6/69dn/3PbWQ3tSb5w6ubNjoHPMAf85hyMln5PIBQQIECBAgAABAgQIECBAgED8BUq5Yv/fTlfy8fSyVO+W4yXPIoj/5HVYLTA60L/vw3deW/nbmeH4+tu/83/3rT6y7bPJseQ+wLraq26/5yeL2TMDBz67tPX5I6+s2l6Vg1f9uuHnX7y+ducXrxw/8nWm+9JwsViqW13xXFhKHs+56ooAAQIECBAgQIAAAQIECBCYv0AuO9Kxbk8lIs/c1Tq6p9Ppy/kDujIGAhOjI4e//OTNe1etv/07M/PxLat+t++j90YH+mPQaWhbKBZL3ZeHj6YyX7xy/PW1uzb8/IuqKLzq11dWbd/6/JH9n17Knh7IT3rizZIGKyVfEp+bCRAgQIAAAQIECBAgQIAAgUgLBKVguCWTXnntRZ2dT+3P94xHuinFE5i/QD43eaqt5Z1H7nvsB9+dGY5v/t0v2v76vwOdHfNf0JXzFwiCYKBz7NSujtQbp956aO+z/7mtKgev+nXT71PvP31w1/vnLx7pHR/JzX8jV84pICWfk8gFBAgQIECAAAECBAgQIECAQDwFisO57k1HKkfIp17U+dH5oOBJBfEct66uFygVixcO7P3o6fVP/uh7M8Px537546+3bO6+eN7/o+J6tKX/HATBcN/Euf3dO94+++7j+5//7ddVOXjVrxt//dXf1u3b/taZM3u7hnrHjWPpI5htBSn5bDI+J0CAAAECBAgQIECAAAECBOIsMH6yL3tvWyUiz963c+KMp0nEeeJ6u3LlShAEmZPHP9/0zIZ/+8HMcHzDT+/47IVnMieOBSX/W1HN/l7GhnIXDvfsev/8+08f3PSHlqocvOrXZ37x5Rv379625eTx7dne7EipFNSsDgvdUkBKfkseXxIgQIAAAQIECBAgQIAAAQKxEwjypYH3zlby8fSyVM9LR4uj+dg1qiEC1wS6L11Ibdn851/9ZGY4/sS/fO+jp9adP7C3WChcu8FPixWYGM1fPt639+MLH208/NLy1qocfOavr93d9umLRw99ebnj/GAh7/Hii3Vf2n1S8qX5uZsAAQIECBAgQIAAAQIECBCIlEC+c7Tz8X3XIvJVrSNtWc8xiNQMFbsAgcGujp1/e+Ol//7lzHD8sR98951H7j25oyU/ObGAFV06QyA3Ucie7j/w2aVPnj/y6uodM3Pwqk9eXrH9442H9229ePlE3+SY/31uBmgzPpCSN0PdngQIECBAgAABAgQIECBAgEDDBYIgGNnZnlndWonIOx/bm+8cbXghNiRQd4Gh7q69H7y9ZdXvZobj627/9ptrVx7+4pOJkZG61xHTDQr5Ysf5wUNfpj/ffGzLH3c+/fMvqnLwql9f/EPLBxsO7f5g6q2bY0PeuhnGPwspeRinoiYCBAgQIECAAAECBAgQIECgtgLF0XzPy/8/e/fh1VaWpgv/z+nqNHPnfjPdE3pC33unemZcoau6CtvlcjmVC+McygZsl7NdtgGTc845ZwwCJAQCBCiAkARCCOWcs87xt7DdGAMGYROE9KzVa5Ykjs7e+/ced6952Lx7aikfl0ZSjY2zpAfNl7eWGXfbZQGjUjHcUF0SfXGNcDxsX0n0RWZLg1Wv2+VZ7sHhfT5CI7FMUmWU4umKB8NpEZQVOfiKt9mX+xsTJ4YaZkUTGqvBhb9WCfyaIyUP/BphhhCAAAQgAAEIQAACEIAABCAAAQh8kIBz1ih/yFiKyOX3Bh3T+g+6I74MgUAS0MulQ7UVhdfOrRmO510MH6wpMyjlgTTlQJ8LQZB6uW16SNFfLqh+PJp+pndFDr7ibeaFvvq4sYGaGeGoyqRxIBYP9AKvmh9S8lUk+AACEIAABCAAAQhAAAIQgAAEIACBYBEgfYSpXSyNoi5F5Jocjg8dD4KlvqG8DpIktRIxvaok/3LEmuF47oWTtPJC1dwsElt/nhOSJI1qu3BERasW1sWOZZ7vW5GDr3ibfra35skotULAH1IYlDaSIP0ZBdcErABS8oAtDSYGAQhAAAIQgAAEIAABCEAAAhCAwAcJeLUOVfL4Uj4uvU6zUKUIsz7IFF/ebQGSJFVzs7TywtyL4WuG4/mXI+hVJRqJGOH4+rUiSdKid86OqwfrZxvix7Mv9a/IwVe8TTtNqXw40lsyPTUg10othA/9mtYH3mM/RUq+xwqG6UIAAhCAAAQgAAEIQAACEIAABCCwoQBJkjamSvYTfSkiV8aOumU4q3BDOVwQoAIkSSpm+P0lednnTqwZjhdeOzdUU66TLgToAgJjWjaTS8zWDjfPNaewcq/SVuTgK96mnuopu8voLuRxeqUqsdnr8QXGIjCLbRFASr4trLgpBCAAAQhAAAIQgAAEIAABCEAAArslQDi9urLppXxcGkk11AoJNxKu3SoIxn1/AZIgZNNTvYVZmaePrhmOF0ddHG6oRs/xdxHbzW4xRzvSMteSys6/tkEsnhLeU3JrqDNnktW9IJ8xelz4L413uQbh50jJg7CoWBIEIAABCEAAAhCAAAQgAAEIQCBkBVzzZsXj4aWIXHZn0M7RhqwGFr5HBQjCtzDF6c5Nzwg/vGY4XnrzymhznUmt2qML3L5pL8XirWns/MiBFdvDV78tjKa3Z3LGOual03qX3bN9E8OdA1wAKXmAFwjTgwAEIAABCEAAAhCAAAQgAAEIQMAvAdJHmp/PS6PfHNSpzmB7jS6/voyLIBAAAoTPN8+e6MpKTjt5aI1wfP8nFbcjx9qaLDr84udNtexm9zxXN9o615rGLojaOBbPv0ZrSWWPtMzNc3UOi/vNjfAqtAWQkod2/bF6CEAAAhCAAAQgAAEIQAACEIBAUAh4jU51OmtpC7k0mmrukeCgzqCobfAvwuf1zI2PdqQnppw4uDocj9v/adW966yuVpvREPwWfqzQYXHPT+pGW8V+xuJ5L2Px4eY5MVtrM+HXZn4Qh+QlSMlDsuxYNAQgAAEIQAACEIAABCAAAQhAIIgE7GyN7PabgzoVT0ZcEnMQrQ9LCU4Br9s9y2S0pcQlHw1bHY4/O/hZzaNb7O4Ou9kUnOv3e1UOq1syqRttE7elcwqiN94tnneV1pLCGm4SIRb32xgXvkBKjocAAhCAAAQgAAEIQAACEIAABCAAgb0qQLh8+mrBmy3kkVR9BZ9wevfqejDvEBDwuJxCBr0l8Wnid1+tDsfjv/m87sndyb5up9UaAhhrL9Fp9UimdMx2cVsGpzCavrqZ+IpPcq/SmlNYjCbRHFtrQ5OltVHx6QYCSMk3AMKPIQABCEAAAhCAAAQgAAEIQAACEAhMAbfUoowZXYrIZbfotnF1YE4Vs4KA2+mYpvc3xT1KOPzl6nA84dAXDTEPeLRel90eglZOm2dhSs9sF7dncAqv+xGL/0htTmYxGkVzLI3V4CJJMgTRsOStFUBKvrWeuBsEIAABCEAAAhCAAAQgAAEIQAAC2y5AEqSlTyq9TluKyNUpE16dY9sHxgAQ2KSAy26bolLqn95POPTF6nA88fBfmuIf8wdpbmdoPb2LsTjvZSyeySm64Vcs3pS0GIuLJjRWgxOx+CYfQ1y+sQBS8o2NcAUEIAABCEAAAhCAAAQgAAEIQAACgSPgM7s02ZylfFwaRTV1iEkfETgzxEwg4LBauJSuusd3nh38fHU4nnTkq9akGOHIoMcdKodJLsbi0/qxjvn2TK7fsfjEq1jcokcsjn9S2y6AlHzbiTEABCAAAQhAAAIQgAAEIAABCEAAAlsl4JjSye8OLkXkikcMl8i4VTfHfSDwgQIWnXais7X6wc1nBz9bHY4nHwtrT42fZQ57PZ4PHCjwv+6wLB65udhExb/d4jlXqE2JE0MNs6JxDWLxwK9v8M0QKXnw1RQrggAEIAABCEAAAhCAAAQgAAEIBKEA6fEZ6meW8nFpJFVXNEXYgz9tDMJaBteSSJJUi0X0qtKiyPOrk/HYsH2pJw52ZiSKJ5g+bzA/rjaTS8zWjrTMtaaxC6IGVhywufptzuWXsXj97Oy4GrF4cP2b2JOrQUq+J8uGSUMAAhCAAAQgAAEIQAACEIAABEJKwKO0KZ8xlyJy2c0B27ASvYlD6hkItMV6PR4xa6w7Ny0z4uia4XjayUPPs1MlXBbh8wXa5D98PiRJWvRO0YSG0ShqTmblXaWtzsFXfJJ9ub8xcWKwfnZ2TG3WOfDv98OrgDtsoQBS8i3ExK0gAAEIQAACEIAABCAAAQhAAAIQ2GIBkiStdLn0xpuDOlUJYx61fYuHwe0g4J+Aw2qZolKanv2cdOSrNcPx7HMneguzpFNcggiqcJwkSZPGPsNUD9bNNiaM51ymrgjBV7/N/ZH6+sjNcQ1icf+eL1y1awJIyXeNHgNDAAIQgAAEIAABCEAAAhCAAAQgsL6Az+rW5k8ubSGXRlKNLSLSi4M612fDT7dewKhUMFvqK+5Exh34dI1wfP8npTevMOqrdFJJ0GyRJgnSoLQJhpUD1cL6Z2NZF/tX5+ArPsmPHGhJZQ83z82xtTajK2gotv55wh0DTwApeeDVBDOCAAQgAAEIQAACEIAABCAAAQiEvABJkjamSn5vaCkil98fcgoMIQ8DgJ0TIAifXMCjlubnX45YIxkP25fw7Zf1T+9zKJ02YzA8mYSP0Mms00MKaoWgNoaZeb5vRQi++m3hdXpbBme0TTw/qbOb3TtXG4wEga0WQEq+1aK4HwQgAAEIQAACEIAABCAAAQhAAAIfJuBR2tTprKV8XBpJ1eZxfVZkcB/Gim/7J+BxOWdGhjrSE9JOHlozHE87eagzI3GWOexxu/y7ZYBe5fMSGollakDeV8avfjyafrZ3dQ6+4pPinwY7srljHfMLPL3TFsyHkQZozTCtbRNASr5ttLgxBCAAAQhAAAIQgAAEIAABCEAAApsUIFw+Y+ucNPpNF3LZzQHrgAytGzYJics3LWAzGtjdHXVP7iYc+mLNcLzgymlaeaFCyCeJvdrzx+vxqebM3H4ZpXi68uFI2hnKihB85dtTPaW3h7pyJyeeS2QCg8vh3TQrvgCBPSKAlHyPFArThAAEIAABCEAAAhCAAAQgAAEIBLUASZIOrlbxaPitLeRFU16jM6jXjcXtpgBJklqJmFFXWXr98prJeNyBT6vuRY+1NhhVyt2c6PuO7XH5FLMmNmWhu2Cq/N5wasQGsXhqBKX83nB3wRSbsqCYNbmdiMXflx7f22sCSMn3WsUwXwhAAAIQgAAEIAABCEAAAhCAQNAJeHUObR53eT6ueDLimNYH3UKxoIAQ8Hm9Ei6Lkp+Zffb4muF40pGvm+Mf82i9Tqs1IGbs9yScVs8CTz/WOd+ZM1l6eyjlVM/K7eHhb32SdppS+XCEUjzN7Zep5sxet8/voXAhBIJKACl5UJUTi4EABCAAAQhAAAIQgAAEIAABCOwtAdJLmLsl0hsDbyLy6zRTp5hAWre3CrkXZuuy26bp/S2JT5OPha0ZjmedOdaTlzHPnvB590bHbZIkLXrnHEsz3DzXmsYuiB5YPxNPCe9JP9tb/Xi0r5Q/RZNrJBafd692j9kLTxzmuJcEkJLvpWphrhCAAAQgAAEIQAACEIAABCAAgWAScAoNypjRN/l4JFWTzfFo7MG0Rqxl1wVMatVYW1PV/RvPDn62ZjheEn1xqKZcMz8X+O3vSYI0KG3CERW9dqYxYTznCnXDWDzjfF/tUya1QjA9qNDJrIQPsfiuP5KYQCAKICUPxKpgThCAAAQgAAEIQAACEIAABCAAgeAW8JldulLe8nxc/mDIzlIHfkwZ3HUJmtWRBKGcFQ5UFBX+eGbNZDz+0J/rHt9hP2+36nWBvGqfl9BILFMD8v5yQe1TZsb5vg1j8ZzL1Ib4cXrNjGBEaVDaCIIM5AVibhAIEAGk5AFSCEwDAhCAAAQgAAEIQAACEIAABCAQEgKkj7TQZLJb9DcReRTV2DhL4JzAkKj/9i7S63aLxke6spIzwg+vGY6nnjjYnhovHKa7nY7tncr73t3t9CpmjGyKtKeQV/FgOO30BudtpoT3FEQNtKSyh5tEogmNRe/Er5re1x7fC2kBpOQhXX4sHgIQgAAEIAABCEAAAhCAAAQgsJMCLolZlTD2Jh+PpKpTJtyyPXZA4k6KYSx/BKx6HYfS2RDzIPHwX9YMx/MuhveX5Mmmpwgi4E6ndFjdC1P6sY75zmxuya2Nz9tMOdVTcmuoM5s71jG/wNM7rG5/iHANBCCwvgBS8vV98FMIQAACEIAABCAAAQhAAAIQgAAEtkDAZ/MYaoXL83HZnUErQ0GiHcQW6IbiLXxe78IUp780/109VeL2f1p+69pIU61eLgscoFfnbYomNMNNopZUdkHUxudtpp2mVDwY7inkcXqlilmTG391ETjlxEyCSAApeRAVE0uBAAQgAAEIQAACEIAABCAAAQgEngBJkLZRpfze4PKIXF8l8GEPbOAVK/BnZNFp2d0djbEPk458vea28cTDf2mMezjZ1203mwJhOcTL8zYFI0p6zUxD/HjO5Y3P28x8ed5mf4WAR5drFiw+L87bDIRKYg5BLoCUPMgLjOVBAAIQgAAEIAABCEAAAhCAAAR2UcCjtKnTWMvzceUzpkscEPHlLrJg6E0J+LyehUl2f0lewTuO4owN25d99vjznLS5CabXvcsdSHyev563WcaveTKaca534/M2r1AbEycG62aEoyqjyo4/sNjU44GLIbAlAkjJt4QRN4EABCAAAQhAAAIQgAAEIAABCEDgLQHC5TW2iKTR1KWIXPbTgKVfSvqwMfYtKLx5l4BZq2E/b2+IuZ905Ks1t43HH/pzzcOfmC0Nerl0F4+sdNo8Ur5h4rnkef5U+b3htIiNz9ssjKa3prFHWubm2FqrAeepCtr8AAAgAElEQVRtvusRwOcQ2DkBpOQ7Z42RIAABCEAAAhCAAAQgAAEIQAACoSBAkqSdo1U8ZCzl49JIqq54ymt0hcLyscYPEfB5PRIuq684N/9yxJrJeGzYvpxz33fnpovGRzwu54eM9X7fJUnSrHWIxjWMV43FozduLJ56qqf09lBnzuR4p2RhWu+0et5vaHwLAhDYPgGk5NtniztDAAIQgAAEIAABCEAAAhCAAARCTsCrdWhyucvzccWTEQdfH3IQWPBmBMwaNaurrf7p/cTv1t42nnDoi5pHt8baGg2KnT6K0+clNAsWHl1OrRDUxY5lXezfsINK2hlK5cMRStHieZtKkcnj8m0GA9dCAAK7IICUfBfQMSQEIAABCEAAAhCAAAQgAAEIQCD4BEgPYX4+L71BexORX6eZuuZJDyLC4Kv2FqzI6/HMsyd6C7PzLp1617bx3Asne/Iz5sZHPe6d+0MEp80j4xtY3Qvd+VPl94fTTm/cQSX7cn/9s3FatZA/pNDJrD60FdqCBwS3gMCOCiAl31FuDAYBCEAAAhCAAAQgAAEIQAACEAhKAafAoHw68iYfj6RqcjgerSMoF4tFfYiASa2c6Gyte3I38fBf1gzHE779svbn2+PtTUal4kMG8vO7rzuoTGiGm0StaezCaPqGW8VTwnuKbtDbMjivGotb9Ggs7ic2LoNA4AogJQ/c2mBmEIAABCAAAQhAAAIQgAAEIACBwBfwmVy6Ut7yfFz+gGFna3bxNMXARwu1GXrdbjFrjFKQlXsxfM1kPDZsX+6FHyj5meIJ5nZvG/d5Ca3UMj2ooFUK6+PGsi/50UHlNKXiwXB3IY/VsyAXGlwOb6hVEOuFQNALICUP+hJjgRCAAAQgAAEIQAACEIAABCAAgW0RIH2khSqT/UR/E5FHUY1Ns4QTGeK2gO+5mxpVyvGO5rrHdxIOf7lmOJ5w+Mu6x3cmOlqMKuX2rc5l98gELzuoFExVPPCvg8ql/vpnY7Qq4fSQQiu1+rzE9k0Pd4YABAJBACl5IFQBc4AABCAAAQhAAAIQgAAEIAABCOwxAde8WRU/9iYfj6SqUyfccuseWwamu9UCHrdrboJJyc/MvfDDmsl4bNi+vIvhvYVZYva41+3e6vFfkCRp0TvnWJrh5rnFDirX/eqgUnid3prGHm6em2Np0EFly4uCG0Ig8AWQkgd+jTBDCEAAAhCAAAQgAAEIQAACEIBAAAn4bB59tWB5Pi6/O2gbUZIEGUCzxFR2VsCglI+1NdU+upXw7drbxhMP/6Xuyd2JzlaTWrW1U/N5CM3Cyw4qVcL6Z5vpoFIwxepekAkMLrtna6eEu0EAAntOACn5nisZJgwBCEAAAhCAAAQgAAEIQAACENgdAZIgbSNK+d3B5RG5vlrgsyFk3J2K7O6obqdDND7Sk5eRc/77d20bz78c0VuUM8+Z8Hq27CGxm90LU/rxTklX3mT5PUZaBGXD8zazL/XXx43RKoXTgwqt1IIOKrv75GB0CASgAFLyACwKpgQBCEAAAhCAAAQgAAEIQAACEAg4Abfcqk6dWJ6Pq+KZLrEp4CaKCW2ngM/rlfF5g9Vl5beuPTv42ZrheOJ3X9U/vc/qajNr1B8+F5+P0MmsfIaSXjPTmDiRd5W2YSaeEt5TGP2yg0qTSDShMWsdOEv2wwuBO0AguAWQkgd3fbE6CEAAAhCAAAQgAAEIQAACEIDAhwoQLq+xWSSNpi5F5LKf6BaqjPShxcqH2u6J75MkqZNKxtoa657cTTry1ZrJeGzYvvzLEX3FuRIuy+f9oG3jTptHyn9z2Gb6md4NY/G005Ty+8PP8192UOEbnPjjhj3xYGGSEAgkAaTkgVQNzAUCEIAABCAAAQhAAAIQgAAEIBBIAiRJ2tka+UPGUj4ujaTqSnhekyuQpom5bIuARa+d7OtuS45NDz/8rmQ8+WhYQ8wDdne7Wat5v0kQBGlQ2oSjqqH62eYUVkHUwIaZeEp4T+6P1MaE8YGaGT5DqZNZ0UHl/fDxLQhAYEkAKfkSBV5AAAIQgAAEIAABCEAAAhCAAAQg8EbAo3VocjjL83Hl0xGnwPDmCrwKOgGX3TYzyujJy8i7dOpdyXj8N59X3o1m1FUqZvgE4dusgdvhlc8YOb1SSvF01c+jGec23iqeGkEpu8vozJkc65iXTOps+CXNZtFxPQQgsJEAUvKNhPBzCEAAAhCAAAQgAAEIQAACEIBAiAmQHsLUNS+9QXsTkd+gmZ/Pkx4ixCRCYrk+r0c6xR2oLC69eSXuwKfvCseLrp3vK84Vs8Y8Lqf/LiRBmjQO0bhmuEnUmsYuukH3Z6v4q8M2qZUCHl2ukVi8nk1n8f7PEFdCAAIQePHiBVJyPAYQgAAEIAABCEAAAhCAAAQgAAEIvBYgCdI+rlY8GXmTj0dSNblcr9YBo2ASIElSMz832lxX++hWwuEv35WMZ5053pmZxB+k2s3+HtPqcfmUc6ZJqqyvjF/7lJl5oW/jWPxUT8mtofZM7mirWMzWWvROHLYZTA8b1gKBPSGAlHxPlAmThAAEIAABCEAAAhCAAAQgAAEIbK8ASZIOrlb5jLk8H1c8ZNg5GkSW20u/g3c3a9UcSmdL4tO0k4felYynHD/Q9Oxn9vN2o0q54dRIkrTonXNs7WiruD2TW3JrKOVUz4axeOaFvtoYZn8Zf5IqU82ZPS5sFd9QGhdAAALbK4CUfHt9cXcIQAACEIAABCAAAQhAAAIQgECAC5Ak6eTrVUnjy/NxaTTV2CwiXN4Anzymt6GA02oVMujPs1NzL5x8VzKecOiL6gc3hxuqVaIZklivr47b6X21Vby/XFAXO5Z9qX/DTDwlvKfoBr0tnTPcPCea0Ji1DvzeZcOq4QIIQGCHBZCS7zA4hoMABCAAAQhAAAIQgAAEIAABCASQgEtkUqez3srHo6i6smkPWqwEUJU2PRWv2y3hsqhlBSXRF+P2v6PV+P5PSqIvUssKJFyW1+1ecwySII1q++y4erhJ1JbOKb456M9W8YxzvdWPRykl05xeqWLG6Hbgdy1r6uJDCEAggASQkgdQMTAVCEAAAhCAAAQgAAEIQAACEIDAjgm4FyyaHM5b+XgkVVs45VHadmwOGGgLBUiCUIlmhhuqqx/cTDj0xbu2jedeOPk8O1XIoDusltWjO20emcDApixQiqerH49mnOv1Z6t4QdRASwprqGF2hqk2quwEQa6+Mz6BAAQgEMgCSMkDuTqYGwQgAAEIQAACEIAABCAAAQhAYOsFPEqbtnBqRT6uyeG4F9aITbd+eNxxSwWMKiX7eXvTs59TThx8VzKe+v03LYlPOZROs0a9fHCfj9DJrIJh5WDdbHMyqyBqwJ9M/PVW8eJpNkUqFxqcNs/ye+I1BCAAgb0ogJR8L1YNc4YABCAAAQhAAAIQgAAEIAABCLyPgFfr0JVPS6OoyyNydTrLJTK9z+3wnV0SsJtN/EFqZ2ZS9tnj70rGEw5/Wfvo1mhznWZ+7lWrcZIkbSaXZEo33il5njdVfn847TRl41j8VE/xzcG2jJddxcc1RrWdxFbxXao7hoUABLZPACn59tnizhCAAAQgAAEIQAACEIAABCAAgUAR8BqdhhqhNPqtfFyVNO7k63GUYqAUad152M0mwRCtOze94Mcz70rG4w58WnrzykBlsXSK6/N6vG6fet7Mo8tplcL6Z+M5V6gbZ+LhPdmX+utix/orBJNUmXLO5Haiq/i6hcEPIQCBoBBASh4UZcQiIAABCEAAAhCAAAQgAAEIQAAC7xDwWdzGxlnpddry/ePKOKaDq0U+/g6zQPnYZjTwB6nPc9LyL0e8KxmPDduXd+lUT17GzMiQdkE7x9KMts61Z3JLbg2lnurZMBZPi6CU3WV05kwy28VijtZqcOKpCJTyYx4QgMAOCiAl30FsDAUBCEAAAhCAAAQgAAEIQAACENhBAcLuMbXPyW4OLM/HFU9GbONqNM3YwTpsbiirQT890Pc8OyXvYvg6yXh6+OHmhJiBqqbRFk5vKb/mCTPzQt+GmXhKeE/eNVpj4sRAzQx/SKGVWnweYnPzw9UQgAAEglEAKXkwVhVrggAEIAABCEAAAhCAAAQgAIHQFiBcXnO3RHaL/lY+/pBhZShIH1LRgHs4LHotj9bblZmce+GHdZLxtO+/Lb91rz6mqDamuyDar5M208/2Vj4c6S7ksboXpNN6h8UdcIvHhCAAAQgEgABS8gAoAqYAAQhAAAIQgAAEIAABCEAAAhDYIgHS47P0S+X3Bpfn4/J7QxaajMSu4S1C3pLbmLWaKSqlIz0x5/z36yTjyUcP5Vy4mXMxPSW8NvmH7g13ixdep7ekshmNohmm2qC0EfilyJZUCzeBAASCXQApebBXGOuDAAQgAAEIQAACEIAABCAAgdAQIL2EdUguf8hYno/Lbg+aKRLC5QsNg0BfpVmjnuzrbk+Lzz53Yp1kPP7bbxKOXEs4mpj0/QbJeOaFvtqnzL5SPrdfppgxuhw4aTPQnwHMDwIQCEwBpOSBWRfMCgIQgAAEIAABCEAAAhCAAAQg4K8A6SNtTJXi8fBb+fhPA6YOMYHY1F/FbbmOJEmTWsmldLWnPss6c2ydZDzuwMH4b68lHE1K+r7uXRvGUyMopXcYHdnc0VaxaEJj1jpw0ua2lA03hQAEQk8AKXno1RwrhgAEIAABCEAAAhCAAAQgAIFgESAJ0s7WKGNHl+fj0hs0Y7PIZ0UH6t0pM0mSRqWC09PZlhybGXF03WT8m/hvryUeTU7+vn7NZLwgeqA5mTVYN8NnKLVSK07a3J2KYlQIQCAEBJCSh0CRsUQIQAACEIAABCAAAQhAAAIQCDoBkiQdPJ0qYeytfDyaZqgTek2uoFtuoC+IJEmDQsbubm9Nisk49d26yfih+G8jE4+mJJ9sWJGMZ1/qr4sd6y9D+5RALzfmBwEIBJ8AUvLgqylWBAEIQAACEIAABCAAAQhAAAJBLuCcMapTJ97Kx6Oo+kq+V+cI8pUH0vJIktTJFlhdbY1xj1NPHFo3Gf82/tuoxGOpyScbl5Lx9DO9FQ+Gn+dPjXdKJJM6m9GF9imBVF7MBQIQCC0BpOShVW+sFgIQgAAEIAABCEAAAhCAAAT2tIBLYtZksd/KxyOpuhKeR2Xb0+vaK5MnSVItFtMqa0tv3k787sC6yfjh+MPXE4+lvU7GT/UU/zTYlsFhNIlmmGqD0kYQ5F5ZNeYJAQhAIOgFkJIHfYmxQAhAAAIQgAAEIAABCEAAAhAIBgG33KrNn1yRj2vzuG6ZNRiWF6hrIAhSr7Aw24brY/KyzkY9O/j1usn4dy+T8fTkk015V2mNCeO0aiGPrlDPmz1uX6AuEfOCAAQgAIEXSMnxEEAAAhCAAAQgAAEIQAACEIAABAJawKO260p5K/JxdQbbJTYF9Lz34ORIkrTonWKOdrhpuvZpXda5J88ORcSG/Xm9ZPzgkfjDN1J+yKx80EcpnmZTFmR8gwNHp+7B6mPKEIBAKAsgJQ/l6mPtEIAABCAAAQhAAAIQgAAEIBDQAl69U18lkEZRl0fkqpQJp9CAHtYfXjmSJG0m1wJPz+pe6CmcKr/7POWHtPjD1+MOHl0nFo8N2xd38Gj6qbtVjyqH6rlzbK1Z60A5PrwcuAMEIACBXRRASr6L+BgaAhCAAAQgAAEIQAACEIAABCCwtoDP7DLUz0iv097Kx+OZjikdAtm1yfz41Gn1yIUGTq+0r4xfFzuWdak36URZwpHYZ4cuxe7fv24y/mnKiVNlt2L7y9rlQqXPS/gxGi6BAAQgAIE9I4CUfM+UChOFAAQgAAEIQAACEIAABCAAgVAQ8Nk8xlaR9MbA8nxcGTNqZ6lJnPe4mSfA7fAqRaYpmpxWKWyIH8+7SksJ70n+oT3xeF78d/effbNBK5X4b78uvBbVnVckZrM9btdmRsa1EIAABCCwxwSQku+xgmG6EIAABCAAAQhAAAIQgAAEIBCsAoTTa+qal92iL8/HFT8P20aUpI8M1lVv1bq8bp9GYpkeUtBrZ5qTWQXRAynhPa/+k3yyIfFY6l9bqXyyzp7xjFPHmxNj2d3tOqmEJLBhfKuKg/tAAAIQCHQBpOSBXiHMDwIQgAAEIAABCEAAAhCAAASCXsBndpk6xLI7g8vzcfmDIStdTqK5x1rl93kJncwqHFExGkWtaezim4Mpp15n4i83jD9POlH+spXK5dj9B9aJxZ8d/Kzk+qXewmwhg24zGtYaCp9BAAIQgEDwCyAlD/4aY4UQgAAEIAABCEAAAhCAAAQgELACbplVX8Ff0X9cfnfQ0rdAuH0BO+0dnhhBkEaVfXZcPdIy15HFLb3DSIugLG0Vf71h/GUrlYTvHjz75nRs2BfrJOPJx8Jqf77NqKtcmOJ4XM4dXguGgwAEIACBABRASh6ARcGUIAABCEAAAhCAAAQgAAEIQCDIBUiCdEzpNJns5ZvHpZFU2S26qWuecHqDfP3rLm8xE1fbRRMaZru4K3ey4sFw+tneFZn4slYqafGHb8QdPBYbtl4rlexzJ9qSY1ldbVqJGK1U1uXHDyEAAQiEogBS8lCsOtYMAQhAAAIQgAAEIAABCEAAArslQLh8Vrpc+XRkRT6ueMRY3D9u9+zWxHZr3Ff7xEUTmtE2cWfOepn4X1upVCQciXt26HLcgY1aqURfpBRkCYZoVoN+t1aHcSEAAQhAYE8IICXfE2XCJCEAAQhAAAIQgAAEIAABCEBgzwt4jS5j25zs9lvNx6WRVFXyuJ2lJn0hcVbkm0y8dTETL78/nH5m7X3iS5vHk3/oSDyen3DkQdLRc88OfrleK5WjYTWPbg3VlEu4bI8TrVT2/D8ZLAACEIDAjgkgJd8xagwEAQhAAAIQgAAEIAABCEAAAiEq4F6w6MqmpdHUt/aPR1F1xVMusYkkyWB1IXyEUWUXjWtGW+cWM/F7G2fiLzeMdyedrM48l55z4W56eHjc/k/XScazzhxvTYphdbVq0EolWB8jrAsCEIDA9gsgJd9+Y4wAAQhAAAIQgAAEIAABCEAAAiEpQBKknaNVp7HeCsdfNh83Nou8+mDb7Ez4CIPSNjuuXszEs7nl94bTzqw8Y3Nph/hbL071FER3V9yrrLiTWHD1auJ3X68Ti8cd+LQ46gIlP5M/SLPqdSH5ZGHREIAABCCwxQJIybcYFLeDAAQgAAEIQAACEIAABCAAAQgQTq+FJlM8Hl6RjyseD1uosuA4nPN1Jj6mHmmZ61jMxBn+Z+LFNwebksc6s7vb04prHj3MPntinVg8Nmxf0pGvah7+NFhTJuGy3E4HHjAIQAACEIDA1gogJd9aT9wNAhCAAAQgAAEIQAACEIAABEJawKt3GptFslv0Ffm4Oo1l52hJ315truLzEXqFbfavmXjZXUbaab/2iaee6in+abA1jT1YNzPWwWY0tHfnpJdcvxT/zefrJeP7P8m/HNGRnsDubtfMzxGEL6SfKiweAhCAAAS2WQAp+TYD4/YQgAAEIAABCEAAAhCAAAQgEAICJEm65s26Ep406u3m49FUXdm0e8GytwwWM3G5bYapHm6e68jibioTL7k11JrGHmqYFQwr5ULlLHN0sKas9ufbqScOrheLh+1LO3mo/uk9Rl2lhMty2e17SwyzhQAEIACBPS2AlHxPlw+ThwAEIAABCEAAAhCAAAQgAIFdFiB9pJ2lUaVMrNg8LrtNN7bOeY17oPm41+3TLFgEw0pGo6gtg1N6eygtwt994iW3htrSOYuZ+IhSK7W6HC6VaGais7U99VnuxfD1Y/GEQ1+U3fyxtzBrmt5v1qiD+BTTXX5GMTwEIAABCGwkgJR8IyH8HAIQgAAEIAABCEAAAhCAAAQgsJYA4fBa+qSKRyubjyufjljpcsIVoE1CXA6vUmTi0eUDNTPNKayiG/SUUz1vnaUZvvbb1AjKYiaewWE0ioQjKq3U6vMQJEmatWr+IK23KKfsp6sJ3365fjKee+GHtuTY8Y5mlWjG5/Wu5YrPIAABCEAAAjstgJR8p8UxHgQgAAEIQAACEIAABCAAAQjsdQGvzmFsnJX9NLBi/7g6g+2Y1JFEoDQfJ0nSbnbLBAZun7S/QtAQP55/jeZPIJ4S3pMaQSm9PdT+KhMfVelki5n4q8K5HXYJl82or2qIuZ/+w7frx+Ipxw/UPrpFryqdm2A6rHus88xef1AxfwhAAAIQ8FMAKbmfULgMAhCAAAQgAAEIQAACEIAABEJdYLH5uMikLZxa1Xycpq/gu2XW3QUiSdKid0omdazuBUrJdG0MM+cy1c9MPP1Mb/m94c5s7kjL3AxTrZO/ycRfvHhBED6NRMzu7ujMSCy4cjpu/6frJOPPDn5eEn2xOzd9ikoxKGToo7K7TwVGhwAEIAABfwSQkvujhGsgAAEIQAACEIAABCAAAQhAIKQFSC9hG1erksZXbB6X3x00dYh9ZtfO6xAEaVTb51iasY755/lTVY9GMs/3+ZmJZ57vq/p5tDt/aqxjfo6tNartxKr971aDXjgySC3Nr7wbnfjdV+vE4rFh+7LOHG9OeMJsaZALeF63e+c1MCIEIAABCEDgQwSQkn+IHr4LAQhAAAIQgAAEIAABCEAAAkEuQNg9ZsqC/CFjRT6ujB21DikI9w41H/d5CJ3MOsNUDzfPdWRzy+8x0s/0+pmJ51ym1sYwKSXTrO4FyZTOanCuub/bbjbNTTCHaisaYu5nRhxdPxZPOvJ11b3rtPKiWSbDZjQE+UOA5UEAAhCAQLALICUP9gpjfRCAAAQgAAEIQAACEIAABCDwXgIejd1QJ5TdXNl8XJPNcUzrt7X5uMflU8+b+UOKwfrZ1jR2ya2h1AiKn5l4fuRAQ/w4tULA7ZfJhQaH5Z07ux0Ws5g1xqirbIx9mHl6g1g8bv+nhVfPdmUmcyldOqmEJF73KH8vWnwJAhCAAAQgEFgCSMkDqx6YDQQgAAEIQAACEIAABCAAAQjsrgBJks4ZgzZ/csXmcel1mr5K4FbYtnx6DqtbLjROUmW0KmFT0kRhNN3PQDzlVE/RDXpzCoteM8Ojy5VzJpfDu870nFbrPHuCUV/VFPco68zx9XeLx4btyzj1XWPsw+GGaukU1+N0rnNn/AgCEIAABCCwpwWQku/p8mHyEIAABCAAAQhAAAIQgAAEILBlAovNx0dVqvixFfm4/N6QqWve9+5N2f7PgCBIk8Yu5mjHuyQ9Rbzap5s4YDMtglJ6e6g9g8NoFAlGlJoFi3ejfi9Om1XCZQ03VDc9+zn73IkNY/HU77+pfXRroKJoZmTIotP6vy5cCQEIQAACENjTAkjJ93T5MHkIQAACEIAABCAAAQhAAAIQ2AIBn9Vtfj4vvz+0Ih9XPmPaRpSk5z27i3jcPs2CRTCiZDSJ2jM310w842xvxYPhzpzJ0Vbx7LjaoLT5fBtPw2W3Sbjskaba5vjHOee/3zgWP3Gw5uFPtPIi4TDdrNWs2a98C3xxCwhAAAIQgEBgCyAlD+z6YHYQgAAEIAABCEAAAhCAAAQgsG0CJEm6ZVZDjVB6g7YiH9fkcp0Cg/+pMUmSdrNbLjRw+2W0yk02Tgnvyb7UX/OE2VPIG+ucF3O0Zq3Dz77nLrt9YYoz2lTbkvg098LJDWPxlOMHqh/cpJYVCBl0s0bt/wK3rQi4MQQgAAEIQGD3BZCS734NMAMIQAACEIAABCAAAQhAAAIQ2GEBn9VtocpU8cwV4bj0xoChVuhRbdB8nPARRrVdzNaOdc73FPJqnjCzL/X720w8vKcwmt6UNEGrFE5SFw/YtJvd/qfVbqdDyuMyW+pbk2JyL4bH7v9k/WQ85dj+qvs3qKX5giGaSa3yf6AdrgiGgwAEIAABCOyiAFLyXcTH0BCAAAQgAAEIQAACEIAABCCwowKkj3BM6rSFU9LolZvH5Q+GzN0Sn9W9ekIel08jsQiGlYxGUXsmp+wuI+0Mxc9MPP1Mb/k9RkcWl9H0upm4Z6Nm4ism4HE6ZdNTY60NbcmxeZdObRiLJx8Nq7oX3V+Sxx+kGVVKxOIrPPEWAhCAAAQgsFoAKflqE3wCAQhAAAIQgAAEIAABCEAAAsEm4FHajM0i+b2VncelkVR1GsvGVJHexa7fJEnaTC4Zf7FxCrVC0Jg4URA94GcgnhLek325v/Ypk1LEG++SiDlak8ZBEORmKT0up4zPG2trakuJy78cEbf/0/V3iycd+brybnRfce40vd+glCMW3yw4rocABCAAAQggJcczAAEIQAACEIAABCAAAQhAAAJBK0DYPVa6XJU0vrKzSiRV8ZBhaJvT8XRzLM1Yx3x3wVT149FNNE451VN0g96UxKJVv2qcYnSstQ/dH1mnzbowxRlrbWhPjS/48YwfsfhXFXcie4tyeAN9BoWMJDY+1dOfaeAaCEAAAhCAQMgKICUP2dJj4RCAAAQgAAEIQAACEIAABIJWgPSRjmm9roQnvb6ys8pCNI3/ZKQ/llny02BahN+NU872lt8f7sjmDjfPCUdVWqnFu8nGKUvWJEmateqZUcZgdVlDzP2sM8fX3yoeG7Yv8buvym9d6y3M4lEperkUsfgSJl5AAAIQgAAEtkQAKfmWMOImEIAABCAAAQhAAAIQgAAEIBAQAh613dQ2J3+wRmcVzpW+lnO9mad6NuygknOFWhvDpBRPTzyXzHN1Zq2D3HzjlCUOn9ermZ+b7OvuLcyqvBudcmz/hrF4wuEvy29dpeRnTlEpOukCQfiW7oYXEIAABCAAAQhsuQBS8i0nxQ0hAAEIQAACEIAABCAAAQhAYOcESJK0m92ySa2ghDe7Vtvxmav9lAu9hRFrh+OpLxunNKewBqqFUzS5Yub9G6csrdllt0l53LG2pva0+KJr5+O/+XzDWDz5WFjlnShKQdZkX7dOKkEsvoSJFxCAAO4YuUsAACAASURBVAQgAIEdEEBKvgPIGAICEIAABCAAAQhAAAIQgAAEtkbA5yF0cuvsuJrZLn6eP1X980jd5f7BS33z1/pXdB6XXOsfvtRXfYaSGv4mH8++1F/9ePR5/hSzXTw7rtbJrT7Phzb1ftlBRTPLZAzWlDXGPsw+d2LDTDw2bF/WmeMNMffpVaUzI0NmjRpHbm7N84G7QAACEIAABN5LACn5e7HhSxCAAAQgAAEIQAACEIAABCCwzQIkSdpMLhnfwO2X0aqEzcmsohv01L/2S8mL6Om+0Cu4ujIcl0ZSuVf62871Zp+mFP802PJyk/gkVSYXGu1m95aE0T6vVysRT/X39BZmV92LTjl+YMNY/NnBzwqvnm1PfcZsaViYZDut1m3Gw+0hAAEIQAACENiEAFLyTWDhUghAAAIQgAAEIAABCEAAAhDYJgGvx6eTWWeY6tHWua68yapHI1kX+lY3EE8P72k6R5m40rdi57g0kjoXRWU/GWFXC0UTGr3C5vN+6CbxpZW67Hbp9OR4e1NHemJx1IX4Q3/eMBZPPhpWcSeSkp/J7X2uFou8Hs/S3fACAhCAAAQgAIFAE0BKHmgVwXwgAAEIQAACEIAABCAAAQgEuQBJklaDSzqt5/ZJqZWCpqSJwuv0lL9uEl+djL/6pPw0hX6pT7yqs4o0iqrK4Ti4WnKLYnGSJC16rWhsZKimvDHuYc657zfMxGPD9mWePlr/9N5AZYlwmG5SK7dk03qQPwdYHgQgAAEIQCBgBJCSB0wpMBEIQAACEIAABCAAAQhAAALBKOCye1RzZj5DyWgUdWRzKx4MZ5xfY5P4u8LxkivUobtDopsDqzePK+OYln6pz+L+QDbC59MuzPOolL7i3Kr7N1JPHNwwFl/soPLjmbaUOGZLvYTLdlgtHzgHfB0CEIAABCAAgV0UQEq+i/gYGgIQgAAEIAABCEAAAhCAQFAJLHZNkVtF45qxjvnuQl7tU2buj9R3xd+rP087TSm9PdSaxh6sm+X1y+QdYlUGSxpFXZGPy24PGupn3AuW99uvvbiTXa8TTzBHmmrbUuKKrp33p4NK0pGvym9d68nL4FA6VaIZdFAJqgcXi4EABCAAgZAXQEoe8o8AACAAAQhAAAIQgAAEIAABCGxegCBIs9YhmdKxKQv95YLGRL+6pixPxnN/pNbFjlGKp8e7JGK21qi2Ez6CJEnXvNlQI5Tdoq8Ix6VRVE0u187SkJ7NNRx32e0yPo/V1dadm1ZxO9KfwzYXO6hEHK17cnegsljIoBtVSpLY3KCbF8U3IAABCEAAAhDYNQGk5LtGj4EhAAEIQAACEIAABCAAAQjsCQGSJB0Wt2LGODUgH6ybaUvnlN1lpJ/pXR55r/8683xf5cORzmwuo0kkGFaq580uh3fF2n0ml5myoIwZXRmOR1KVMaNmyoLX5FrxlTXf+rwejUTMo/VSS/PrHt/JOnNsw/YpsWH74g58WnDldGty7GhT7Txnwm42rXlzfAgBCEAAAhCAQFAKICUPyrJiURCAAAQgAAEIQAACEIAABN5TwOPyaSQW4ahqpGWuK2+y6ufR7Ev964fgy3+aFkEpuTXUksoeqJmZpMpkAoPN5FqnNQrpIewsjSaXu0ZnlVt0Q43QNW9e7+skaVKrZpkMRl1lS+LTgiunnx38zJ9YPD38cPWDm71FOZN93YsdVNwf2tz8PbnxNQhAAAIQgAAEAkAAKXkAFAFTgAAEIAABCEAAAhCAAAQgsBsCPh9hVNnFbO3Ec0lvyXT9s7H8yIHlkfeGrwuiBhrix/tK+azuBTHnddcUf5ZCkqR7wWKon5HdGVy9eVyTxbaNqwm3b/WtHBbzwhRnvL2pKzO59OaVpCNf+ZOJJx35qvTmla7M5PH2poUpjsNiXn1nfAIBCEAAAhCAQMgKICUP2dJj4RCAAAQgAAEIQAACEIBACAmQBGnRO6XTem6/jFYtbElhldwaSougbJiDL12Qfam/+vHo8/yp0VbxDFOtlVo8a6XY65suhuNSi6ldvGZnFcWTEfPzea/euXQTj9ulEs1M9nX3FuVUP7iZHn7Yn0z82cHPCq6cbkl8yqirnGUOmzXqdXajL42FFxCAAAQgAAEIhKwAUvKQLT0WDgEIQAACEIAABCAAAQgEpwBJkjajSyYwTNHk9NrXbcQzzm6ijXj62d7ye4z2DM5g/SyPrlCKTE6r50OwSIJ0iU3GZpHi5+HVO8dlNwf0lXznrNHn9RoUMiGDTq8qbYx7mHvhh7j9n/oTi2edOVb3+A61rIA30KeRiH3eD5rth6wU34UABCAAAQhAYC8KICXfi1XDnCEAAQhAAAIQgAAEIAABCCwKkCRpNy+eq8mjK4bqZ9szueX3hzPO9y1tAN/wReqpnqIb9KakCWqlgNMrXeDpLXonSZBb4kv6CKfQYKifkT8YWh2OSyOpymTmfN0ws76+PS2+OOpiwrdf+pOJpxw/UHEnsjs3ndXVJuPzXHb7lswWN4EABCAAAQhAIGQFkJKHbOmxcAhAAAIQgAAEIAABCEBgjwk4rR6lyMQfUjAaRZ3Z3MqHI1kXNhGIp4T35F2l1cYwKUW8sc550YRGr7D5PMSWK5BewsHT6asE8rtr9BxfiOwX3G7vv5med/KkP5l4wqEviiLPt6c+G2mqFU8wrXod2qdseclwQwhAAAIQCGUBkiR9ZrN7ft5ntYWsA1LykC09Fg4BCEAAAhCAAAQgAAEIBK6Ay+5Ric2CYeVw81xX7mTVz6PZl/o33Bi+/ILcH6k1T5jdL9uIC0dVGonF7fRu64IJt8/O0ejKpmW36Kt3jkuu9Y2eL6o/cSPlYNh64fj+T3IvnGyIeTBQWSIYounlUoJY4wzPbV0Ibg4BCEAAAhAIGgHS7fao1U4+3zY0ZG5t1ZeUaJKSlXfvSS9enP/uiOjTzwR/+APv17/h/eIj3i8+svT0BM3CN7sQpOSbFcP1EIAABCAAAQhAAAIQgAAEtlLA7fRqJBbhqGq0de55/lTNk9GcK9TlefeGr7MvL56r2ZU3OdIyJxhRqufNLvvONeYmHF4bU6nIGluIpq4Ox+evURjn8mqORyYd+Mua4XjayUNV92/0FmZxKV3KWaHH9ebozq1Uxr0gAAEIQAACwSWwuAHcanUvLDhYLEtvr7G2TpeTo46JkUdfXzgVIQ7bP/Pxx/y//4dX8bef/9dYXR1cSJtYDVLyTWDhUghAAAIQgAAEIAABCEAAAh8i4HH5tFLLDFPNbBd3F/JqY5i5V2kbhuDLL8i60Ff5cKQzm8toFPGHtuBczfdYDuHz6eVSIXWAnd40datJcq1vdTguvto9eDar8tiPCfu/WB6Op508VHk3ujs3baKjRcJl282m95gAvgIBCEAAAhAIbgHS6/VqtU6BwMYYNre3G8rKNCkpyvsPZJcuzx89Kvr8z8J//bfp3/zWz+zb38s++qW+oCC4YddZHVLydXDwIwhAAAIQgAAEIAABCEAAAu8p4HZ6tVLL7Jh6rGOeUsSrix3Lv7a5QDzjfF/Fg+H2TO5Q/SyPrlDMGO1m98635PZ6PFqJmD9IpVeVNsU/Lr9ypemH28zzxWuG46Ifu2hn0sqPXozf/3ls2L6MiCPVD25S8jPZz9ul05MOi/k9NfE1CEAAAhCAQFAIkCRJ2GxuqdTB4Vj7+4319bq8fHVsnPzGjYXTZ8QHDs7+6b/4v/u9v7n2yzYp/lw8/bf/S/jHP8598aXkxPeyH6+qHj3SpqcbKirNnZ320VGXSOQ1GEhfSLc4Q0oeFP/CsAgIQAACEIAABCAAAQhAYPcEXHaPet78smWKuLtgqjaGmbfJHeIZZ3vL7zHaMjiDdTNTA3K50GAzuXY+EH/x4oXH7VKLRTxaL628qCHmQe7F8LgDn8aG7Uv/5pvm7+9OXChfvW1cGkmd+bG9LyKp/sJPdY/u9BXncildCiHfZQ/dE8B272HEyBCAAAQgsGsCpMfj1WjW2AB++Yrk2DHRn78Q/tu/T//2b/wJtTd1jeB3v5/9r/8WH/xm4cwZxc2b6rhnuvx8U0ODlUp1cLgemYyw23cNZe8MjJR879QKM4UABCAAAQhAAAIQgAAEdlWAJEmH1a0UmfgM5XCTqCt3svrxaM7lzfUQTz/TW3qH0ZrGHqiZmaTKpHyD1eAkCXJXVuZ22JUzgsm+7v6SvLrHd7LPnYjd/8nyBimZh75r++EB52L1muG4KPr5ZEwzv56inBF6nOgnvis1xKAQgAAEILDtAq87gEskix3AKZSXHcBzFzuAX3/ZAXz/gdmP/8T/h99tKtr25+Lp3/xW+G//LvrzF5Jjx2WXrygfPNSkphrKy83tHbbhYZdQ6NXpSO/2Hs297bgBMwBS8oApBSYCAQhAAAIQgAAEIAABCASMAEmSNpNLLjTy6PKh+tmOLG7lw5Gsi/3LW4Rv+PpVIN6SyqZVCTm90oUpvVnrIHYpECdJ0m42Sacn2d0dvYVZNQ9/yow4ujwQX/4699vjHeGPpy7VrxmOSx/SDU0zLol5t8L9gHlMMBEIQAACENjzAqTb7VGpnXy+bXDQ3NqqLynRJCUr796TXrw4f+So6LPPhX/4V96WdwD/xUf83/1+9uM/ifcfWIg4Lb9+XR0bq8vJNdbVW/v6HGy2Wyr1WW278ldle76i77sApOTvK4fvQQACEIAABCAAAQhAAAJBIUASpEXvlE7rJ6kyeu1MWwan/N5wxrneDUPw5RdknOstvzfclsGh177eIW7R79oO8RcvXng9Hp1UIhymM+qr2lPjS29eSTm2f3kOvubr/MM/PD8VO32lac1wXBnHNHWK3XIr/p/2oHjwsQgIQAACQS5AEoTPaHTNzdnHxi3d3cbqam1WlurJU3lU9MIP4XNhYTP/7z/5/9/f+7One1PXTP/2b4T//h9vNoDff7C4AbysbHEDOGPYKRB4tVrS4wly/T24PKTke7BomDIEIAABCEAAAhCAAAQg8F4ChI8waRySKR2nV0qrEraksktvD6Wf2VwgnnWhr/LhSEc2d6hh8VBN+Yxxt3qIvzIgSdJq0C9Mslldbb2FWbU/3845933c/sVm4v78J+nwV82RD1n3q+dv9q4ZjquSxs0UiUeNlqbv9czhSxCAAAQgsNUCiwdg2u0emczB4VqpVFNjo76gQB0fr/jplvTsuflD387u2yf4p3/m/fJXm0q3N774o18Kfv+Pix3Avzn0pgN43ssO4P39Dg7HLZURNmwA3+p679T9kJLvlDTGgQAEIAABCEAAAhCAAAR2UMDnIQxKm5ijZXUv9JcLmpImim8OpkVQlm8A3/B1zhVq9ePRrtzJ4SYRn6FUikwOq3t3d1J73C7N/Bx/kDZYU9aaFFMcdTHpyNf+pOGvrkk5tr/0xuWO9ITRhlpxC0NVzJbfHVwjHI+iqtNYFqrUq0e38R18ajEUBCAAgZAXID0ej1rt5AtsQwxze7uhrEyTkqK8/0C2eADm8cUDMP/9P6b/5m83TrR/8dGmrpn+X38n/OMf5778i+TE97Ifr6oePdKmpxvKK8ydnfaREdfsrFevJ32+kK9PMAMgJQ/m6mJtEIAABCAAAQhAAAIQCAUBp82jnjcLR1XMdnFPEa8+bqwgaiDlVM+GIfjyC/Ku0mpjmN0FU6OtYuGoSj1vdtl3+a+hSZI0azXz7InxjuaevIzqBzezzhxbcbrmOvn4s4Of5V74oe7J3b7iXE5Pp3R60m42+VxeB1erK5+W3aKvEY5HUzXZHOug3Gd2h8KTgzVCAAIQgMCOCbzV/6Sn563+J+GnFvuf/OfH/L//h01F235d/KtfC/75X2b37Zv/9rD03HnFrdvq+Hh9QYGpqclKpTkmJz1yOeFw7JgDBgpYAaTkAVsaTAwCEIAABCAAAQhAAAIQeEvgVQNxGd8wNSAfrJ/tyOZWPRrJvrS5EzVTwnsKogbqn41RiqfHOuZnx9VaqcXt9L410m68cTsdKtEMj9Y7UFnSHP+48Nq5hMNfrhOCr/hR6vfflN+62pGeONJYMzPK0MulPu/rRZEk6VHaLP1STTZHeoO2Rjh+nabNn7SNKn22Xf7FwG7AY0wIQAACEPggAZIkfVabWyp1cDjW/n5TQ4MuP1/97O3+J//8L7xf/dqvUHsze8D5f/8PMx9/LA7bvxB+Sh4VrXryVJedbaypsfT02MfGXXNzPpOJJIgPWh6+HDICSMlDptRYKAQgAAEIQAACEIAABPaOgNfj0ytsYvbLfikVguZk1ns0EE891VN0g96YMN5Xyp94LpljafRym9e9+38uTRA+k1o5N8Eca214np1adS8649R3K1Lvdd7Gf/N5/uWIxtiH1LKCyb5uuWDaabWurq3P5rFPqPWVfPkDxhrJeCRVdnNAVzxln1ATAfBLgtXzxycQgAAEILDrAoTT6VEqnTyejU43Nbfoi4o1iUnKu3elFy/OHzkq+uxz4b/+2/Rvfrvl8ff03/yt8D/+KPriC8mx47LLV5QPHv71AMx22xBj8QBMjQYHYO764xFkE0BKHmQFxXIgAAEIQAACEIAABCCwlwRIknRaPao5s3BENdoq7i7k1cWO5UcOLO+F4s/rjHO95fcYrWlsWrWQ0yuVTOqMarvPFxDbxxxWi0LIn+zrppUXNsY9LLhyOv7Qn9cJwVf8KD38cOWdqK6sZGZLvWh8xKhUEMQ7g37SR7hEJlOHWJU8Lo2irh2O36Lry6cdXC0RAL8w2EsPK+YKAQhAIIgESI/Hq9E4BQIbY9jc3mEoL9empSkfPpT9eFVy4vu5L/8y88f/M/13/3vL42/eUv+TQ9++1f+ksXGx/wl30iOTEXacFx1Ej9reWQpS8r1TK8wUAhCAAAQgAAEIQAACe1mAIEizziGd1k9SZYN1s+2Z3MqHI1kXN90vJfdHas2T0a68lydqDikUM0abybW7J2q+KgtJkg6LWS6YnqJSBipLWhKflkRfTDm2f0Xqvc7bhG+/LLx6tin+8UBlMY9KUc4KXf4lBV6dwzoo1xZOrd1tPJIqjaKqksdNnWLXnIkMjF8e7OVnGXOHAAQgELgCpM/nNRhcIpGdybQ8f/6m/Xdk1MIP4dvY/vsXH/F/9/vZj/8k3n9g4VSEPPq66umq/idGI/qfBO6jE/IzQ0oe8o8AACAAAQhAAAIQgAAEILDVAh63Tye3zrE0E88l/WX8pqSJkltDaacp/uwKX7omNYJSdHOwMWG8t5Q/3ikRjWu0UmsgNBB/8eIFSZJ2s0ku4E319wxUFr8KxJOPha2TgK/+UWbE0ar7N7pz08bbm8TscbNWvansgHB5HZM6Q/2M4unImnvGpZFU+UOGvkpgZ6nRcHyrn3HcDwIQgMBOC7w5/XJ83NJDMdbU6nJy1DEx8uvXFyJOiw9+M/tf/y34/T/yPvrllm8A5//d/575v/9v7quvJSdPyq9dUz36WZueYaioNHd22kdGXDMzXp2O/OthGDvtgvEgsEUCSMm3CBK3gQAEIAABCEAAAhCAQOgJkARpNbjkQuP0kGK4SfQ8b6o2hpl3jbaUdPv5IvN8X/n94bYMDr1mhtsvW5jSmzQOIjC2PL8KxGV83mRf90BFUXPCk+KoC8lHNxeIJx35qjjqQkvi08Hqsml6v1os8jid7/G8kATpllrMFIk6gyWNXusczkiq9AZNk8Ox9Es9SlsgbLF/j2XiKxCAAARCSmDx9EuLxS2ROFgsS2+vsa5el5unjo1T3PxJevas+NCh2f/ZJ/inf+b98ldbHn9P//ZvhP/+H6I/fyE5dkx26bLy3n1Ncoq+pMTc2mobHHROT3tUKsLlCqlyYLEhK4CUPGRLj4VDAAIQgAAEIAABCEBgEwJuh1crtYjGl7aHv89xminhPXnXaLVPmc/zp0Za5vgMpVJkspvdARLmLgbiJqNseuplD/Gi5vjHRZHnk458vXob+DqfJB35ujjqQnPCk4GKosm+bhmfZzcZP3CBPrPLxlTpyqbl9wbftW1cGcc0NoucAgPpeWfX8k3UG5dCAAIQgMAHCyzG31abWyp1cDjW/n5TY6O+oEAdH6+4dVt67vz8t4dFn3wi+Jc/8H79my2Pv3m//o3gD38QffLp/LeHX7f/TkjQFxaampqWt//+wP95+mAh3AACASSAlDyAioGpQAACEIAABCAAAQhAYNcFfD7CpHEs/LV7eEc2t+rRSM5lqp+7wpcuSztNKf5psClpor+MP/FcIprQ6GRWjytQAlySJG1Gg3R6ktv7nFZe2BT/uOja+aQjX60Tf6/+UfLRsOKoi4uBeGXxZF+3XMCzm01blTiQHsIpNBhbRap45ruScdmdQV0pzzai9Bqx0W/X/+lgAhCAQAgJkCRJ2GxuqczB4VqpVFNTk76wUJ2QoLhzR3rh4vx3R0SffS7813+b/s1vtz7+/uWvBP/0z7P/s0986JD07FnFzZ/Ucc90efnG+npLb6+DxXJLJD6LZav+xyiEioqlhrwAUvKQfwQAAAEIQAACEIAABCAQkgKLR01a3ao5s3BUxWwXU4p4DfHjRTfoqRGb6x6eEt6Tc4Va9fNoZzZ3sH52iiZfmNabtQ6CIAPE9XUgzuNyKV3UsoKmZz8XXjuX+N0mA/FjYSXRF1sSnw5Ulkz198gF01sYiC9BkSTpUdstNJkmlyu7ObB2OB5NVaexzN0Sl8RMBgzy0hLwAgIQgMCeFng7/qbtaPz90S8Fv//H2f/6b/HBbxZOn5HfuKGOidHl5Bhrai09FPv4uFss9plMmzrBYk/XApOHwA4LICXfYXAMBwEIQAACEIAABCAAgZ0W8Hp8BqVNzNGyKVJatbA1jV1+bzjzQt/Svm8/X6Sf6S29PdSczOovF7zaHh44x2m+MvV5vUalQsweZ3W19ZfkNcU9Krx6NvHwX1ZvA1/nk5Rj+0uuX2pJfEqvKpmiUuSCaYfFvK2b8gi7x87W6KsFikfDayfjkVTF42FDndDB1RIO704/QBgPAhCAwN4XWDP+1iQm7sTu7198xP/d72c//pN4/4GF8FPyqGjVk6farCxjdbWlu9s+NuYSibwGA+kLlD+32vvVxgog8D4CSMnfRw3fgQAEIAABCEAAAhCAQAAKvD5Lc+avZ2nmL56lmb/5szRTwnvyIwdqYxa7hw83z/GHFPIZo83oCpydy4sb4S1m5Yxgmt7PqKvszEisuheddeZ43P5P14m/V/8o5fiB0uuXW5Ni6FUlPCpFIeQ7rJadqSzpI13zZlPXvDp1QhpFXTMcl90c0OZPWgdkHo19W2P6nVkyRoEABCCwHQJ/7f39qvnJ693fb+LvI0e3sfnJLz7i/8PvZv7z47mwsIUfwuWRUaqfH2szMg2VlebOTvvIiGtmxqvTkV78dnM7Ko97QmCLBZCSbzEobgcBCEAAAhCAAAQgAIHtFiBJ0mn1qOfNM0z1WOd8Xxm/Kek9z9LMvNBXfn+4NY1NqxZyeqXzXJ1BafMG0vGPPq/HoJCJJ5gTna19xbmNsQ8Lr53b7ImasWH7Uk4cLL1xuTU5ll5VyqP1KmZ2LhBf/jx4DU4rQ6ErmpLdpq+ZjEsjqaqEMVPbnHPWSHqJ5d/FawhAAAIhJbAYf1ssbonEwWZb+/pMDQ26/PzXR1+evzB/+DvRp58J//Cv29L725/4W6slPZ6QqggWC4HgFkBKHtz1xeogAAEIQAACEIAABPa2gNvh1UotogkNq3uBWiFoSWWX32O8R7OU1AhK0Q16Q/w4pYjHbBcLR1UqsdlhdQfODmWSJO1mk0LI5w30DdVWdKQnVN6Jyjx9dLPbw2P3f5IRcaTidmR7avxgdRlvoE85I3Barbv4HBAOr4OnMzbOKmNH35WMy+8P6Sv4tnG1z+LexaliaAhAAAI7IEAShM9odIvF9vFxC4VirK3T5eapY+MUN3+Snj07f+jb2X37BP/yB96vf7P1R1+uiL+vRa6x+xvx9w48BBgCAoEngJQ88GqCGUEAAhCAAAQgAAEIhJ6Ax+3Tyxdbh3N6pQPVwvYMTuXDkexL/X52DF9+Wc5latWjkY6XZ2lOUmWvz9L0BdCuZK/Ho5dL58ZHxzuaewuzG2LuF/54ZrPHacaG7Uv87qvCH880xNzvLcwe72ieGx/Vy6Ved0CkzD6Ty85SGxpmVPFj72qoIr1O02Syzb0Lbrk1cLrZhN4/PqwYAhDYMgHS5/MaDC6RyD42ZunuNtbU6LKz1TEx8uvXF06fER/8Zva//0fwj//E++Wvdi7+rljW/ATx95aVGjeCQBAKICUPwqJiSRCAAAQgAAEIQAACASvg8xBGlV0ypZukygbrZjuzudWPR3N/pC6Puf18nXG+r+wuoyWF1V/x8izNcY1WanEH0tGOJEnajAa5gMejUgZrytpT4ytuR2ZEHInd/8nqFuHrfbL/k8zTRyvvRHWkJwzVVvAG+hRCvt1sCpyN8C9evCBJ0qO2W4cV+gq+4snIu/aMSyOpyphRY+OsY1pPuHBQW8D+S8XEIACBtwRIt9ur0TgFAtvwsLmz01BRqc3IVD1+Io+KXgg/Jd5/YPbjPwl+93veR7/c+vj7o18Kfvf72T/91+LRl6ciXh99mZllqKoyd3XZR0fR+/utUuENBCDwvgJIyd9XDt+DAAQgAAEIQAACEIDAuwUIH2HWOqR8A48uZzSKuvImFw/SjBxIOdXjZwi+dFn6md6SW0NNSRO9pfyxjvnXzVIsAdQs5cWLFy67TS0WzYwMjbU1Ugqy6p/eK7hyOuHwl+tl32H7Vv806chXhdfONcY+7CvOnehsFU8wDQqZzxugjV9JH+FesFioUm3hlPze4DrJuPzuoLZoyspQePXOdz81+AkEIACBnRYgHA6PQuGcmrL9/+zdB1dU1xoG4J8TU4yJSYzp18SYxBI7FlRAREQUEAUBERRBlN577733zjADA0NnmN57d3cyowAAIABJREFU773lrgGNJrGgMoDw3ZVlYOZwynP2cd287Hk3CqVsb5eWlYnS0viRUZybt5jul2jHT5B/2UvY+cXqZ98fbMN9+BHxm28pf+ynn3VmXfXm3rkjjI2V5OXJ6+pU/f3aqSkDlWaWyWwW+IXiWo8KOB4IbE0BSMm35n2HqwYBEAABEAABEAABEFgdAZvVppYZuGQ5Ac2faKP1FeMaE6aKQ1DpXgN/x9wr/CLjuepwTDudOM7nURQahWHjdHEsrRqqFtAopHHUZFvjQGF2Y8yD4oBrqW5O/827X/1K/KlDOd4XayKCu7OS0Q3VeNQwn0zUqZQbanr4C4eI1WjRk+XKXoYod55zF/mKZJz3aFxaRVCjeSahduNf1wsvFl4EARB4TwWerHvJYtnXvRweVjQ3S4uKhElJvHv32L5+DBdX6uEjpJ/+h/90h0Pi748/IX73PfXgQYbzOfa167zQu8L4BEl+gbyhUTUwoJuZMdLpFoXCZt1AVWDv6Y2G0wYBEFhFAUjJVxETdgUCIAACIAACIAACILBpBaxWm0qq55LsaTimnTZQgmtKnC69O5rh/cZpePqV/qJgZEPcVF/h4ngLFT/K45JkKqnearVtED6bzaZTKQVUMhGNxLTU9xdkNTy+X3TLO8XlxKuz7xe+m+rqVHLbpyX+4XBZwWxPB31uWs7nWczmDXKxKzkNi8akw4rlbVRB2gw7eOSlyXgQQpA4KWska2eEZoVhJXuGbUAABEDgjQT+Ufzd3y+vq5fk5Qvj4nihoexr1+jOzg5d9xK//VPSjz9R/zzMuODC9vXjhYcLExOlRUWKpib10JBubs7IYllUKvi94BvdU9gYBEBggwhASr5BbgScBgiAAAiAAAiAAAiAwIYQsDxrSuGNt1D7ihYb46dK7qAy3nxueJpnf0HgSN3jye487FgTZXGEy8JLFSKdxbxRZs/ZbDatQs4nEwmjIxPNdb15GQ2P7hX6eyWfP/7CvPvVLyY6H8n386yNDO3JTh1vqiWMjgioZL1avSHu6xuehM1mM0v1mimBrJ7Ej8e8NBa/jWCHjAgzZhUdNB1OYtVu0GaYN7x62BwEQGAdBKx6vYnP1+PxmrExZWenrLJSnJEhePiQGxjIvHyZ5uRE3reP4KDi7w+2ET7fSf75F9qx48yL7pybt/gPIkWpadKyMkVbmxqJ1GGxJi7XqoWPxazDwIBDggAIrJkApORrRg0HAgEQAAEQAAEQAAEQ2EACy6toshaliyPcsSbKcm94URAy/c17w9M8+/NuImoeTnTlLKDqyQvDHAZWIuNrzMaNUqX6dBVNPB41PN5U25ubVv8wrODGlaRzb9wbHud0IOncsYIbV+ofhvXmpo831eJRwzwSQSOXve+fnbdZbSa+Rj3KlVTgeQ/Rr0jGOWEoUf6Csp9poMptpo1ylzfQ0wWnAgIg8FTA3nyiVBqZTN3srHpoSNHU9Kz5xM+P4fq0+WTHZw5pPtn2IWHX15R9v9GdTrEue3JvBwmiH4kzs2RV1cqubg16XE8gmoRCq9H49Hzh3yAAAiCwdQUgJd+69x6uHARAAARAAARAAAS2goDJaJHyNIwFycIwZ7SB3J27UPsIUxA4ssKu8H9tln/LnoZ3Zi8g68jzg2z6nFjCURv1G6U8xGa1qqUSDgGHQw6hG6p7slNrI0Pz/TyTnI++ehr4C99NPn+80N+r4dG9vvyMiZZ6wugIn0zUKhWb6aP0NrPVQFcoB1niQiwn/JXLbz4Yk5ThVEiOkaO2WTZKN85WeIThGkFgYwrYTCazSGQgkbQTE8qeHllNjTgnRxATww0OYXldpZ85S/ljP/Gbb3EffeyQ+PvjT4jffkc5cIDu7Mzy9uaFhgrj4pbWvax/uu4lFda93JgjB84KBEBgwwpASr5hbw2cGAiAAAiAAAiAAAiAwBsIGHVmMVtNmxPPDbCQtaTOrPmahxP5txD/irlX+G2hvSkF052HHW2g/D033LRh5oab9HoJh0Wfm57v70ZWl3VmJNZEhOT7eiSePfzCvPvVL6a4nCi+5d3w+H5/QRamtYGERgmo5PdiIc03GB/PbWrVm/UEqaKLLsyaZd951fKb/FiMtIaowfDNYt1m+t3AcxjwJQiAwD8E7FO/1Wojm62bX1AjRhQtrdKSUlFKKj/iAefmLab7JdrxE+Rf9hJ2fuGQ7PuDbfjPd5L27KEePcp0c+PcuMG/f1+UnCwtLlG0tKgRCN38PBR//+OGwTcgAAIgsHoCkJKvniXsCQRAAARAAARAAARAwMECNptNrzaJmCrqtGiml4moJrZnzFVFjufeGF5h/P38ZsuraNbHTvYWLKKbqYtILgsnlQu1FtOG6A23WixKsYiDX8Qjh8abavvyMxpjIooDr6ddPP3q1Ptl76a6ORUHXm+KfTBQmD3Z1kSaGBXSqXq1eivkvxaVUTsnkjdTBMlT7CDES9tUghCClGl5C0U7L7KooILAwc8z7B4E1lDAZjS+eOp3SAjrqvezRS8/2e6Q+Hvbh8S/m088rzxrPqmsUnZ2acbQegLBJBBaDbDq7xqOCTgUCIAACPxTAFLyf3rAdyAAAiAAAiAAAiAAAhtAYHkJTS5JRhjjYdrpA6X4luSZ8vCxLJ+h52PuFX6d4TVQcgfVmDDVV4wbb6XhR3kcgkwp1lks65+G22w2nUoppFPJGPR0Z8twWUFr0uOKuwHZXq7xpw+9LO9+9etp7mdKbvs0x0UNFudOdTSTMWgRg2bQajbAjV27U1guGddM8KU1RF7MxEtj8dsI9h2kMGtO0U3XE2XWDVOes3ZScCQQeJ8F7FO/VSoji6Wbn1cjEIqWFmlxiSg5hX8/gnPDn+l2kXbsOPnnXxw49Xv7p6QffqQe+pNx/gL7ug/vbpgwPkGSXyBvaFQNDGinpw00GjSfvM9DDM4dBEBgCwlASr6FbjZcKgiAAAiAAAiAAAhsNAGDzizhqOnz4vlBtr00PA9b93jyrZfQzPQeLAsba06aHijFY9rpBDSfS5arZXqrdf1bpE1Gg5TLYczNLAz0oGrKuzKTnzSGn3+b9TPjnA7Enz6U4+1WGRbYlhyDKC+c6WqjTI6LmXSjTrvR7vLanI89FhdptdNCeQtFmDHLCX1VlQrn3qi4EKsaYhkYSpt5/X9ZsjZEcBQQeI8ErEajSSDUE4ia8XFld7esulqcnSN4/M/W72+/w338iUOmfn+wjfDVLvKv+2gnnZiXPDi3AviRUaK0NGlZmaKtTY1E6rBYE4dj1Wq3wmdx3qNhA6cKAiAAAu8iACn5u+jBz4IACIAACIAACIAACLxewGq1qWV6HkVBmhBMdTGGKghtabOVEegcv7epSUnz7M+6Plh+D92SMjtUTpjqYpAwAj5VoVEYbOudhlutFpVUzCXi8KjhiZb6/oKsptgHJbd90t3PvHr29yveTV+aGN4U+6C/IGtpCU0El4hTScVWq+X19Jt6C5vNZpbotLMieTtVlD3HCUO9asL4bQTvIVpSgVePcU18zboPlU19Z+DiQOClAjaLxSyTGag07fS0amBA3tAoKSwUJibywsPZvn4MV1fqkaOk/+3Bf/a5g7Jv/L+mfofeFcbFS/Ly5XXPLXopldrMG2VN5pdSwhsgAAIgAAKrLQAp+WqLwv5AAARAAARAAARAYKsKmAwWGV/DxEqwCM5YE6W3YLEhbqo4BJXhNbDCapR/bVYQMFITjenMnkfWkmb7WdQZkYip0qtN6zt3z2a1auQyAZVMnhib6WpDlBe2JcdUhgXkeLslnPnzFXn3K95KOn8s38+zNjK0KzMZVVO+MNDDmJ+Rcjkmg36rjqYXXLc9FpfrdQtiRSddlDfPuTf66licHYwQJE7K6kmaaaFZBpIvIIWXQGBVBJ6ueMnRLWDVI0hFa5u0rEyUlsaPjOIEBDA9PGgnnci/7iPs+hq37UOHxN/bPiTs+pq8bx/NyYl5+TI3MFDw8KEoPV1aXq5sb9egUPrFRROXC1O/V+V2w05AAARAYLMKQEq+We8sXBcIgAAIgAAIgAAIOETAZrNplUYBXUmeFP69fmZ11ESeP+JfGfcKv83wHigNHW1KnF4uDcehuCy8fQlNs2k950pbzCalSMjBLxJGEZjWhsHi3JbERxWht5ai8MOvyLtf8Vb8qUPZXq4VdwNakx4PlxVMd7aQMWghnapTKdc393fIQFmlnVqURt2iRNHDEBcscB+MvSYWD0Lw4zHSKoIKyTEwlFbjeg6hVQKA3YDAego8qz1B/7P2ZHnFy7POlAMHiN99j3PQipcfbMPv+Iz040/UPw8zLriwfXx5YeHChER763d9g6p/QDs1baBC6/d6jhA4NgiAAAhsJgFIyTfT3YRrAQEQAAEQAAEQAIFVEzDqzVKehrkoWRzholuofcW4psTp0rujmd6DK4y//7VZnj+iKnK8PWMOUUWc7mGSJ4UCmlKrNK5j94VJr5dy2cyFWexQH7qhujcvozEmojTIN8PDOe7UwVfk3a9+K+3i6eLA640xEX35GeNNtTjkEAe/qBSLrBYIbV8/Pi1qo54gVfYxxcWLvCj0a2Lx2wh+zISkAq9CsA1UhdUAJQmvF4YtQMBmMpnFYgOFop2cVPX3y+vqJfkFwvgEXlg428eX4eJKPXzEobUnuI8+Jn7zLeWP/fQzZ1lXvLhBwYJHj8VZ2bLKKmVnl2YMrScQTHy+VQ8fAYHRCgIgAAIgsHYCkJKvnTUcCQRAAARAAARAAAQ2moDFbFWIdByijIDmYzrog+WEVntj+HjujbdsDM/wGigOQTXETfUUYMeaKFgEh4mVSHkao3594kubzaZTKUUMGnV6Yq6vE1ld1pWZVBd1t9DfK9XN6dVh96vfTb5wosDPs+bBnc70RGR12Xx/N31uWsJhmSDWecNRbtWZ9WSZcpAlKV3kRY+/NhbnPRqXlOGUgyw9WWbVmt7waLA5CGxagSeV37Slyu/BQXljo7SoSJiUxL9/n3PjBtPtIu3oMfLPvxB2fuGQzpMPtuE+2Eb48ivy3l9pJ04y3S9xbt7iP4gUpaZJS0oVLa1qxIhuft7IYllUKvj0zKYdhXBhIAACIPA+C0BK/j7fPTh3EAABEAABEAABEFiBgM1q08gNfJpiuSNlpJrUkTVf83CiIGAk7Ur/v2Z8r/DbbN+hivvo1rQn62cSJ/g8slwt01vXY/1Mq9Wilkp4ZAJpHDXV0TJcVtCeElt173aez6Uk56OvDrtf/W66+5niwOsNj+715KSO1VUuDPTYo3A2y6DVrgAeNnmxgNVgNlAVqmG2pALPj5l4fSwehRYXLyr7mHqC1KI2vnin8CoIbFIBm9VqUSqNTKZufl6NQChaWqUlpaLUNP6DSM6tAOYlx1d+L9ee/PS/f9SexCc8V3syZaBSzbDi5SYdgXBZIAACILB1BCAl3zr3Gq4UBEAABEAABEBgMwvYbDa92iRiqWhz4vlB9mgDuTsPWx87WRz89otn2ieGB6PqYye787CjDeT5QTZ9Tixmqw26dZgYbtRpl9pR5nCIgYnmuoHC7Ob4qPI7/lleLvGnD7067H7Fu/GnD2V5uZTf8W+OjxoozJ5orsMhh9i4BbmAbzZCILs6j4zVaDEwlCokR1pF4Mdj2EGIVyfj3IgxccGCooehw0ksSrgLq3MXYC8bSsC+3KVKZWSznyx32dYmLS8XpacLHj7kBt5mXfaknzpN+e134u5vcB9+5Kip359sJ37/PeXAAbqzM+uqNzckRPA4RpydI6uuVnZ1a9DjUHuyocYMnAwIgAAIgICjBSAld7Qw7B8EQAAEQAAEQAAEVlPAZLDI+Et14Uju+NO68LKwsazrb1kXnubZXxAwUvNwoiNrfqSaNNNrbwznUxUauWGNJ4Yb9ToZj8NanMchhzAt9YMleW3JMVX3buf7eiSfP/6KpPu1byU5H83zuVR173Z7SuxwWcFURwtpHMUjE9RSidUKXeGrOT6X92UzW40slXqMK60lChKn2MGvi8Xvj4ry5hVddN2C2Cw3QBvD6t8S2OOaCLwm+/a8Ys++f/+D+M23uI8+dlT2vVz5/fsf9NNnWJ5XuLeDBA+jxZmZsooKZUeHBoXSLy6aOByrRgMP2poMCjgICIAACIDAeyMAKfl7c6vgREEABEAABEAABLaOgNlkUYi0y3Xhk530oXJC27vVhad59ufeGK6MGG9Nmx0sJ2A66AQ0n0OUKUQ6i8m6ZrAmg17G57JxC3jU8GRb41BpfntKbPX94Hw/zxSXE68Nu1+9QaqrU6G/V13U3a7MJGR12VxfJ3V6QsSg6VRKCIMceottNptZbtDhpcpBlrQSb4/FQ0ZePVucE4YSZc/J22naOZFZooMb5NAbBDt/R4EXZt/ijIwn877XJvve9iFx19fkfftoTk5MDw9OQAA/MkqUliYtLVO0ti1Vfi9A5fc73mj4cRAAARAAgS0uACn5Fh8AcPkgAAIgAAIgAALrJmAyWuQCLRsvxY/xMB1PovCqyPG8m4gVloP/d7Osa4NlYWNNidN9xTh0C3VxhMtcXNPFM01Gg1zAZ+OxhNGRqfYme0V4alxNREjBjSupru+0Wmac0wF7O8qVC2XBfo0xEb15GeiGauxQH3NhVsplG/W6dbuRW+/AVp3ZQFOoR7myBpIwY5YTjnp1Js6+jeCEIoWZs/IWinZGaBJpbevRX7/1bhRc8asEXp99nz7j8HnfH2wjfLXr2XKX/jf5EQ9EycnS4mJFc7N6aEg3O2uk0y1yuc0Cn3p51d2E90AABEAABEDg3QUgJX93Q9gDCIAACIAACIAACLxUwKg3y/gaFk6KQ/Em2mgDZfjW1NnKiPFc/+H/ZtwrfCX9P3XhtFmRiKnSq01rMCfXbDIphAIOAUdEI6c6WhDlhR1p8TUP7hT6e6W5nXr1dO/Xvht/6lCW5/nSIN+Gx/d7clJHayvm+rqoUxMCGkUjl0E7ykvHmSPfsNencNWaaaG8gyYuWOA9RL82E7dvcGdEmDYjayJrJgUmgQZicUfeItj3MwGbxWKWyYx0um52Vj08rGhpebLWZWQUJyCAefky3enUk75vx3WevDj7TrFn301N9ux7ZsZAo5llMsi+n905+AoEQAAEQAAE1lsAUvL1vgNwfBAAARAAARAAgfdfwKgzS7hqJlayiOSOt9IGSnAtKTMV99E5fm8fhadd6S8IHKmJxnRkzSOqidM9T+rC1TLH1oXbbDadWiVhM5kLs7iRQUxrw1BpfkdqXG1kaNHNq2nuZ16bdL9mg1MHMy+fK7nt0/DoXnd2CqqmbK63kzI5LqCS1TIp5ODr/jTYrDazRKfDSpR9TEk5zr7Y5utaxZdDc95DtLhgQd5B00wLjVy1zbJ2TT7rjgYn4GgBm8lklkgMVKp2alo1MCBvbJQWFYmSk/n3Izj+N5nul2gnTpJ/3Uf4apejyr4/2Ib7b/Z9P0KUDNm3o28+7B8EQAAEQAAE1kgAUvI1gobDgAAIgAAIgAAIvNcCNptNrzFJOGrGggSL4KCXls1sTpouDx/L9h1a4Rzw/26WfqW/KAhZ+wjTmT0/UmNfOZOEEfAoCpVUb3FYyGgyGhRCPpeII42jZrrbkdVlPdmpjTERZSE3sr1cE88efk3M7XTgNRucOpjh4VwceL0+Orw7KxlZXTrb007GoPkUkkoqtkJvwAZ7Eixqo54sVyE5sjqSMG2Gcxe5kqninHCUMHNW1khWj3ENdIVVa9pglwWn8x4IWI1Gk1BoIJG0GIyqr09eVy/JLxAmJPLCw9l+fgxXV+rRo+Q9PxN2fuHA7Hvbh4RdX5N/3Uc7foLpfonjf5P/XPatGhyEed/vwUiCUwQBEAABEACB1RCAlHw1FGEfIAACIAACIAACm0LAZrVplUYRU0WfEy8Mc8aaKH2Fi02J02VhY1k+bx+FZ3gNFAUj62Mmu3IXkLWk2T4WeVLIpynss8IdEIVbLRa1TCqgUWjTmIWBHnRDdX9hVkvio6rw2/m+l1NcTr4m435tCL60Qfqls8W3vOsehtmXyqwqmelqI02M8sgElURsMZs3xXDYnBdhNVqMbJUGw5e3UkW589wHYyvJxNkhI4KkKWklXjnI0uGlZrlhDbp9NucN2OxXZS/7VmtMHI5+cVEzOqrs7JRVVomzsgUxMdw7d9jXrjHOnace+pP040/4zz53YPb94UfE3d9Qfvud7nSKefnyk7UuU9OkJaWKlhb18PBy3zd0nmz28QjXBwIgAAIgAAJvIAAp+RtgwaYgAAIgAAIgAAKbQMBssihEOi5JTpoQTPcwR6pJndkLdY8ni4NRGVcH/jvde4WvZFwdKLmDqo+d7M7DourIcwMs6rRIQFdqFKtckLI0q10t4bBY2Dk8cmiyrWm4vLAzPaEu6m7xLe8MD+e4UwffPQdPOHM428t1eZ3MnuxUZHXZTHc7CY3iEvFKsdBihonD78ejYLPaTCKtdl6k6GFIShb5sRh2EGIlsTjv8YS4CKvoomtnRfZWcQf8Ouf9EISzXBKwmc1mmcxAo/237JsbGMi67Ek/dfrJQpcff+LA7PuT7cTvvqfsP0A/c5Z1xYt7O0jwMFqckSEtL1e0talHkLr5BSObbVGpbFYo/IGxCwIgAAIgAAIg8GYCkJK/mRdsDQIgAAIgAAIgsPEF7Dmy2iRmq+jzYiyCM95CXSoKt6+ZmeePWGHq/cLNMr0HS0JHG+Onegqwow2U+UE2dUYkZCi1SuNqLU5os9kMWo2Mx2HjsSS0vREFVVPWk5PaGPOgPMQ/x9st0fnIu4fgcU4H0i+dLbrlXRsZ2pEaN1Saj2ltwI0MMhdmJWymTq2CmcIbf5z/9wzt03iVRj1RphpmS6sJgpRp9p0V1adwI0ZF2XPyZop6nGdgKq0G+DTAf3U34StWg8EkEOqJRO3EhKq391+FJ0w3N9qx4+Rf9hK+/MqBwfcH2/DbPyX98CP14CGG8zmWtzc3JETwOEacnSOrqlZ2dmnGxvQ4nInLtWo08PfSJhyFcEkgAAIgAAIgsGEEICXfMLcCTgQEQAAEQAAEQOBNBCxmq1Ks45HlJIxgppeJrCV15y7Ux06W3EFleg++MONe4YtZPkNlYWONCVO9hYtjjZSFYQ59TixiqXRq47tnNFaLRSOXCelU+tz0ImIA09qwNBM8sT46vDTI114LvkoheIrLiXxfj8qwwJaE6P6CLHRD9fxAN3V6wr5IplQCpShvMtY26LY2i9Uk0uoWJaphtr1SPHOWe390JfPE2XeQgpRpaQ1RhWDrSTKLahUG9gY12nqnZbNaLQqFkcnUzS+oR5DK9nZZRYU4M1Pw6DE3OIR11ZvhfI568JC98GTHZw7NvglffEn++Rfa0WNMNze2rx8vLFwYnyDJy5fX1al6ezXj43oC0SQQWHW6rXeX4IpBAARAAARAAAQ2ogCk5BvxrsA5gQAIgAAIgAAI/PXXX38vmMnEShaR3Ik22mAZvi1ttipyPP/WO00JT7vSnx8wUh010ZY+N1hOwLTTcSgea1Eq5WoMOvO7ROEmvV4u4HOJeDIGPdfXOVZf1V+Q1Zr4qPpeUKG/V7r7mVWpQ4lzOpBw5s8sL5fSIL+GR/fsK2RWlUx3tRLRSA4BJxfwTXo9DKHNJGCfJK4yGqgK9ThP3kYVF2Lt3SnBIyvKxIMQ/FiMpHRR2cvQLYhNYt1qfe5hMwlv8Gux6vXPJn0vr3JZUChMTOTdu8e54c+86E47foL86z7Crq9x2z50YPb90ccvKPtOSZUWlyiam9VDQ08WupRKbSYoZdrgYwpODwRAAARAAARA4N8CkJL/WwS+BwEQAAEQAAEQWEsBi2lpSjhFQZ4UzvaxUHXk7jxsQ9xUaeho1rV3mhKeec3ejtIQN7VcFP5kzUyqQiXVW96qZNlmtWqVCjGLwVywF4JPdTSPVBZ3ZyU3xkSUh/jnXruYdP7YqnShxDkdiD99KPPyueKlRpT2lFh7I0pLPQ4xwJifEbMYOpUSWnfXcpSu8bHsC2xy1do5kbKPKa3EC1KnOWGoFQXit+2d49zIMVHevLyVqsEIjGyVzWRZ4/OHw61EwGaxWORyI4Ohm59XI0YUbW3S8nJxRoYg+hE3KJjldZXu7Ew9eJD0w4/4T3c4MPj+YBt+x2ekH3+iHvrzH4UnWdmyyiplR4cGhdJhsUY2x6JWv8tvEFdiAtuAAAiAAAiAAAiAwDoKQEq+jvhwaBAAARAAARDYEgIWi1Ut0wtoSuqMaH6QPdZE6SvGtSTPVEag37ElPM2zP+8moipyvDVtdqAMP9FGW0RyGViJhKPWa0xvFOgstYFr5Xwel4inTKLnB7rHm2oHi3PaU2JrHtxZXhUz/vSh1QrBk88fz712sfyOf2NMRHd2ykhlyVRHMx41zFyYk7CZWqUCQvAt8Wz89ZfNajNL9fYmcSRH1kgW5c7zHo6vPBBnByF4MRPiggV5K1U9xtNT5BYNzOFdt7Fjs9msGo2Jx9Pj8Rr0uLK7W15bK8nLF8Yn8MLDOTduMN0u2id97/2V8NUux0763vYhYdfX5F/30Y6fYF5059zw5927J0xMlOQXyOvqVX192okJPZFoEgit8LmTdRsvcGAQAAEQAAEQAIGNJQAp+ca6H3A2IAACIAACIPA+ClitNo3CIGQoaXPihWEOemm1zNbUpWqUgJG0K/0rLAR/4WYZ3gMld1D1sZNduQsjtaSZXiYJI+CS5UqxzmKyroTLZrXqVEoJh8XGLZDGUXO99iKUgcLstuSY2sjQ4sDrWVcuJJ49vFoJeNypg+nuZwr9varvB7cmPuovzBqrr5rr6yJj0FwiXiGEOpSV3LTNuY1VazIwlZpJgaKTLild5CdMsu+srDVleZJ4xKgwY1ZaS1QOsnRYsUmotZlX9AhsTs21uir7EpdCoYFM1k5OqvoH5I2N0qKBpqrvAAAgAElEQVQiUXIKP+IB51YA8/JlutMpyu9/EL/9DvfxJw6f9P33KpdXvbnBIYLoR+LMTFlFhaKtTT2C1M0vGJlMiwJ+zbZWgwOOAwIgAAIgAAIgsIkEICXfRDcTLgUEQAAEQAAEHCZgs9p0KqOYrWIsPK0ILye0pc/VPJwoDBxJf7ccPM2zP/8WovLBeEvKTH8JDt1CxSI49PkVLZi5vBimmElnLswRRhHTXa2omrLevIyWhOjlKvAMD+dVnAMe53Qg8ezhbC/X0iC/+ujwzvTE4fJCTGsDDjFAn5sWMWgaucxqgYILhw3E92fHNrPVJNTqsGLlIEtaSxRmzHIjVra05lIgzr4zwk+YlJQsKjrpmkmBgam0amGS+KrdfpvZbJZKDTSabnZWPTysaGmVlpWJ0tMFD6P/3Xbi4CUucds+JO76mrxvH+3ESab7Jc4Nf/79+8KkJElBoby+QdXfr8VgDCQSTPpetXsPOwIBEAABEAABEACBlwhASv4SGHgZBEAABEAABLaYwJOlMrlq1qIUP8qb7KQPVxI7suZrH2GKgpEZVwdeONF75S/m3hiuuI9uTpruK1wcbaTMDbAp00L+ckv4S+bDmk0mlUQsoFHos1M4xMBkW5O9Bzw7pSn2QcXdgHzfy2lup1ZtArjTAfuuTh1Mcz9T4OdZGRbYHB/Vm5eBqimf6W4noVFsPFbG4xi0mjcqctlig2iLXq59aU2lQU+Rq8d48laquGCBFzPBDrJXhK/wH97DcVHuvKyRrEJy9ESZWaqHBTbfdDA9qflmMnXzC2okUtnRIausFGdlC2JieKGh7Os+jAsu1CNHyXt+Juz8wqEzvnEfbMN/vpP0vz3UPw8zzl9gX7vGDQkRPI4RZ2bJKiuV7e1q5NKkbxbLooQFBt70PsP2IAACIAACIAACIOAoAUjJHSUL+wUBEAABEACBjSbwdD64momV4FBLOXgVsTN7vj5msuQOKvPdlspM8+zP9h0qCxtrTJjqycei6sizfazlahSFSGc2/mN6tdVi0SrkEvZSBcrE6Fxf13hT7VBpfmd6YsOje/aVMK+7p7icWN0EPOHMn5mXzxXd8q6JsBeh9OVnjtZWzHS3E8dGWIvz9jZwhdxq/cd5brQ7COez7gL2GeIirZ4gVY9x5e1USemiIHmKc/cNltbkhKEEqdPSSryyj6mdExm5aus/n451v8aNcwIvCr6rxNk5wthYXuhdto8vw8WVevQo+edfCF9+5dia7w+24bd/Svz+e8qBA/QzZ1meV7iBt/lRUaK0NGlJqaK5WT00pJ2eNlCpZonEZjRuHEM4ExAAARAAARAAARAAgRUKQEq+QijYDARAAARAAATeAwGL2aqSPlknc2GYM95CHSjDP+lFuY3M8HrX+eBZ1wZLQ0cb4qa6lyrCp3uYxAk+hyiTC7RGvfmvv/6ymM0auUzMYrAW50loewM4uqF6sDi3Iy1+Of7O87mU6ua0uvF3nNOBJOej2V6uJbd96qLutqfGDRbnoBuq7VXgE2Mc/KKUy9Gr1TAH/D0YwRvmFG1Wm0VhMNAVmkmBspchrSYIM2d5Ueg3miHODkbwYzHiQqy8jaoe5xmocovKuMXHoc1qtSgURhZLt4DVoFDKzk5ZVfU/gm9XV9rRY+Rf9jp8fcsPtuE++pi4+xvKvt9oTk7MSx4c/5v8+xH2tpPCpbaTvj4tBrO0xKUAlrjcMI8mnAgIgAAIgAAIgAAIOEoAUnJHycJ+QQAEQAAEQMARAka9WS7QcklyEkYw28cabSD3Fi42J01X3Efn3USsvP/kZVtmeA8Uh6DqHk92Zs8jqohTXQzCGI+Fl4pYcglXKKRTl+q/R2Z72sfqKgeKctpT4+ofhpUF+y3N/j656vF3nNOBFJcTudfdy0P8Gx7d68xIHC4rmGipXxjspU5N8MgEhZBv1Ou2ePLoiJG2dfZp1ZmNHLVuQawaZssayaL8BX4c5o0W1VyuVeE+GBNmzsrqSKphtm5RYhJpbZYtsbTmsxnfzwffOTnCuDje3TC2rx/TzY127PgaBd/bPiTs+pq891faseNMNze2rx/vbpgwLl6SmyurrlZ2dWvGxvQ4nInDscBvzrbOQw5XCgIgAAIgAAIgAAIrEICUfAVIsAkIgAAIgAAIrJWAvRxcbZJwlsrBx3hTXYyRalJX7kJD3FTp3dFsn6GXpdsrfz3r2mDJnaUcPGt+uJKIbiFOdWHn+qbmB0bn+wemu1pHayv6C7PakmPqou6WBvnmeF9MvrDK5SfLYXri2cOZnueLbnlX3w9uiX/Ym5s2Ulky2dZkXwlzdkpAo6gkYjN0F6zV2Nv0x7GXpYh1eqLM3h7eTpOU4QQp05x7b7Ki5nLPeBCC92hclD0nrSUq+5naGaGRpbLq7J+l2DT/s5lMTxa3nJtTI0YUbW2yigpxZpbgcQz3zh32tetrWXWC2/Yh4atd5F/20o4eey74jhPn5MiqqpWdnRoUSreANULN96YZf3AhIAACIAACIAACILAeApCSr4c6HBMEQAAEQGALC1jMVrVML2Qo6XNiLIIz0UYbLCe0Z8zVRC8tkun9rqUoaZ79OX5DpXeHa6MHmxN72jM6urKbenKrenKKu7OyOtISm2Ijq8JvF928muV5Psn5qCNmfyc5H83ycikOuFYTEdKS+Kg3LwNZXTrV0WyPv2cm+RSSQigw6rQwAXwLPwcOvHR7WYpyqSxl6mlZStYs7+EblqUsBeLciFFB2oykHKfopKvHeXqSzCzRvaczxK1Go1kkMlAo2ulp9dCQoqVFWlomSk8XPIzmBgWzvL0Z585T/zxM+t8ewuc7Hb245fPBN8PVle3jywu9K4yNFWf/J/hWKGzWLTEl34GPBOwaBEAABEAABEDgfROw2qxGi1Fr0ioMCrFOzNfwWSoWVUElyohYCXZWNIvhY8Z4Ywg2YoA50E3vbqO2NZGbaom1lfjKksWSgoWC7Lns9Jn0pKmkOExc9Hj0g7EHYaiwkJGQgKGAG4M3rvVd8+z1dO9yv9Bx4Wzb2ZMtJ480HTnYcPC3ut/6GH3vm9aqnS+k5KtGCTsCARAAARAAgb/++stqtWmVRjFbzVyU4Jcng9eSuvOwjQnT5ffQef5vX4qSerkv9XJnqkdj6qXK7GulBbcKS4Jzyu+mVYTHV4ZFld0JLQ70z/e9knn5XKLzEUdk3/b67/PHsq+6lgT61EaGtiXH9OVnomrKpztb8Mgh+ty0gEZRioUmgx5GAgisjYBVbzZyn5alNJHFBW9ZlsIJRfLjJ+0F4s0U1QhHh5UYeRqrYUNPD7fZbFat1sTn64lELQaj6u+XNzZKi4tFKan8yChuYCDrihf9rDP14EHSDz/id3y21sH3dZ9nwXdllbKjQ41E6uYXjEymRS63WWCZ3LV5ROAoIAACIAACIAACKxWw2Wxmq1lv1quMKpleJtQKuWouQ8mgyCl4KX5BvDAtnJ7gT6A4qGH2cB+jr5Pe2UJpaSA1VBOqy3HlRdiivPm8zNnM1OnUhMmEmImYKHTU/dH7ocjQIETQzaGbvgO+V/uuXu657Nbldr7j/OnW08ebjx9uPLy/fv++2n17qvf8UPnD7vLdX5Z+uaN4xydFn6zXP43kxpWSbbrtICXfdLcULggEQAAEQMCRAvZGFI1JytOwCTLSxJNm8L7CxZbkmarI8YKAkfQr/SsvP0nz7H+SfV9qTHGvTL5YmOyWkeSakOwane4Rkel1J+vqrSyvaxke7qmuZxLOHHZQ9r3c/Z3jfbE0yM+++mVKbH9h1mhdxUxXG2EUwZifEdKpKonYZDQ4khb2DQIvFrBZbGa53kBXaGeFqiG2vJkiLl4UpExz779VWUr007KUPntZioGh3Dgraj4r+J5feLKyZXW1JDdXGBfPCw/n3LjBdL9EO+lE+e134jff4j7Z7vDg+6OPiV/vJu/bRztxknnRnXPjBi8s/FnHd2eXZnRUh12qOoEZ3y8evPAqCIAACIAACIDAawRsNpvJatKatEqjUqKTCDQCtopNV9BJMhJOgpsTzU0JptA8NJKDHGQN9jB6OmgdzZTmelJ9Fb6qDFdWuFCYO5+bMZORPJUcj4l/NP7owdiDcFS4fdL08NKk6f5rV3qvuHe7u3S6nG0/69TqdLT56KHGQ7/X/b63du9PVT99V/ndrrJdO0t2bi/avl7B9IY6bg2x5jX3bPO+DSn55r23cGUgAAIgAAJvJWBfHlOo5ZHllCnh/CAb3UwdKMW3pc/VPJwoCkJmrKARZSn47kr1aEq5VJ1ysTjZLSfZNSXJJTbxwoPE83cSzt1KcL6W6Hw58ZxLovOp+FN/Oi77Tr5wIsfbrSTQx958khDdk5M6UlmMaalfGOghT4yx8VgJm6mRy8wm01tRwQ+BwKoJPKlJYSq18yIVgiNvpUrKcML0GV7U2zSlsG8juPdHBanTS2UpNDV63cpSrHq9SSA0kMnaqSnV4KCiuVlaUvqk5yQ4xN5zcv4C9fAR0p49hC++dHjq/cE23Cfbid9+R/n9D7rTKaaHB+fmLf79+8LEREl+gbyuTtnTo0GP6/F4E5cLi1uu2uCGHYEACIAACIDAxhNYLvTQmDTPCj2U9kIPgpSAlWBnhDMYPmaUO4pgI/qZ/f8t9MhfyM+ey06bSUuaSoqdiI0ej44YjQhDhQUjggOGAvwG/OyFHj0vLvT4uebnH6t+/Kbim6/Kvvqs5LMNFRBv8JP5vOTzXWW7vq349qeqn36p+eX3ut8PNhw82nz0ZMvJs+1nL3RccO929+z1vNZ/7cbgjYDhgJCRkHBU+IOxB4/GH8Vh4pKnktNn0nPmcgoXCksXS6vwVXXEumZKczu1vYfRM8AcGOGMjPHGhFrhxhuwa3RGkJKvETQcBgRAAARAYIMIWExWlVQvoClps6LlWvChCkJH1nx9zGRJ6GjWS5bHfC74rloKvrOT7MF3TOKFiKXg+2bC2WvxZy7Fnz4fd+pknJMDg++n877dSm771Dy4Y2/9Xlr0EtPasDDYS8agl7JvlkYus5gh+94ggw5O44mAzWazqI1GjlqHlahRXHkHTVKBF2bO8qLH2cEj7OW1Md/0zztIfjxGXIiVNZFVCI4OK3ZoWcqT6d4slg6L1YyNKbu65bW1krx8YWIi//59jv9NpocH3ekU5Y/9xO++x2//dA2Cb/yOz0g//Eg9eJB+5izL8wo3MJD/IFKUnCItKpI3NKr6+7UYjJ5INAkEVi0sBgAPIwiAAAiAAAisp4DFatGb9WqjWqaXibQirprLVDIpcgpBSlh5oUfKdErCZMLjicdR6Kh7o/dCkaG3EbdvDt306fe52nfVo9vDrcvtXPu55UKPPxv/3F+//9faX/dU7/m+8vvd5bu/KP1ifQs9NngS/a/T21G844vSL3aX7/6+8vs91Xt+rf11f/3+Pxv/PN58/FTrqXPt51w7XT26Pbx6vXz6ffwH/W8jbt8ZuXNv9F7kWOTjiccJkwkp0ymZs5m587lF2KIyXFk1obqB1NBCaemkdfYx+oZYQ0gOcpw3Pi2cnhfN46V4sozMUDI4ao5QK5TqpSqjSmfWma1mWNJpDR5dSMnXABkOAQIgAAIgsEYCNpvNqDcrRFoeRUGdFi0M29fGHK4gdGbP18dOloWN5d4Y/rsO5WnNd1OKe1XKxaJkt+wk1+SnwXdIwrmbCWe9l4Lvc0vB9yHHzfhe3nOKy8mlzhPf2sjQVnv2nT5SWTLZ1ogd6qNMojn4RQmHpVXILeYN3ZW8RncaDrOBBZb6sk1GnkaHl6rHeIouurSKIMqe48VMsO+8bRR+G2FfSDN5SlxkT8OVg6zVKkuxn61GY+Lx9ITn271LRKlpgocP7ctaXl1a1nItp3tv+5Dw1S7yL3upR48yXFzZ1324d+4IHseIMzOl5eWK1jb18LBuZsZApZnFYqvRuIHHApwaCIAACIAACKy/wAsLPWgKGklGWpQszonmJgWTaB56hDPypoUegcOBNwZvXO+/fqX3yqXuSy6dLs7tzk6tTseajx1qPPRH/R9Q6PGvxHnl335W/NlXZV99U/7Nj1U//lzz8291vx1sOHik6cjJlpNn2s5c6LhwseuiZ4+nd5+334DfraFbwYjgu8i7EaMR0ePRsROxSVNJaTNp2XPZ+Qv5JYslFfiKWmJtI7mxjdrWRe/qZ/Yj2IhR7iiGj5kRzmAlWIKUQFVQWUoWX8MX68QKg0Jj0hgtRqsNlhBf/0d4Lc8AUvK11IZjgQAIgAAIvJOAzWrTq01S7lInOEYw288aa6QMlODsdSjRmOIQVKZ3b6pHS8ql2hT30uSLeclu6UmuiUku0YkX7iWeC05w9l8Kvt3jT5+LO3UizsnhwXeS89FMz/OF/l4VdwMaHt3rSI3rL8xC1ZRNtTc9yb4JOHv2rVRA9v1OIwN+eD0ErAazSaDRE2Wacb6ihyGtIYry5vlxGM5d5FvOCr+N4ISPChInxQULsgaSsp+pmRToyXKTWGczvcFij1aj0SwWG6hU3cyMGoFQtLbJKirEWdmCmBhe6F22rx/TzY12/AR53z7i17txH328FtO9P9lO/O57yh/7/91zkpcvr61Vdndrxsb0i4tGNtuiVNqs8N9j6zGg4ZggAAIgAAKrKrBc6KE1aVde6NFIbqwl1lbgK0oWS15b6OHd5+3Z43mx6+KFjgtn2s6cbDl5pOnIwYaDv9X9BoUeKw+jn99ye9H25ws99tbu/b3u90ONh442H3VqdTrbftal08W92/1K75UXFnrEY+KTp5IzZjJeW+gxKZicE80tShZJMhJNQWOr2HwNX6KTKAwKrUlrsphg0vSqPouwszcQgJT8DbBgUxAAARAAAYcKWCxWjdwgYqoYWAl+jDfZRR+uxHZkjNZEdxcF1WVdK0q5mJ7kmpB0ITrxfHjiuaAE5xsJZ6/Gn1lOvR3ec7I84zvp3LGspeC7Miyg4fH9jrT4gcJsVE35VEfz4nA/ZXLcPumbzVTLpGaY4+nQ4QI7d7yAzWKzKAxGtkq3KFGjecpehqyeJC5Y4CdMcsJRbx+F30Xy4zCivHlpLVHRw9BM8PVEmUmotRpeHIXbTCazTGZkMHRP1rTsktXUPCs5uXmLefky/dRpyv4DpO9/wH+6Yw1Sb9wH2whffkXe8zP18BHGufMsb29uULDgYbQoPV1aUqpoblYNDmqnpgxkskkgtOr1jr9XcAQQAAEQAAEQsAtYrBaDxaA2quV6uUgr4ql5zxd6zAhnJvgTKC5qmD3cx+zrpHe2UlsbSA01xJpyXHkxtjhvPi9zNjN1OjVhMiFmIiYKHXV/9H4oMjQIEXRz6KbvgO/VvquXey4/X+hxuPHw/vr9+2r37ane80PlD7vLd39Z+iUUejyfPr/66xUWelztu+rT73Nz6OZtxO1QZOi90XtR6Kj/FnqU48qfFXrQ7YUew+xhFAc1wZ+YFk4viBfwUjxFTmEoGVw1V6gVyvQylVGlN+uh0AP+BgGBv/76C1JyGAYgAAIgAAJrJGDUmyVsKXWaOtMzPVI11JXVUv+4vPxudr5/QuaVB8luwQnOfglnveLPXIw/7bw2c72fBN/nj2VduVB082plWGBjTERnesJAUc5obcVUR8siYoA6NcEh4CRse9M3rHK5RmMFDrNWAjaT1SzVGxhK3YJYPcq1t6PUEsUFC4KkKe6DMXYQ4q2jcPadEX7MhCh7TlpNUHTR1WieDi+1N4ZrTfa53i9NvSM4twJYlz3pZ85SDx4k/fgT/vOda5N64z/7nPTDj5QDB+zt3pc9ObcC+BEPhElJT5a1XJrurcNi7dO9FQqb5cWB/lrdNzgOCIAACIDABhJ4YaEHXUEnyUg4CW5ONDclmELz0EgOcpA12Mvo7aB1tFBa6kn11YTqMlxZEbYodz43YzYjeSo5fjL+0fijyLHIcFT4nZE7gcOB/oP+1/uve/V6Xeq+5Nrp+t9Cj/9V/++7yu++Lv96Z8nOT4s/fXUgC+/+LfBZyVKhR8UbF3o8RD+MnYhNnExMm0nLms16WaGHPZvm2rNpe6GHeKnQQ24v9OCpeWKdWK6XQ6HHBnqG4VRA4KkApORPJeDfIAACIAACbyJgs1oNWq1SLBIz6RwCjoyZmOnuQ1Y19OSUNMVnVN2LKQ68l3s9IMPjWoqLe4Kzc9yp43FOBx1d7b28/4Qzf6ZfOpvv61Ea5Gdf3zL+YXdW8lBp/lh91XRnCw4xQJ2e4BLtVScQfL/JPYdt30sBq8FiEusMVIV2VqRCcOTtNHtLeO48P36Sc2/07UPw5TU2g0d40ePCjBlx0Zy0alZaNymrR8pqe2QVdeK8AmFSEj/iAScggOV5hX7WmXrwEOmn/xHWKvXGffwJ8ZtvKb/9TjvpxLzozrlxgxcWLoyLE2fnyCqrlO3tasSIbm7OQKOZJRIbfPLjvRzdcNIgAAJbWuAFhR4qFlVBJcqIWAl2VjSL4WPGeGMINmKAOdBN726jtjWRm2qJtZX4ypLFkoKFguy57PSZ9KSppDhMXPR49IOxB2GosGBEcMBQgN+A37W+a549nu5d7hc6LpxtOwuFHn/ny+/yxfOFHr/U/PJ2hR6587mFC4VluLIqfFU9qb6Z0txB6+hh9AyyBkc4I2O8seVCD5wER5KR6Ao6W8UWaAQSnURpVNoLPaxQ6LGl/+qAiweBVwhASv4KHHgLBEAABLaKgNVi0alVCiFfSKeyFufJGPQiYmC6qxXdUD1cVtCdndoUF10ZHlp00y/76uVUt3OJzifWLPKOczqQcOZwqtuZ7KuXigN8ayLsK1v2ZKcOlxWgG6pnuttxyCHaNMaeerOZaqnEZNBDk91WGbhwnX/9tbxUpr0fnCTTTAlUQyx5C0VSjhNmzfJjMZy7b9+L8ixADxnmhA1w73Vxw5s4d8rZARmsa1F0Vz/qkdOkn/asXer94UfEXV+T9/5KO3rMvqbltWvckBBB9CNxRoa0tMxecjIwYC85IZFMAoFVp4O/B+D5AAEQAAFHCFisFr1ZrzaqZXqZSCviqrkOKvQ433H+dOvpEy0nDjcePtBwYF/tvp+rf/6h8odvyr/5svTLz4o/e5esdkv97GsLPdy63Dy6PVZY6FGGK3tW6EGzF3oMsYZQHNQ4b3xaOD0vmodCD0c8d7BPEACBtRGAlHxtnOEoIAACILBGAvaPfOr1GrlMyuXwyUTG/AwJjVoY6Jlsa0LVlA8W53ZlJrfEP6yNDC0P8S/w88y8fD7p3LG1meL991HiTx1JdD6d6uaWdcW74EZAeej9+kfxnRnZiIrKqc42PGqYPjPJIxGkXLZ9rjfM8VyjsQOH2aACNqvNojIauWodQaqZ4Cv7mbImsqRkUZg+w3s0zr4z8izOXp7f/eZ/sgJ6WDcamVeL6W5J1JN3yX9cJe1xJn5zEP/5D7iPPnVU4cm2Dwm7vib/spd69Cjjgos99Q4OsVd7p6VJi0vkjY2q/n7txISeQDTxeBa1BlLvDTpA4bRAAAQcL7Bc6KEz65RGpVQvFWgEHDWHrqCTZeQ3LvTA2As9How9CEeFh4yEBA4H3hi8cb3/+pXeK5e6L7l0uiwXehxtPnqo8dDvdb/vrd37U9VP31V+t6ts186SnduLtm+pfPldLvaNCj0ChgKCEcFhqLCI0Yjo8ejYidikqaS0mbTsueznCz2ayE1t1LZuenc/sx/BRoxyRzF8jL3QQ7JU6KGwF3rwNXyxTqwwKKDQw/GPJhwBBEBgswlASr7Z7ihcDwiAwKYRsJjNS/O7BSIGjYNfpE1j8Kjhub5OTEs9qqZssDjHnncnRNdF3S0PvVl082r2VddUN6f4U4f+DqPX6ovDcaec4k+fiz9zMfHc1dSL/pleofk3HpbdSaqLzm1PqxwsaZtoGcIhZzhEmloms5hNm+YewYWAwDsK2GeC68wmkdZAV9ibwdE8ZR9T3myfDC7KnuMnTL5rOfhSYs4KHGL6tDA8S+kuadRTUZTDgeTfPEn/O03Y/Qf+s29x2z5enRx824eEr3aRf/6FeuQo4/yFZwta/jv1Jpi4XItabbNa31EPfhwEQAAEHCrwgkIPpb3QgyAlYCXYGeEMho8Z5Y4i2Ih+Zv/KCz1CRkIChgJuDN6wF3r0vrjQ45eaX36s+vGbim++KvvqsxKYNP3JCtPq7UXbd5bs3FW267vK736q+mlv7d63K/TImcspXCgsXSytwlfVEeuaKc3t1Pb/FnosShZJMhJNQWOr2HwNX6KTKAwKe6GHBQo9HPpows5BAARAwFECkJI7Shb2CwIgAALLAsuTu9UyqZTLfjK5e2IUO9Q33dli7zMpL+zNTW9PjWuMiai+F1Ry2yfP51KGh/Paz+9+GqkfjTt1Kv70hfgzlxLOeic4+yeeC0o8H550ISrFPT77WlbR7ZLqyIaW5J7+4jF08+IiksXASoQMpUqqN5tgOTsY9SDwDwGr0WKW6o0slQ4nsU8DH2TJW6n2WvC8eUHSFC8KzQ5ZhZng7NsI1q1+5vVGhkcR7Xwy9WQE5c+b5H3uxB9PEHb9iv90F+6DD98mB//wo2dzvZ+m3vyoKFFqmrS4WN7QqOrr04yP6/F4E4djUakg9f7HvYdvQAAE3lbAYrUYLIY3LfSoJlSX48qLsEV583mZs5mp06kJkwkxEzFR6Kj7o/dDkaFBiKCbQzd9+n2u9l316PZw63I7137udOvp483HDzce3l+/f1/tvj3Ve36o/GF3+e4vS7/cUbxjhcksbPaKQo/TrafPtZ9bYaFH3nxeEbaoHFf+rNCDbi/0sK+C+LTQY0G88Hyhh0grkullaqNab9ZbrPB/RN/2qYOfAwEQAAEQWBKAlBwGAgiAAAisSMBqsejVaqVYKGYxuEQ8fW6aNI6yh91drejGmpHK4v6CrM70xJb4h8uTuwv9vbK9XFNd12Vy94GlyLBp/9wAACAASURBVPtg3Klj8afPxJ9xjT97OcH5esK5m4nnQxIv3E9yiU5yTUh2S0u+mJviXpJyqSr9SnNBQF9VJLolZaa3cBFZS5rqYuBQXPq8WEBTKsU6kwH+w2NF4wQ22joCNrPVrDAYOWo9cakQfJit6KBJawii3Fl+wjj3AZIdgnj3LpS/98C62cP0rqW759Gc46knwigHfUl7XYnfHyV8+TPuky9WFIJ/st2+muW+32gnTjLdLrJ9fHmhoYLHMeLMzGe93pOT0HCydcYwXCkI/C2wXOihNWmVRqVEJxFoBGwVm66gk2SkNy70mFxRocex5mOHGg/9Uf/H3tq9/6v+33eV331d/vXOkp2fFn8KofMKBRxR6NFIbmyjtnXRu/qZ/cPs4VHu6AR/wl7oIV4q9JBDocffDw18AQIgAAIgsAkFICXfhDcVLgkEQOBlAlarRa9RK8UiCZvFIxPsnd0To4vD/TNdbeNNtSOVJQOF2V2ZSfYak4dhFXcDim955167mO5+Jsn56NOp1ssB9Br/eeTvSpOEs14Jzj4J5wISz995kne7xCe7pia75SRfLEpxr0i5VJfq0ZJ6uSv1cl+aZ3+aZ3/G1YHCwJGqyPHmpOmefOxINWmyk76I5NJmRXyqQiHSGvVmKPx92ZiB17emgM1staiMJr5GhxOpEBRZ85ykZFyYjuDHDnAj+jihfeyggb/z63f/ghUwyPRtZVypoLtl087G2kPwQ/7kfZdIP50i7N6P3/kD7uMd/83B8Z99TvrhR8r+A/RTp5keHhz/m7zwcGFcvDgnR1ZZpWhrUyMQupkZA4ViEgqteljVdmuOZbjqDS3wgkIPlb3QgygjYiXYWdHsygs9Yidio8ejI0YjwlBhwYjggKEAvwE/e6FHz4sLPX6u+RkKPVYYRj+/2fai7Z+XfP7uhR6587mFC4VluLIqfFU9qb6Z0txB6+hl9A6yBpEcJJqHnhJMzYnmcBIcSUaiK+hsFVugEUh0EqVRaS/0sEKhx4Z+tOHkQAAEQAAE3lMBSMnf0xsHpw0CW1TAZrOZTSadSqkU2ed080j2pJs8MbaIGJjtaZ9orkNWlw4ULRV2Jz6qfxhWGRZQHHg97/r6dpj8Hakfijt1PP702SeTu89ee9pnEpZ0ISrJJTbJNTnZLTP5Yn6Ke2nKpepUj6bUyx2pl3uXw+4X/pntO1RyB1UTjWlNne17Ogd8OQHnURRygdaghf+O2qIPC1z2fwUsBoORK9TNkVWDM/JGpKS4T5jewY9p4kY0cELr2bcb2LeaWLfaWQF97x58P78H1o0OxtVq+zTwc4n2OpTDAeTfPUl7zhK/PUT44n9LM8E/xH340ZNS78NHGOfOs7yucgNv8x9EipKTJfkFspoaZWeXBoXSzS8YGQyzVGqDVW3/e4PhFRBYmYDFatGb9S8r9JgWTk/wJ1Ac1DB7uI/R10nvbKG0NJAaVljo4Tvge7Xv6uWey25dbuc7zp9uPX2i5cThxsMHGg7sq933c/XPUOjxfOi8wq93FO/4svTL3eW7f6j8YU/1nn21+/bX7z/cePh48/E3KvTInc8twhaV4cqeFXrQ7IUeQ6yhlxV6CLVCmV6mMqr0Zr3ZCrMKVvaMwVYgAAIgAAIg8H4KQEr+ft43OGsQeG8Flku6NXKZnM8T0qkc/CJ9ZpKIRi5Xl4w31SKrSgaKcrqzkluTHjc8uld9L6g0yK/AzzPLyyXVzSnhzJ/rOqfbnncnnDmSdP5Uisv5VDf3VDevFFefpAv+ieduJ56/m3ghIsnl0ZMyE7fcFPvk7sqUS/WpHq2pl7tfGHO/7MUMr4GCgJGK++jGhKnO7IWhcgK6hTo3wCJNCFg4qZitUssMFhOsfffePglw4u8sYDMazVKpkcHQLWDVyFF5a4+ktFmUXsWPKeHdK+AE5bL9c1k+ecxrRUzvcub1OqZfGytg8PnwelW+Zvl3M73rGJcKaRdS7AtjHgki/3GV9PN50s+nyPtOUP50ojudYV7y4Ny4wQsLF8bGirOypeXlipYW1eCgdnJSTySaeDyLWgOf53jnEQE72NACy4UeOrNOaVRK9dI3LfQoXCjMnc/NmMlInkqOx7y00MO9292l0+Vs+1mnVqejzUcPNR76ve73vbV7f6r66bvK73aV7dpZsnN70fYVJrOw2WsLPdy73D17PK/1XfMb8AsYCghGBIehwiJGI6LHo2MnYpOmktJm0rLnsgsWCkoWSyrxlbXE2iZyUxu1rZve3c/sR7ARzwo9JEuFHgoo9NjQDzKcHAiAAAiAAAhsbgFIyTf3/YWrA4HVF7CYTXq1WiURSzgsAZXMXlygTk8QRhHzA91T7U1j9VWI8sK+/MwnDd1/z+b2uZR5+VzyhRNxpw6ue8wd53Qg0flImvuZbC+3fF+vwpt+xYGBJUF3S4IjSoIeFd+OK7yVlOeXlnUtM80jJ/liQYp7WcqlGvvMbo/2V8/sflnk/a/Xc5YmgNc+wrSmzfYVLSLryFNdjL8rUGAC+OqPWtjjhhd4EnkzmTosVjOGVvX2yusbJEXFwpRMfmQSJySG7RfNvBLJcI+kuzyknY+hnU+ku2UxPMuY1xtZN3tWJe/+706eLIl5uYTulkF3SaC7PGJcjGR6PmD7RnJuR/Mj44TJadKiInldvbK7WzM2plvAGplMs0xmM5k2PDmc4JYQWC700Jg0CoNCrBPzNXyW0l7oQZASsBLsjHBm5YUecZi46PHoB2MPwlBhISMhUOjhoAx9e9H2nSU7HVTo0cPoGWQNjnBG0Dz0pGByTjS3KFkkyUg0BY2tYvM1fCj02BJ/L8BFggAIgAAIgAAIvEQAUvKXwMDLILAZBawWi0GrUUslMh5HQKOw8Vj6zCQJbV+Ccqa7faKlHlVTPlSa35ub3pEW3xwfVbeUcZcE+uT7Xs66ciHVdUNM5f47ZE86fyzDwzn3unvxLe/y0Ju1kaHN8VEdafHd2em9ubm9+cW9+ZW9eXXdOU2dGW2tKV2NcT01D/vL7g7mBwxleA/8K7lelW8zvAcKAp9MAO/KWRiqIIzbJ4Cz7RPA8fYJ4Bo5TADfjI8WXNNzAjabzarVmgRCA5Wqm51VjyCVnZ3y2lpJQaEoOYUXGcUJusu+Hsi4dIPu7Es7eZ1y1Ifypy/lcAD1RDjtzGP6hVTGpQLG1RqmXzsrcOi/yfWqvMLy72L6NjJ9qlk+ZawbxezAIm5oMS+yTJBQJc5pkFV3KrsQmvEpPYlkEgitWi1M9H7uDsOXrxd4daHHjHDGXujBfYNCj3uj90KRobcRt28O3fTp97nad9Wj28Oty+1c+7nTraePNx8/3Hh4f/3+fbX79lTv+b7y+93lu78o/WJH8Q4HJbmbb7c7ind8UfrF7vLd31d+/6aFHjETMQmTCanTqZmzmXnzeUXYonJc+bNCD7q90GOYPYziopZXQVwQLxCkBIqcwlQyuWquSCuS6WVqo1pv1lussFD2658v2AIEQAAEQAAEQAAEHCQAKbmDYGG3ILDKAk8CbplUxufai0oIOPrcNGliFGfv4+7AtDaM1lUM2ydxZ9gncSdE10eHV927XRrkW+Dnme3lmnbxdOLZw3/nyxvii1MHU1xOZHqez/f1KAn0qQwLrH8Y1pIQ3ZmR2F+QhagoQjdUT3U0zw90E0YRlKkJ2swsdQpLmSQS0ZRFJH1+gIlpp4/UkPoKF9vS5+pjJsvDx/JuItKv2NerXPV/sq4PFgUjqyLHmxKnu3MXhiue9J8Qx/lMrETIUCrFOlgDc5UHPexuAwjYLBaLUmnicvUEonZyUjU4qGhplVVW/r+9u35rM9vXBv4fvFvnbJ09bp22U3efurtSp0LxIg+B4KXF3d3d3d3dISEhCUkgSCDBfb3XyhOktndnaDtl+j0XP/QwDTx8QtJz7ty5V6+7e7eVdZehIU9Do+OhPPv6PeaF24yTN9sO36Dvv9l26AHjuArzrA7z0pN2GUnp+74/Rz6yQzX53QXfXCK/QzO7QyOVq5nAo8Tx9GI7TeIE1kk9rul9QXkDCeVDBY2jTZzJbtHMNEwVfQC/W2/7EshBj5HJEfGEuG+0700GPeIYcVH0qNCW0MDmwDcc9JBNk72ZcvNa0rWLCRfPxp09EXPiSNSR/RH794Tt2R6yfXPQZhj0+EUB+hq/NRsDN24N2rordNe+sH2HIg8diz52Ovb0hfgLVxKv3Ei+cSf1zoP0B/KZ8irZKuq56pR8im6hrlGx0dPSpxblFjaVNuSgh1eDl3+Tf3BLcAQtIqYtJpGZmMpKzeJk5XHzFgY9emHQ420/6uDrgQAIgAAIgAAIgMDvSwBS8t/X/Qk/zQcmgP+f9onxEbFI3Nvdx5Xuk7RLZrib8rLIdLskMiQ/yCfLxzXVxS7RzjzG3CjcWCeIquanoeCpJOv64Lqkwf2BBdwXyXnuUw63L7rJ3fJWfRhIUQkzpESbGSbamae52ef4uReGBZTFRtSkJjbmZtJLi1i1VbzW5h52+4Cga0Q0MDk+Niv5n/HRKXHvaDdb3NEkpJcL6nO4FUntBeH0DJ+mRMfaSDOcfXup5zvLvZPqt+ODLHeVPH9qcfizinj72gzvpoIwekVSe0Mer62ym4vb30ND/eNTk9Dt+sAeWnA5v1wAV7zHxqZ6eydYrNH6huGSEnF6+kB0jNDPv9fZWWBm3knV5amqcmTvsS5dZpw403bwNH3XCdr2U/Q9l+kH7rYdVWCc1mReMGi/as666ciS9WbLhXKU4jrU3vJBl6+qiudxtbJ41Ay+YWanaZbAPq/Hq1gYViVKbRkq6xijCyf4Q1MD4zMT8Dj95b8WS74FOegxMjmyMOgx+AsGPbwavNzq3BxrHG2rbC3KLZ6VPTMqNtIr0qPkU14e9LiSeOVC/IXTsaePRx8/FHloX/i+XaG7tgZv3Ri4cY3/ml8Uzn7kf3mt/9pNgZu2BW/bHbr75/CfD0cePh59/EzcmQvxF64mXb2RfONu2t0HGQ8UshRUc1Q18jS0C7T1i/SNS4xNy0ytKqzsquyca5zd69x9GnwCmgJCW0IjaZFxjLgkZlI6Oz2bk13AKyjpLKnoqqjtqW3qa6L109pF7R2DHeSgh2hcNDI5MjkNJ0sv+eEHXwAEQAAEQAAEQAAEQOCtCkBK/lY54Yv9LgRmZ2enJiZGhwYH+3r7O3ndLCaf1syur2FUlrYU5dVnp1WnxONDJsMCc/w9yXGSeKunZHc7kKLi81jOXf6Ok+xVu+vnPpAN7peb41aXT9jfvOAq6XH7aSoG62pEmujGWZokO1hmeDjm+HsWhQeWx0WSGTettLC9ppLb3CBgtgn53EFh79jw0PTU1Ovu7dnZ2fHRKVEPzr45TX1k9l2e2F4QNp99VwTq4ezb6Z1l304PszzV8gP1SqLMKxOd6jL9movI7e8CPrOmh08fEPKHR8QT01Apfd29CJ//sAVmJyen+vsnuNyx5uaR8vLBrGxRfLwwKKjXzb3b0mqu4i3HlrnOPH227dBx+q7DrVsP0bYeo+06T993ve3gvbZjSjj1xiMnpu3XbVl33NgPAjgKUR2qKe+07r0QglNyebq5fOO8LovCbqeyXt8aYWSLKI01WMAbrhSMtgjHOeLJ3tGZkcnZmdkP+95431eH/5GamRqbGhucGOwf6+8e6eYP8dliNmOA0SJsaehtqO6uxoMevF8w6GFYbEgtpGrla6nlqilnKz/KfHQ//f7rBj12huzcErRlQ8AGGPR487R9td/q9QHrNwdtJgc9DkQcOBp19GTMyXNx5y4lXJJJkrmVcute2j25DDmlLKXHOY+JfIJaSDUoNjApNTErN7OutLavtnepdfGo9/Bt9A1sDlwY9GifG/Tg4UGP6u7qht6GFmELY4DBFrP5Q/zuke7+sf7BicGxqbGpmSmYD3rfj1j4fiAAAiAAAiAAAiAAAstEAFLyZXJHwWX+V4HZmZnJsTFpZVtypCSvpYlVV91WXtJcmDufaxeFB+YFemd6uaS62CbYmsWYG0c8oQbravhrKuFZkke3nO5esb1+9oONtsmw2+rSCbsb513uy3gqypJ73OHGOrEWxkn2FuluDvMl7uqU+Ibs9NbifGZ1eUdTfReD3sftEPf2jA4NTk3+mgLX9NTMiHiiv2u4iyli1fe2lnbVZXeUJ7bnh9EyvJsScO8bZ9948+SdZd/S6rdOUZhJeZxdTZoHHv4ujWPWZna0lHSy6nq7mKIBwcjYMMRq//UBA//xQxKYnZmZHhyc7Owco9FGqqqH8vLESUn9oWF9nl7dtrZdT0z4WhSuggL71q32c+cZR07S9x6jbT/cuuUobec5+t5rbQdl244p4lHvc3rtl59J503u+bEfhUmK3u/qWMuFsJvIl/5ZK4+nm89/UthlVdLtXNXr3yiMootS2sU5HUOlnSN1PWO0/omOwcne0enhydll+ALVuxv00MjTUM1RVchSeJjx8G7a3ZspN68mXb2YcPFM3JkTMScORx7eH7F/d+ju7SHbNwVugkGPNw+mV/quXOMvGfQIlgx6hONBj+PRx3/poIdrratXg5dfo19wS3A4LTymLSaBmZDKSs3kPDc23UgOegwwO8QdnUOdvaO9A2MDw5PD49PjMDb9IT3pwrWAAAiAAAiAAAiAAAiAwKsFICV/tQt89p0KzMxMT4yNkqG2kM8lV7YlZe2y1uKCxtzM2vTkysTY0uiwwlB/sq+Nt7ZtTKNNDcKNKOQaiZfyPdeHNxzvXLa9dublrvQH+Bmba6cdb19ylbvppXzfX1MpWFcj4gmVTLfT3Oyzfd0LQvxKokIrE2PrMlKa87PpZXilhNvSKGhn4AZ3X++vDrhfd29OT78cfHNx6TucnunblORcF2VRGWxY6kMUuirmvPWl78Vf0EM1z1+nKPxpebxdTZpnI179lmTfrSWdrHqcffd3DY8OTcCa8OvuSvj8hyCAJ7xFokkeD094V1VJ8+6wsD4v7x47e8HTp3xtba6SMufO3faLlxjHz9D3n6DtPNK65Qhtx1n63qvSVZOT6sxzVOYlk3YZa9YtZ/Y9Hzxsohjb8TjtFcH0fEL9bv7AoxbwnxR1WZV3u9T0+jUJw2kD8QxxBnuwkDdcJRht6htniSa7hqdFeO3kHRVUyUGP4cnhhUEP8bsa9LiaeBUGPX5RBv26v/zfBz1upty8m3b3YcbDNxn0CGwODG0JjaJHxTHiktuT09npOR05BbyC0s7SSkFlXU9dU18TvZ/eLmrnDnKfG/SY+TWvB38IzyRwDSAAAiAAAiAAAiAAAiAAAr+JAKTkvwn7cvqm0kRbNCDu6e7jdQjaGbxWcn5kPtFOqkyMWUi0PZ1TnG0SbExjzI0inlBD9DQCtJR9Hst5KNxxuS9jf/OC9ZUPcWL7dak6uUzifO+ah8Idn8dygdqqYQZaUc/08SGTTtYZns65AV5F4YFlsRHVqQlkd5tRWcZpqOukt/ZyWAOCruGB/onRkZnp9zSYOz09MzoobXyzG/poZV3Spe8IeqZfc5JzXbRlVYhRqa9WoatS7uKc+u3/+WEWzr6pxQvZdwitNB73vuez7wHBCM6+YU5hOT0lfBTXurBn0tIyUlExf2Rln4dHt41Nl/ETHqHFVVBm337Yfvku8/QNxpFr9P1XJUn37bYjcozjKozTWnjMhCx333LGK94PgzgKURyVxPcy5D3X716cnusU8I2KuyzKBQ7VPZ71fQHS1FuUzh7M4w6VdY7U94zR+ye4g1N9o5NDY6Pjo0MTQ/1j/T0jPfwhPkfMYQwwWoWtbz7oYV9tb11pbVZuZlJqYlBsQC2kEvmEWq6aUpbSo8xH99LuLR70OBlz8mjU0QMRB/aG7d0RsmNL0Jb1Aeth0ON1MfTLn//J76f1Aeu3BG1580EPnQKdNx/0yO3ILeIVlXWWVQmq6nvqW4Qtbf1tbDGbN8TrHukWjglh0OOjeHKEHxIEQAAEQAAEQAAEQAAEfr8CkJL/Tu5bPDkyPjY6KB4U9vZ38Xs5rK42Gre5gVVb1VaB17QlBe0kaUE7LDA3wCvL2zXN1S7JwTLOyoTsaAdT1fH2iOpDd/k7zveuLbtEm0y6ba7iIyVdHlz3VJT1VZcP0n4szbWtniY7WuHRbT/3ghD/0uiwysTY2vTkprwsvLtdXdHRVN/ZthBtj48M/5fp7ff2eyMZSZ8eFo0LO/HUCQ6+y8ngm1UYQc9aCL7LfLUK3d518P0gy/lRtpc63vuOMMXHXeLedyitLJ5Zm9XRWtrFbujrapdsngxNQvb93n5J4Bu9TgCfVzk6OtXTM97ePtrQOFxSOpiZKYqLI/e7BZbWnQYmPE29DnmCfecx66oS87w849SjtmNyeMPkpDrzLJV50bj9qkX7DXvWHXf2fcmMCa51p3Zo5Lz/Zvf8d+RQcln6OYwn2a0W2Y12mbVOaRXuyUXe8TkB0WnB4XHhgeHRPv5xrm6JdrYp5k/TjKiZ2o+zHitmKT7MeCibJnsz5ea1pGsXEy6ejTt7IubEkagjMOjxcuj8hp9Z4ycZ9Aj6xYMez8qeWZRb2FbZOtY4utW5eTV4+Tf5B7cER9AiYtpiEpmJqazULE5WHjevmF9c0VVR013T2NfYKmxlivCgR9dwV+9or2hcNDw5PDE9MTM787pHAXweBEAABEAABEAABEAABJaZwOwsmplG01NoagJNjqHJUTQxjMYH0ZgIjQ6gESEa7kPDvWioGw12ITEfiXhooAP1s1E/CwmZqI+BettQDw11tyBBExI0oq561FmL+DWIV4W4laijHHWUIU4JYhchViFqz0fMXMTMQYws1JaB6BmIloZaU1BLEmpJRM3xqCkWNcaghihUH4E/6sJQbQiqCUbVgajKH1X5oUofVOGFyj1QmTsqdUMlLqjEGRU7oiJ7VGiHCmxQvhXKt0R55ijXDOWYouynKOsJyjJGmYYoQx+l66I0KkrVxh8pWihZEyVpoEQ1lKCKElRQvBKKU0Cx8ijmEYqRQ9EPUNQ9FCmLIu6g8Fso/CYKu45CZVDIVRR8BQVfRkEXUeB5FHAO+Z9BfqeQ30nkexz5HEPeR5HXYeR1CHkeQB4/I/d9yG0PctuNXHcil+3IeTty2oocNyPHTag5YZn9wry9y4WU/O1Z/q+vRJ4JOTY8NDzQL+oW9PE6JMdCtnQ01rXXVNLLi1sKcxtyMmrS5qrZYQG5AV6SEW27JHuLOEuTqGf6YYaSvRFNRW+VB+7yt8ks2+bqcmpnv9Datr5yyv7mBed719zl73irPvQn8BRJuLFOtJlhgo1pipNNhodTjr9nYVhAaUx4VXJcXebcGklNJbepQTK3zRF1C0ZEA++zsv2/7u3X/vdXpt4NudzKFFZRVFt2YEuqe0OcXU34M+n5ls7y2W+/5f0ga/HXdJZbHHzjwRNy7Lsmg9NchM+65NH6e7lDg8KxyfF3NarwWi/4DyAgEZidmMCHVXZ0jEnK3eLsnIHYxL6AiB5nf4Gle6eRA49ixVU14zwyYd81ZN0waL+qz7ykz7xggKdLrlmybjjg0ynv+bIfBuNCt/JvV+heXO4m8tuJrCZKUgU1KlcvMMHQI8zYweephZOpkYW5tqGlqqaNnILdrTsOly85nzrheuhn991bvDb95LP6DQPc3+tfW+W7avGgx/6I/YcjD5+IOXEm7szFhItXk67+okGPgKaA0JbQSFpkHCMuiZmUzk7P5mQX8ApKOksquipqe2pfO+gxDYMe8PQEAiAAAiAAAiAAAstEAKeuM5LgdRJNjS9KXcULqetQDxoUIHGnJHXlogHOqyPXrgbUWSeJXKsRrxJxK+by1uKFvJWRjdoyJXlrOqKlotZkSdiagJriXhW2BqHqABy2VvqiCm9U7omTVhy2ur4iac2zQLlk0voMZZtIYlYjlGGA0vVeilnVUeJjHLPGK6M4xZcy1rvSjDXsBg5YQ69JMlYyYL3wqoD1CA5YPQ8ij/04XXXf+4p01WEjctiA7NchuzXIdjWyWYWsVyKrFcjye2T5HbL4Bpl/hcy+QKafo2f/QU8/RSb/Qib/RE/+joz/Dxl9ggz/ggz+hAz+iPT/H3z8xgLVAcvkgf32LxNS8gXTmZnpybGx0aHBIWHfgKCrj8sRMNt4rc2chlpmdTm9tKi5IKc+O60mNbEiIRoPjIThoyCzfFzT3RySHa3i5zZGQvWJQG1VP3V5L+X7bo9uOd+75nDros210y+kw8vxf8U17VsXXe7LkPMjAVrKIXp4XDvG3DjB1izF2SbD0xkn2qFkUzumNj2pMTeztbiAUVnGrq/htTYL2hl9vA5xT/dyCbUXfj9e86cPMPV2fJDlJJftqZYfoFsc/qwCL317NOQGtZbEMKrTOU2FfGZ1D6+1v5c7OCgcmxibekdrwq8Bg09/1AIzU1NTwoExRsdgZaMwq0QQk84PiOO4hLKs/JgmHgxdlzZNxzZV+zYFe8ZDe8Z9B+Y953ZZN5asF/u+Pz6OUjG2QzW5Qz1rvlX9IfyBQaQ3asVXUiLyqYGpep5RRk6BJtbuz57am+mbWWgZWKkSNnJKdnfuOVyTcTp3zuX4Ubf9ez12bvHauMbnp2UUZL/hoMejzEdKWUpquWpEPkEtpL7RoAcrJZMtOQWRV1TeVV7dXd3Q29AibGEMMNhiNn+I3z3S3T/WD4MeH/VzB/zwIAACIAACILC8BMhMdr4JOzGCxofQ2KsCWREPiV4IZOmopxV1Ny8qwL6QxhYhVgFqz1tUfZ2PYpNwCXRxFFsXjmpDF0qvZA67UHpdnMPaogLrRXXXZ9K6a+bzIWwKBSUTC0VXMoHFRdfFLde7KOK2pOIqSWDJimvQJRQoiV8DziL/04v6rUck5da5+NVtD3LdhVx24Gar8zbktAU3W1+XvVp8i8y/RmZfSrLXz9CzT9HTf78ieNX/w2+cOULsDXlNqwAAIABJREFUCwLLS6DKf3k9477Fq/2oU/KmvCxXuZtOd6/Y3ThvfeXkcoytX3nNVpdO2F0/53j3iqvcTU8lvDoSSFEJ1Sekcba0oI2HR/KDfYsjg8vjIqtT4usyU5vzs2mlhczqck5DLZ/W3M1iCvlccW/3iFg0OTY2M/OelrXf4u/3r/hSMzOzY8OT4t7RXu4gn97fXtfbWooXTipTWMXRbTmBLakeDfF2NRGm76/rTfa+56dOwp9VxNnVpHo05AS1FscwqtLYTQV8RnU3t7W/p2NQ3Dc6MQrB96+453//N5mdnZ2cmRyZHBFPiPtG+wTDAu4glyVi0fvpzX3NdT11VYKq0s7SAl5BTkdOOjs9uT05jhEX1RoVXh8WVh0cUhIQXOAXlOUdkOYZGOcWEuIY7m0b7WwdZ22V9MwizdAym2qVr2VdrG5XrupQrexSr+TepOjTqhjQphjarhTFVkngPE7r0Mz9EHLtF66BrZlN10xuIGIqtELyKb5pVLdofbsAY3OXZ8bW5tQnlupUa8XHtvcf2d+87XjpsvPpU66HD7rv3em5bYP3+lU+q95p0r3GXzLoEfyLBz2elj61KLewqbR5k0GP8q5yPOjRKxn0GMCDHp1Dnb2jvQNjAzDo8ft/aoCfEARAAARA4Pct8Nq4tl+yWrB4soCL9wqE7S+OFZDNWf6bB7XzAwXRkmmCV6W0ZFuW3CUodkJFDgujBGRVNme+Jzs/R6CzaIuALMnODxG8Mp+9vlCPJcNZcnzA98TC8sB8MXZxMktuDjhsRPbrkd1aZPvTc5XY+Vh2cR/2yT+Q8d8WyrCQyS6vQBCu9ncmYPBH3Ek3/At+SBr/DXfVTf6JXz55+inusJt+jl9WMf8Kd9stvsU9d6sVuPNusxL33+3W4Ee9/XrksBG/POO0Bb9U47Idv2zjugvvk7jvxVslngdwrd7rMN4w8TmG90z8TuJtE/8zuIYfeAFvngRfxvX8kKu4qh92A79oFHEbRd7FSylR91H0Q7ydEvsIT6nEK+G+f4Iq7v4nqeO5lWQCpVDwM16aDh5jSdfDbxfINMJvHcg2QTnP8GZLrjnKs8AvaxVY40WXQjv8RFrsiN9/UOqKV1/K3PECTIUXXoOp9MVvVqgORDVBeCumLgzVhePn54ZI1BiN92Sa4vALbC1J+H0PtFT80t3H+j8fdUpel5n6ypT5/XzS5tpph1sXJUsjt71UHvhpKARqq4YaEJEmurEWc9VsD6ccP4+CEL+SyJDy+Kjq1IT6rLTmghx6aVF7dQWnoY5Pa5Fm2ZJ29vjIyPQUJKQLj+aZ6ZmxoUlRz2gPZ5DX2s+s6Wkp6azL7qhIai+MbMsOwPMm8fY1kWYVQQalPsT72PWenzp5MfV2b8gObCmKaqtMYTXkcmnlko1vpkjYOTwsGp+agKmThbt1ef1pZnZmYnpieHJYNC7qHe3tGu7qEHcwRcxWYWtjb2NNd015V3kxvziPm5fFyUplpSYyE2PaYiJoEcEtwf5N/l4NXm51bo41jrZVthblFs/KnhkVG+kV6VHyKRq5GirZKgqZCg/SH9xNvXsj+cbVhKuXYy9djrx4JezilaAL1/wvXve+eNPj8h3Xq/ecZOTsb6jYyhI2cnpWyk8s1S3MtZ2eGXgbm4TpW8RRbdO0nfO0PEo1/ao1ghs1IlvV45gaKWzND6u1/UK6zSXyOzRzWRrpdPWEZvWoWvXgMnXffE23dC2HOG3LEN2n3gYGDibaz8zUqFaK6jYPFOxuyTpclXE6d97l+DHXA/s8dm313PzKQvfiQY+fw3/+dYMeHvUePg0+gc2BoS2hUfSoOEZccntyOjs9pyOngFdQ2llaJaiq66lr7mum99NZIhZ3kCsYFvSN9oknxCOTI5MzMOixvB7rcLUgAAIgAAJLEJBO0M4tITzXul0U45Kzs9IYd1HftrNu0drs/NRsAd6ZJXcP8Mjs/OhB/MLiAa7ZhuDUAM8d+C1sHSykt/aocFHBdn5MVtqu1cURxsKMrPqL4wbS9dj5Xu116W7sfKn25UYtuWbwXGj7cpd2bsTgxcR2cYv2r8jwz7BdAA1iEFiywB+ej1z/gXdCnv4b99ZNP8Md9lfkravwiytk3uqwQRq2Om3F7fiXw1avQ8j7yFzYemIuaT2Ld6VfkbTekiatUffwOHWMHB6qjpXHgyovxKwpWvipCcesVEnGqv9cxpprNpexWkkCVls8n00GrCUucwGrpzRgrfLDz5A4YA3G70t4bbqagp9m6el4Z4aRhZ97mbl475tViLe/OSV4l4ZbgTfBeZX4GbuzFm+FCxrx2ya6W/CGeG8bfolOyMRDNwMcvDMu4uEBnMEuvD8+3Itf2BsR4oWcMTHeKJ8Yxss5k2N4u3x6Ci/qzM4u4d8huCkIYIGPOiVvys/+L4G4rcxZx9uXXB5cx3vZKg/8NBWDdPA5kJFP9aQpNp7Mdsz2dc8P8ikKDyqLjahKwqdBNuZmthTltZWXtNdUdjRKg+w+XoeoWzA80D82PDQ1MTE7Awdt/eJH4PTkzIh4YkAw0s0Wc1uEzOqe5qLO2syO8sT2ggh6ln9zilt9nG01uejtrVngqpgzH0m/hz9A6v2L79F3eYPpmemxqbGhiaH+sf6ekR7+EJ8tZjMGGC3Clobehuru6vKu8iJeUR43L5OdmcJKiWfER9Ojw1rDgpqDfBt9Peo9XGpd7KvtrSutzcrNTEpNDIoNqIVUIp9Qy1VTylJ6lPnoXtq9Wym3ZJJkLiVcOhd37mTMyaNRRw9EHNgbtndHyI4tQVvWB6z/ye8VkxqrfVZv9Fq/3XPLHo+dB933Hnc9dNbl2GXn0zccL8g6XH1kf1PFVlbTRo5qrWhkqWZqQVibUx1NDd2fPfV5ahH8xDbS2CnOyC3VwDtLP6BAL7ScGlWrHd+slcwgMjnEh9jUfjnaJj/ToZHFfpzCVImlK4c3KwXUKXlVKrkUK9vlqlqmq5smEE+idAyDDXV9num4WmvbOlHMfbSfhOgYRekYxOkYpFD1M6n6eXoGRQYmpSZm5WbWldb21fYutS4e9R6+jb6BzYFhrWHR9Oh4RnxKOx70yO3ILeIVlXWWVQmq6nvqW4Qtbf1tMOjxLh+F8LVBAARA4OMQkBZ1X4h3JS1d6cQtXzqn8EK2+0I/l1OK2MULKwptmZLTw+aCXel+QqT00DDpiWFzx4VJzwqbOyiMPCVMekTYM3w+GI50ycPBdHA9Da8lLKrikgeCRT+UnAY2l+fOnwMmPQTsLM5uFkq4c2d/vTLMfa5++4N0jtbsy7kt2kVJLrlCC8Xb31mRE36cXy1g8Ef82obRX/FM83wB9oU01vI7ZPUDsv4RV19tVuEo1n4dHiTB1dfN+PC956LYfXhF+uXSq/9pFPB8Dht6DR8AOF93jbo3V3d9IYRVw1srC0VXKi66ZujjEwgzjaQt11wzfEQhbrmSCSxZcXXC5xmWuj7XbyXj15qg5+PXKPw6Fm62xuMtb7LZ+urstRhxSvExjNwKSfBaLQ1euxpeCl7b8fskBjj42VjMX0hdh/sWpa5DaGIEp65T42h6Ei+YQ+T6cfwzDj8lCCwW+KhT8uGBfm5TQ2dbaw+7Xcjn4WkR0YCkjg0NvsW/JG/5z+SQ90LeLal4L6yaxDDyglszfJqSnOtirKvDn5YH6BZ7qee7yL/XyNvxQZarUq6PZkGQfkmEKZ72TnVvyA5oKYpsq0hm1edwaWVdrPreToZIyB8eHhifhK43QuSgx+jUqHhCLBwTCoYFvCEeS8Rq629bPOhRyCvM6cjJYGcktyfHM+Kj6FFhrWGBzYFkNu1c62xXZWdVYWVaZmpcYqxfpK9doK2Zp6mao6qYpfgw46FsmuzNlJvXkq5dTLh4Nu7siZgThyMP74/Yvzt09/aQ7ZsCN63zX7fK91eOYKzyWbXOe+1mr407Pbft89h1yG0fGWFfcj4l43TutsPl+/Yy8na3VCUpto61ooGV6lMLDQtzbVszPSdTIzLIDnxiE27sEGvkmmzglanvn68XUkqNrNaJa9ROomuls4mc16XGH/7nO9SzOlRTOEpxHPlI9sNg9j2/dllPpqxrm6wj7b5960Pb5kfWTUrWjY+tG7Rs6vXs60yc6qzd6118GvyCGyOjmtNSWovzGc3VnE5G5yAe9BCNi2DQ4y0/w8KXAwEQAIGlC8zO4k7W1AQOCyaGJUO685lvF84XpH1eJq599dCk47m4zCsZZOgox5UxdhFukOEmbxauldHSUGuK5OyyxTXeMMlU7gsdXlcknV+QFHgXby/Mt3dxdZeC35KcNF/dlUzi4pz3Pn47c8Rt/O5mac57WbqES5Z2fY7hyp7XCyGvZP3WcTOOmeaPHZOeOSY5cEya8M4t3kqnFaCoCwes/S4FXmjO/l3SnJ1bKiBrs4uDWnKjgAxqFw8UuO7Eh/tJ1wkWTxPMt2XJXYJLKPjKolGCW/hEwflFgvk5ggQV3NMntwjIkiw5REDms/MrBGQ+S04QFC6qxy6Es96LlgcWF2Pnk1lycyAFP2vRM/ABjM9VYslYtkzSh62S9GHrUFcDEjQ9X4YlM9n5JqwADfWgVwSyYxDILv2fLPgKIAACIPAWBT7qlPwtOn6cXwrvmQxP4oVj3lAnQ8Ru7KNXCJoK+DUZnLIE3O/O9m8mJ02izCtDjEr9KEUeqnlOctnvodn9wrdwU8711SoMNiyNNKuMt69N82jIkcybkJF3a2lXe10vjybZ9e4dHRuenJleNmV/ctBjZHLkFYMefXjQo6KrophfnM/Nz+JkpbHSEpmJsW2xEbSIkJYQ/yZ/7wZvtzo3pxon2ypbywrLZ2XPjEuM9Yr0tAu0NXI1VHNU8aBHxtygR+LVC/EXTseePh59/FDkoX3h+3aF7toavHVj4MY1/mvexTrzKp9Va73XbPLasM1z826P7T+77yaT6zMuRy86n7zqdPaG44W7Dlce2l9XkITXhKSCbWip+tRCcz689nj6zNfEIuiJTYSxY6yRa5KhZ7qBb65eUJFuWDk1qkYnvlE7mUZJZy3n/PqVCTsOtR+ncZQTOApRbLkQ9n0/1l1P1i3n9uu27VfNmZdMmOf1GWcojJPqjDNqzAsa7VcJ1i1t9n3dDiUjnuazTn0rgalTj4NXn3dQf0SMKDVtqLBwtKZmvK1tsrNzWiyenZr6OJ/64KcGARD4PQiQ8w4vBMHDfTjIGOzC7/Ad4MyN89Jx9iFoRNJJh0pcW+OU4HcQ4xQ4B2codMmxaS1JuPjWFIsaonDhV3paWgBOZCq88TSkdMPBUTK/KzkhLdccj0tmmyxUfcnphiQNlKiGElTwe6hxz1dOEv7KzoW/13CihBcbzuMyIG74Hpckv4fxUKbHz3g303UnntHE67qSQ8+k3d75lYZv8DvE8aiuJPbFi7r/h9uLBn9C0Or91SVQuOH7E5iLcZ/r286vzX6N2+vzZVu8ezA3Mju/MIsD3D3Ifa5m630ED8v6HMPDsgursnPp7QsFWzwm+3y79sXodn5A9gk+/DDHFPdqn8ttyVItORrriRdj5xu15Fws3op9KbSd79Iyc/CxjawCyYgBWaStRLxFiW13Mz77sZf+3HaBdLjg+bh2frIAyrO/h3/Y4GcAARAAARBYqgCk5EsV/B3cfmZ6ZnxkclA4JuQPC9rFHS1CZk1Pa0nn3JGVknK3N1nurgozweVub433vWcyn3o7PczyUM3zoxSFGJVFWVQmOtameTbmBrUWRzOki96Slje/baCPNzQoHBsfnZqdefvrVNMz0+PT44sHPThiDmOA0SpsbehtIMemi/iSQQ8OHvRIYCYsHvTwrPd0qXVxqHawrrQ2Lzc3KTUxLDakFlK18rXUctWUs5XJQY/bqbdlkmQuJ1w+F3fuVMypo1FHD0Yc3Bu2d2fIzi1BWzYEbHjloMdbTqt9Vq72Wb3ee+0mrw3bPbfs8ti+z33XQfe9R90OnHQ9fNblGNmzvuV4Udbhqpz9DUW7O49t7xE2cjrWivpWKk8s1c0stKzNqfZm+s6mxh5Pn/k8tQg0sQ4zto8yco4zcks28MrQ98vRCyzUDS2lRlbpxNZpJzRTUtq0Mn5/sfXLWXaHRk7H43SOShJHMZYjH0EWtCVZtkv7Dfv2a1btV0yZF42Y5/QkcbYa45hy2xG5toOy9P236Huv0nZdoO04Q9t6rHXTQdqWg/TdR9sOnWKeusi6IsO5K8tVVOJrUbqemHTb2PS6u/cHB4vi4gYzM4dLSkbrG8aZ7ZOC7pnhYRiA+h08jcOPAAK/QEBaEx7HbyseH8TbjiPCV0TDZEEYL0LU4vCFW4Hf1CxtB8/lwmQ1GA9BzJ/PFoJnK6XbvmQo7Dx3Jps1fvN1rhnOjLKM8RlE6boLY74LifAjfJxR1D3cJQy/+XwXeHEcfAi/hdx9Hy4quuzAByvNt4DxMWsr8VvRLb/H5zLhCvBnOAs2+Rd+97rRJzDUu+SF1t9lefb9/FB/mNtS+Bt6Ilm2XRhS+BqfIfZysCtt5s5N2c4fGkaeGEYeF4aXEySdXPKgMDybcAOFSwq50uHauUg3QWXuZDDJsWDPVXFfmec64F5/icvzCwnk8V/B+Owv6cFf5DaCpIG7MEq7aJF2fo72tUnuXPF28RLCwvjsEGwg/IInefirIAACIAACIAACv1YAUvJfK/eB3W56aqHW3cUUdTQJGdXdLXNJd0kMIz+UlumHl7vj7Wskze4yf50ivGSi8L6XTBbybrlsD9U8X8p8xbsmxa0hy7+5IJxeFs+syeA0FfDpFQJ2Q18nQ9THHxoUjg6PjA5PDIsncH9dMCzgDnJZIha9n/5OBz2ORB3ZH7F/T9ie7SHbNwdtXue/brXf6recRPuuXPwFyQL1Bu/1W7w2bvfcsttj+z6PXQfc9x5x23/c9dBplyPnXY5fcj51zensTceLdx2uPJDMgCjb3lWzuT8fTxtbqpF9amszXQdTA2dTY8keiLm/iVXIE9twY4doI5d4Q/dkA690A99s/cB8vZBi3fByalS1Tly9dmIzJYWuld6u9aEf3vhy7vwWP4MjbLX0DtVkvDGiEMV+FMZ+EMi+54tT7NuurBsO7TI20lL2BUPmOV1pL/u4SttRhbZD9+kHbtP3ydB3X6LtOEvbdqJ18+HWjT+3rNvVsmZry6oNzSt+av5+RfN33z/3sXIVbdPmtr37mMdPsC5e4ty+w1VQ5BNaXUbG3VbWva5uQv+AgahocWraUEHhSHX1GI02yeNNDwzMTkx8YM9JcDkgsBwEZmakmxL4mDjRS2ExuSbRit9G3VWP31XNrcTnDpHDweSOBD1DOiKxkBTPLUhU+qByTxwtlbjg05AK7fAB9HnmuFQ4XxxOo+KYOFlzUWt4UUaM9yKu4fehB13EEZj/aekisJekL/xiQLwBlyVtVyO8EfEDjtvmm8KL02GoCb+/ruv7SV1/2+9CZr6fIOO/IZN/So4y+8/cOWbf4lcp8Gyu5AQz6RSDZDDXZTvuuZM1Xs8DePnE++hzHd75w8pCZeYWcmVxlT5GDuHtBckBZYmPJcMLhORcMh3JuWQG+NWXbBP8EMud7+3OjeFKxxbmS7uSI8ikIa+ksbuwfivZWGBk4XcJkGeOSRNeSVd34agxyTlj0kPG2HiCRhrvSkYVRvvxU8o4OXE7Bvu2y+HfA7hGEAABEAABEAABEPi4T+/8oO5/vNY9OT06NCHuHe3l4gETTmNfW2V3cxG/LrujIplVHM3IC6Fl+jQlu9bH2dVEmlUEG+INE8/H+c7yv8GGyXzY7fggy1khy1Uty52S5aGf6WmS7mmR6mmb7OGc4O4e6+YT6RwY6hgWYBflZR3napZk/yTF3CDTWDtbRyNHQyVbBQ96pL+nQY9VPqvW+PxE1qK3eG2SNqNxAL3nkNu+o24HTrgeOuNylMygrzidkXE6R8bQ9+2vkZseyrZ3H9ve17SR07ZW0LVSMrRUfWKp/syCsDDXtjbTtTfTdzI1cn1m4vnU1OepRYAkjw4zdiBL04mGnqkG3hn6fmQkXaQbXkaNrNSJqdGJb9BOaqakkqn08jqA8S1G0m/8pXK5RDZXM7NDI61DPanjcTxHOYqjEMqWC2DLerFuSSrYMtaLwmsq47QW46Qa47hy21F5SXh9h/7zjYUi9rbjrZsP4fx6/e6WtdtbVm9qXrmuecXq5u9+eC6/fiHO/i//648rWzduou/Zyzh2rP3iRc7t21wFBb4m0WVo1G1p2eviIvTzH4iMEqekDuUXjFRVj7W2TnC5U/39M5B0f1BPyh/5xSyOj6Vd4258xLyIiw+d72NIl4i7GnB2zFucHUtaxniAOBk1J+DDlxoiUV24dHp4ITiW9Ivx+XKWOM+Slov10cupccwjFP0A75PileHreGUiWDIx7H8Gvy8e7wsfwRMT85ExuS9hvx4fZmVDjkt8h8y/li5LSPNiclbit40X4bsvEwGDPyHDv0hOUfuHJAX+FP8u4Vne+doveXLaerxnjcccyAh4N/6dnI+AceH3FJ5xCDyPZ1KCr+DXP8i2b+Td5/JfadVXA0lXd6mSI9GM8OmLOc/wgyXPAr/cUigJf0uc8YRLuQeq8MKjLtUBqCYIz7zM13ulya9kXbctQzqti1caJLu60rPOavCLQIJG6aIujn0lrV58vlknGhSg4V7pyWbSZYYx/NoSnGn2kf8bAT8+CIAACIAACIAACPweBaBL/nbu1YWMu2+0jz8kaBdzW4TttT208q7GfF5tZkdFUntxdBuOuX2bJIXu2iiLyjCT8kC9Eh/NAneV32ate3HS7fggy04uzUohwUw56snjYD0Nby0tZ1VtS3mq8X196h0jzZsmytdM5S6b37lgdf2s7aVT9mdPOJ446nz4sOv+o5KO8ynJ/sZ55xOXnE+REfMNxwu3HS/ddbhy317mof11ebtbinZ3VGxlH9ve17B5SFg/IrNmfSsVI0s1Mm42M9eyNNexMdO1M9N3NDV0NjV2k4bOuAQd9MQm9Il9hLFjtGSsI9HQM8XAO93AN0s/IFcvqEAvtJiMnqkxNTpxddoJTdrJrZS0Nq2Mdq0sNpH7xjlsPvzN/yFAKeBRC3n6RXyjYr5JaadZeZdlhcCmUmBfLXCo6nas7HYs73YoFTgUCezyBTbZXZZpXWZJnU9j+EZhfL0AHsWTq+bUoWjFuf+EdYvafkWNcVqu7fBN2u4LtG0nW7ccbd10sHXDPly7xrH15uaV6yXN6x9/ZWz9XxLt1/yn1rXraDt2tB08yDxzhnXtGuf+fa6KCl9Hp8tEul4iDAwciIkRp+GpbtzpbqVNcHlk0j0Lh6G/nafVZfJVFsYrhhfKyOJOydF2ZJrcKp0z5lXNbRkXSIaMJWfZtSSh+Q5ybejcVIWXtIBc5IAKbV+RI5Nn1iU+RvFKeLBYOk8hOapOGiKfx3mc7wnpCXXkSLF0lWITsl+PyEkK3DiW7FE8+w+O/+bHKKBsCwIGf8IT1dKC8Kd4scTsS/zbMt8OtluDf5HwFsRWPH7tumvhfDZy3pfc9iVD4ZCr0lA44jZ+wSP6AZ70jVNA8cqS8QcNlEw2gucSYbIOjGd8rfBDoMgebz6QXeCFOFhy5Bo53dsUi1+SaU1GeOohA58VycxdWOzFWXAV3o3BWXCTZKu3Db/S08+a6/9KVnrJbQccBI+gSbL8u2xOKFkmT5dwmSAAAiAAAiAAAiAAAiDwQQtASo7vHpxxT0yPDI4LewZ5nF4Gjd9Y015dQivJacxNqcmMqUwJKY33K4p2z49wyAu1yg5+lhVolOmvm+FHZPiqZfgqZfo+yvSTy/KXywp4hD8CH2UHPcoOlnyEyGeHymeHyWeHSz4i5LMj5bOjFLKjJR8xCtmxCtlxCtnxivgjQTEnUTEnSTEnWSknRSknVSknTSknXSknQzknUzknSzknWzknRzknVzknTyUnX/JRqJJbpJJbrIo/SlRzSx5nF6tlFqunF2mkFmkmFxFJRURCkVZ8kVZcESW2mBJboh1boh1Tqh1TphNTrhNToRNbpRNbrRNXoxNfp53QiEvNKWSyzMTJcs7/SEsJCJTfl4BWPlengKdbxDMo5huVdJLZtEVFl3WlwK6q27Gm26W2x72ux6uh17exz7+pL7hFGNYqjKD1x7QNxDEGkpiiFJYonS3O4gzmcgcLeEPF/KGyzuFKwUhN90h9z2hT32hT70h953AVa7iUNlRQL86qECXnD8SmC0PjhH6hvW4+3bZOXaYWfD19vqYmV0GBc+cu6/IV5qnTbQcO0rbvaFm77r2l2P/zG7WsXEXbvOX56RIFvqZml6Fht4VFr7Oz0Nd3ICJCnJQ0lJs7Ul4+2tg4wWJNdsNO9/v6F0t6bt44mpgPl7vx29XxcXmSmYvuFkT2lLmVeA2ZVYhjL/KIPFxSjpfuINeG4PokbihLFpCLnXDFMt9KWk/ONMJvw8eLFgR+bz4+B09BcgjePekJeOTxd9Iti+OSVvJB3AB13YULoU5bkMMGSSV5FbJagauj5MCxNFCGPvIy6QL/+sh7bk3iyd/xpPWzTyVTEuShcCtwUd32J2S/7qWkeD9ekPA5hl+lIMeC8XzEXHc44g5e3I5+KB2OwMVhtddmxGRluNhxbhSYHIvwX9QXjsIHRUoD4jREloXxkW6F+GzJjnJc8+eTTeG5dFjIRP1s/J4AcSca6kbDfQhPQ4jxIxGi4ff1/AffBwRAAARAAARAAARAAARA4AMU+KhT8gz3tDbNXKZmHlMzjyX5YGvmcTTzOjTzIBr+6AS0C7jUQq5eEdegmGdUwntSwntayjMt45uX8y0r+NaVfNsqvn11p1NNp0ttp3tdp2d9l09Dl19jV0BTV3CzILRFEN4qiKILYujdcW3diczu5PbuNFZPBrsni9OT29GTz+0t4vWW8HvLOnvQIsAkAAAZzklEQVQru3qrBX113X0NPX3NvX2tfUK6UMgcELJEwg5xP2+wv3Oov3u4v3dkoH90QDQ2MDg+MDIhGp387x8D4pF+QZ+wvaO3idZTUdOdXyxIy+yKTegMCed5+XIdXTosrDhGT9ha2ixlVea9B4zrN9rOnacfPUbbs69189aWn9b8z+j5ff6Flp/WtG7ZStv3M/34ibYLl5g3b7fLybMeq7Opepynplwbe56bJz8guDMqRpCc1p1b0FNW2dvQ0sfk9Av6BsQj/93q9/NfRyZEQyMisVg0IBQLu8W9fHE3R9zFHOTTBrlNg5y6QVbVELNsqK14iJ4/1Jo91Jwx3JA8XB8/XBszXB0xUhkyUh44Uuo7Uuw5WuQ6WuA0mmc3mmM5lmU2lmEylmY4lqI3nqQ9nqA5Hq82Hqs8ES0/EflwIlx2IvTmZLDMZODlSf/zk75nJr1PTHkdmfI4OOW2b8pl17TT9mmHzdN266Ztfpqx+nHG4rsZ869nTD+fffrv2Sf/mDX6ZNbgT3B23LIWmDX446zRX2eN/zZr8s/Zp5/OmH6O72KLb2esVsxYr5q2/Wnabv20w6Zpp23TzjumXHdPuf2Mfz28jkx5H5/0OTXpd3Yy4AL+/QmWmQi5MRF2ZyLiHv7VipYfj1Eaj1Mdj9cYTyTGk7THUvTGUg3H0o3HMp6OZZmP5liO5tqM5tmPFjiPFrmOFHuMlHiPlPmNVATiX+aq8OGaqOG62OH6BPx73pQ21JI51JqDf/nbioaYpYPtFYPsavy44DYN8lrEnXRxFxM/ZHq44r5OsbBbNCAUiQZEg4P4YTUy/vt5ovhf/3zATwoCIAACIAACIAACIAACIAAC8wIf7VvkP+qUPMUp5aPLgt929ZtN5LUTeW1EHo3IaybyGojcWiK3isitIHJLidxiIiefyMklcrKInAwiJ5XITiKy44nsGCI7isgOJ7JCiawgIsufyPIhsjyJTHci04XIdCIy7YlMayLDksgwJzKeEhnGRIYBka5LpGsT6ZpEuhqRrkKkKRJpj4i0B0TaXSL1FpF6nUi9SqReIlLPESmniZQTRMpRIuUgkfwzkbyHSN5BJG8lkjYRSeuJpDVE0koi8Qci8Vsi8Ssi8XMi8bPf9kMz4Wv12B9Vw9crBW575L3vgevRu/Znb1lelXl654rBo4vaj8+qU04pGR57aHb4jt1+Gbe9F/12nQ7bdjR28/609Tvz1mwuW7m27vv3t0byJll5w3c/VPy4Jv+nTenrd8Zt+jls21HfXadd9l2yOXDj6RFZvRPyGmdUFc9ryV7WuyZjcu6WxdG79vseuG2V91mjHPzD48gvNON/qzvlcyL+ayL2eyJyJRG+hgjeQARuIfy2a3nv0fLYr+V6WMvpuJb9aS2b81qWlylmMpSntyjGshSDhxRdBYq2CoVQ11bX0lbV0VY20JY31pZ7pn3fXFvWRueWvc4NZ51r7jqXvXUu+OmcC9I5FaZzIpJ6NJZ6OJG6P5W6L4O6O5e6o4C6tUR3c4XuhhrdtfW6q5t1f6Tr/sDU/Zaj+xVf7/Nuvf/06f1LrPf3Yb1PxvX+Mq33h2WdtH4MFz+p96dxvb8M630i1vu7UO+fPXr/7tL7jKv3JUf3K6but3TdH1p0f2zUXVWru6Zad1257oZS3U2F1K151O3Z1J0Z1N2p1H1J1P3x1IPR1COR1GOhOieDdE7565z10TnvqXPJTeeKs841B53rtjq3LLXvmGnLPtV+YKwtZ6Atr6utqK2tQmg/VtdWV6VoKlIojyjUBxQ9WYrBbYrRDYrJNcqzyxSzC1oWZ7SsT2nZHtOyP6LleEDLZZ+W224tjx1aXtsIn02E/wYicA0RvIoI/ZEI/46I+oaI+YKI/4xI+K0envB9QQAEQAAEQAAEQAAEQAAEQAAE3rWAaHTyAyx6v4dL+qhT8jS31KWn5Bwil0XkMImcNiKLppXZopXRpJXRoJVeR0mroaRWUVIrKSlllJRSSkoRJbmAkpxPSc6hJGVTkjMpSemU5FRKchIlOZGSHEdJjqWkRGulRGilhGmlBmulBhBpfkSaD5HuSWS4E5mukvjYgci0W5QgmxIZJkSGkSRE1iPSdYh0CpFOEOnqRPpjIk2FSFMi0uSJNDlJmixLpN4mUm/OBcqXidSLRMo5IuUMkXJqLlY+TCTPJ8s7ieTtRPIWSbi8jkj6iUhaRSStIBK/JxK/IRK//BDy5d823SYSP9eM/1YtarVKyCYFv11yHgfvOZ28Y3Pxhtn1a0/uXdZTPK+lfuYx9YTCk6P3LQ/dcvz5quee84E7TkZsPZywcV/Guh0FP22q+HFNw/cr3iR3fp9/h8y4C37alL5uR8KmfRFbD/vvPOW+54L9/mvmh28bHntIOaWkelZd7qL27SuGl6+bnrptfeie0y45j00KfqtVQr9Rj/lM85U5WsIXRPy3RPQKImI1EbqeCNqMA2if3VoeP78UQF+nmNymGN2n6MtRqIoUymOKpqa2mo62sp62opEkfbbQvmurc8tRR8ZF56qnziVfHD2fDtU5uTh6zqTuzqNuL6RuLdXdVKm7vlZ3TaPuqlbdFQzd79i6X/P0vhBIcmcR5M6/fpLi7W9uTOv9YVzvzyM4Wf7bgN4/evX+LdD7D0/vi/lkuXkuWa7SXVemu7GYuiWfui2HujOTujuNunc+Vo6gHg/RORmoc8ZP55y3zgV3ncsu0kz55nymbCTJlKnaShRtVQ1tNTVtDWWKlgJFW45CvU/Rv0MxvEl5IkN5SgbKZ7WsyED5sJYTGSjv0vLcruW9hfDbQASsJYJXz6XJXxOxkCa/6/+7Db4+CIAACIAACIAACIAACIAACIDAuxCAlPw9JPIf3LdopXXc0Aq+TAk6Swk+Rgk+QAndQwnbSYnYphW9hYjdRMRvIBLXSarHqyXtYzIg/pZI/Boy4t86nl7is8AXGnE/PI5coxy8WcFv90Ocbp+4Y3vhprmMzBPZy3ryFyiPz6ppn1Q0PPbQ9PAd2wMyLvsu+ew6E7z9WPSWA8kbdmev3Vq8an31ilXvM7l+8+9V98OPZSvX5q3ZnL5+Z8LmfVHbDgXvOua375TnwfMuRy7bn7hmc+a6xfnbppfvmsjcM7r1wPCunP4DeT15eT1lBV01RV1CQZ+Ce9Cm2vettO/YLSpBB+icIWPoOOqhJOr+dOrebOrOfOq2ufrzmgbd1S26P76QQYv1/j6i98mEHoxsvP1A+XV17MVBs6TC/Gmn3udcvS9Zut8wdL9r1V1B9pdfSJnJ8nIC9UAs9XAk9WiYzgmyueytc8FD55KLztVFteV7JtoPjLQf6Wkr6mgrE9qP5/PlhxTdexR9srB8lfLsEsWcDJePa9k/Hy77bMbhMllVDltBRHxLRH9FxH6Oq8q/9ds74AJAAARAAARAAARAAARAAARAAARA4GMVgJT8g4uw38MFzc7Ozm/uwB8+fIGB4fF+oUjIE/Qx2L0NLdLp7fSsrvikzrBIvl8gz82Ta+vQYWrBMTBiExSWsmr7AznGjVttFy/TT5yiHTjUunNXy4aNzSs/0HQb5+ArVrSuWUXbtKZtx3rG3o3tBzezjm3hnN7KvbCVd3lrp8xWwa0t3bKbex9uFMqvH1BeK368ekj9xxGt78e0vx6nfjal/48Zg09mDf74uvAUPv+rBWYN/0yuMM88+2zG7Cu8tW29Eu8v22+YdtwiGV/eM+V+YMrryKT3CTzVHXBhMujKRMj1ibDbeHM5Sm48RlE6uJxEGUvRxWvLGSZjWWZ4ajnPDm+C451lz7mR5VDpwnJDonRemZYr3VZmVQ5yavGwMr9V3MXAq8q9PLFQgCeVxSLR0DDsKX/4z2ZwhSAAAiAAAiAAAiAAAiAAAiAAAiDwYQrALvl7CKXhW3x0ArMzMzMjI1NC4SSfP85kjjY2jlRVDRUWDmZmihISByIjhQGBfR4ePfYO3RYWXUbGfG1t3mO1jkfynNt3WFeutp85yzhylL53L23zlg/tbMmXm90tK76lrf6mbe3XjI1ftW/9kr3zi469n3P3f8Y//J+u4//uPv2vnnP/7Lv0j/5rfxfd/Jv4zv8N3f9k5NFfx5T+PK76p0mNP05T/jCr+/66xr86LH4nNzT4EzL+P2TyL2T6GTL/Cll+j2xWIru1yHETct6GXHchj5+R12Hkexz5n0GBF1DIVRR2A0XeRdEPUaw8SlBBSRooVRul66FMI5TzDOWZowIbVOyISl1RuSeq9EU1QaguDDVEoeZ41JqM6BmIkY1YBYhTgriViF+DBI2oh4b6GGiAg8R8NNSDRoRofBBNjqHpKTQ7+9E9euEHBgEQAAEQAAEQAAEQAAEQAAEQAAEQAIGPRuCj3iX/aO7lN/1BZ2dnZycmpgcHp3p6JrjccTp9tL5+pLx8KD9fnJYmiovrDwsT+vn1urp129oKTM06DQz4hBZXRaXjwUP2zVusixeZJ08yDhyg79zZunFjy6rVL0fJH95nvmv5UZJur5tLt3d8wdkjSbcP/afz2KeCk//uOfuv3gv/FF75x4DM30W3/m9Q9pPhh38dVfjLmPKfJ9T+NEX8cUb7D7N6yyHgNvwzMv4bevpvZPo5svgWWf+IbH9CDhuQ01bkuhO571tIooMu4iQ6/CaKlEUxj1C8EkpUQylaKI2KMg1R9lOUZ4EKbVGxEypzRxXeqDoA1Yai+gjUFItakhA9/bkMurMWCZpQLx0JmWigAw12oeE+NCZCEyNoagLNzLzpLyj8PRAAARAAARAAARAAARAAARAAARAAARAAARB4BwKQkr8D1PfyJWdnZ2cmJqbF4klB9wSHM0ajzSXaBYMZGaKEhIGwUKGvV5+zfY+1afcT3S6qeqeaPF/+LvfutQ6Z8+wLJ1gnDzIP7WHs3U7ftom2YW3L6pXN3//w4aXY37/yklpWfEdb9Q197deMDV+1b/mStf0Lzu7PuT9/xjv4n84jnwpO/Lv7zL96z/9TeHmuu31X2t0eVfzLuOqfJ9X/OKX1hxmd//du022yIr04lbZbgxw2IuftyG038jyAvI8iv1Mo8PxcOVoWxcjNRdIUlK6LsoxRjinKt0JF9tJadJU/qg2R5tFkJ5qZg1iFqKMM8apQVwPqaZ0rRHei4V40OoDD6OlJaEO/l8clfBMQAAEQAAEQAAEQAAEQAAEQAAEQAAEQAIHlJwAp+Tu/z/DqyNjYtEg0KRBMtDPHm2pHKwpH8lKHUyIHo/3EwS4iL6t+J2OhlU7fE9UeXblujTtdilc775/n3TzBvXyIc3Yf+/jO9oNbmXs2MravpW9aTVu7smXlsomz5zPulh++a135LX3NN23rv2Zu+qp9G94keaG1/Vy0fUMyS3Lvk2E5XNweV/mFxW2jvyKTf+IFD4tv5krTZDy9B3keRD7H8HZH0CUUKoMi7qDoByhOASU+xnVpMpvONUMF1niyQ9qVDkR14agxGrUkzhWlJcE0v1oSTNNwS1rERYMC6UzH1DhUpN/5Qwu+AQiAAAiAAAiAAAiAAAiAAAiAAAiAAAiAAAi8DQFIybEiXhoZHZ0WCqa4jMnW6vHq/LHilNHMiOEE36EwJ7GfpcjNeMCWIjRT7TOU66Xc7la7KlA433XvBP/mId7lfdxzOzknt7IPb2T9vI656yfG1lVtG3+krf2hddX3LSteXYWez44/5D/goe1VONdmbPiaufkr1rYv2bvw1jbvgGRr+9inglMLayT9MpK5bbKyLfdXSWX7rxPEP6Z0P50x+WrW4nvJuIckp3bfi7wO4Y3pgHMo+Aqe9Yi6h2IfoQRVlEzgTY8sY4RDahvpoEeV31x7Og61pqC2TNSejzilc9VpGhK244R6qBuN9qOJYehNv41nBvgaIAACIAACIAACIAACIAACIAACIAACIAACIPCxCHzUKfmAjQZt9XctK75r/v67DzmtfpNrm0+0pU3trV+yyX3tuRGSrpOfdZ/7sufSN73Xvxfe+bH/4RqR0gaxxrYhnT3DRgdGzY6P2Z2bcL026XtnKlR+JlZtNpWKsp6gXMkpiCXOqNwD4a2PUHz+IdmnZuYgdjE++bCrHq984DI1D595OCZCk6NoZvpjeQzBzwkCIAACIAACIAACIAACIAACIAACIAACIAACILCcBT7ulNzy8ZsE0G/377Ss+K511bf0n75pW/c1Y9M37du+Ze36jr3vh46DP3KPreadXtt5cWPXtS3dd3b2PNzXp3xIqHFygHpeZHxNbHFnyP7RsLvqqD9lLNx4IsFyMtNluth/piZytjUFH5bILprLrGmon4XEnZL1jyHoVi/nRyhcOwiAAAiAAAiAAAiAAAiAAAiAAAiAAAiAAAiAwLsV+KhTcpGjzqsTcLyg/R3tp+/o679jbPqeuW1F++4f2T+v5hxe23FiA+/cFv7lHZ039gpkD3Y/OtajeqZP67JQ/2a/yX2RlbLYiRjyNhgONhuJdhhL8R7PDZsoS5xqzJ1mVM50ts6K+Di5xqsgU+/2joWvDgIgAAIgAAIgAAIgAAIgAAIgAAIgAAIgAAIgAAIg8AYCH3VKPsVjjmZFjBWnTNTmT9Kqp3iMmf7u2fFRNDv7BnTwV0AABEAABEAABEAABEAABEAABEAABEAABEAABEAABJa9wEedki/7ew9+ABAAARAAARAAARAAARAAARAAARAAARAAARAAARAAgaUJQEq+ND+4NQiAAAiAAAiAAAiAAAiAAAiAAAiAAAiAAAiAAAiAwHIWgJR8Od97cO0gAAIgAAIgAAIgAAIgAAIgAAIgAAIgAAIgAAIgAAJLE4CUfGl+cGsQAAEQAAEQAAEQAAEQAAEQAAEQAAEQAAEQAAEQAIHlLAAp+XK+9+DaQQAEQAAEQAAEQAAEQAAEQAAEQAAEQAAEQAAEQAAEliYAKfnS/ODWIAACIAACIAACIAACIAACIAACIAACIAACIAACIAACy1kAUvLlfO/BtYMACIAACIAACIAACIAACIAACIAACIAACIAACIAACCxNAFLypfnBrUEABEAABEAABEAABEAABEAABEAABEAABEAABEAABJazAKTky/neg2sHARAAARAAARAAARAAARAAARAAARAAARAAARAAARBYmgCk5Evzg1uDAAiAAAiAAAiAAAiAAAiAAAiAAAiAAAiAAAiAAAgsZwFIyZfzvQfXDgIgAAIgAAIgAAIgAAIgAAIgAAIgAAIgAAIgAAIgsDQBSMmX5ge3BgEQAAEQAAEQAAEQAAEQAAEQAAEQAAEQAAEQAAEQWM4CkJIv53sPrh0EQAAEQAAEQAAEQAAEQAAEQAAEQAAEQAAEQAAEQGBpApCSL80Pbg0CIAACIAACIAACIAACIAACIAACIAACIAACIAACILCcBSAlX873Hlw7CIAACIAACIAACIAACIAACIAACIAACIAACIAACIDA0gQgJV+aH9waBEAABEAABEAABEAABEAABEAABEAABEAABEAABEBgOQtASr6c7z24dhAAARAAARAAARAAARAAARAAARAAARAAARAAARAAgaUJQEq+ND+4NQiAAAiAAAiAAAiAAAiAAAiAAAiAAAiAAAiAAAiAwHIWgJR8Od97cO0gAAIgAAIgAAIgAAIgAAIgAAIgAAIgAAIgAAIgAAJLE4CUfGl+cGsQAAEQAAEQAAEQAAEQAAEQAAEQAAEQAAEQAAEQAIHlLAAp+XK+9+DaQQAEQAAEQAAEQAAEQAAEQAAEQAAEQAAEQAAEQAAEliYAKfnS/ODWIAACIAACIAACIAACIAACIAACIAACIAACIAACIAACy1kAUvLlfO/BtYMACIAACIAACIAACIAACIAACIAACIAACIAACIAACCxNAFLypfnBrUEABEAABEAABEAABEAABEAABEAABEAABEAABEAABJazAKTky/neg2sHARAAARAAARAAARAAARAAARAAARAAARAAARAAARBYmgCk5Evzg1uDAAiAAAiAAAiAAAiAAAiAAAiAAAiAAAiAAAiAAAgsZwFIyZfzvQfXDgIgAAIgAAIgAAIgAAIgAAIgAAIgAAIgAAIgAAIgsDQBSMmX5ge3BgEQAAEQAAEQAAEQAAEQAAEQAAEQAAEQAAEQAAEQWM4CkJIv53sPrh0EQAAEQAAEQAAEQAAEQAAEQAAEQAAEQAAEQAAEQGBpApCSL80Pbg0CIAACIAACIAACIAACIAACIAACIAACIAACIAACILCcBSAlX873Hlw7CIAACIAACIAACIAACIAACIAACIAACIAACIAACIDA0gQgJV+aH9waBEAABEAABEAABEAABEAABEAABEAABEAABEAABEBgOQtASr6c7z24dhAAARAAARAAARAAARAAARAAARAAARAAARAAARAAgaUJQEq+ND+4NQiAAAiAAAiAAAiAAAiAAAiAAAiAAAiAAAiAAAiAwHIWgJR8Od97cO0gAAIgAAIgAAIgAAIgAAIgAAIgAAIgAAIgAAIgAAJLE4CUfGl+cGsQAAEQAAEQAAEQAAEQAAEQAAEQAAEQAAEQAAEQAIHlLAAp+XK+9+DaQQAEQAAEQAAEQAAEQAAEQAAEQAAEQAAEQAAEQAAEliYAKfnS/ODWIAACIAACIAACIAACIAACIAACIAACIAACIAACIAACy1kAUvLlfO/BtYMACIAACIAACIAACIAACIAACIAACIAACIAACIAACCxNAFLypfnBrUEABEAABEAABEAABEAABEAABEAABEAABEAABEAABJazAKTky/neg2sHARAAARAAARAAARAAARAAARAAARAAARAAARAAARBYmsD/B9Jwt46ZuBsAAAAAAElFTkSuQmCC;" vertex="1" parent="1">
                    <mxGeometry x="80" y="110" width="1975" height="1101" as="geometry"/>
                </mxCell>
                <mxCell id="4" value="1" style="text;html=1;align=center;verticalAlign=middle;resizable=0;points=[];autosize=1;strokeColor=none;fillColor=none;fontSize=40;fontFamily=Helvetica;sketch=1;hachureGap=4;jiggle=2;curveFitting=1;" vertex="1" parent="1">
                    <mxGeometry x="1968" y="1154" width="40" height="60" as="geometry"/>
                </mxCell>
                <mxCell id="5" value="logn" style="text;html=1;align=center;verticalAlign=middle;resizable=0;points=[];autosize=1;strokeColor=none;fillColor=none;fontSize=40;fontFamily=Helvetica;sketch=1;hachureGap=4;jiggle=2;curveFitting=1;" vertex="1" parent="1">
                    <mxGeometry x="1964" y="1111" width="94" height="60" as="geometry"/>
                </mxCell>
                <mxCell id="6" value="n" style="text;html=1;align=center;verticalAlign=middle;resizable=0;points=[];autosize=1;strokeColor=none;fillColor=none;fontSize=40;fontFamily=Helvetica;sketch=1;hachureGap=4;jiggle=2;curveFitting=1;" vertex="1" parent="1">
                    <mxGeometry x="1964" y="1070" width="40" height="60" as="geometry"/>
                </mxCell>
                <mxCell id="7" value="nlogn" style="text;html=1;align=center;verticalAlign=middle;resizable=0;points=[];autosize=1;strokeColor=none;fillColor=none;fontSize=40;fontFamily=Helvetica;sketch=1;hachureGap=4;jiggle=2;curveFitting=1;" vertex="1" parent="1">
                    <mxGeometry x="1964" y="1018" width="116" height="60" as="geometry"/>
                </mxCell>
                <mxCell id="8" value="n&lt;sup style=&quot;font-size: 40px;&quot;&gt;2&lt;/sup&gt;" style="text;html=1;align=center;verticalAlign=middle;resizable=0;points=[];autosize=1;strokeColor=none;fillColor=none;fontSize=40;fontFamily=Helvetica;sketch=1;hachureGap=4;jiggle=2;curveFitting=1;" vertex="1" parent="1">
                    <mxGeometry x="1964" y="880" width="63" height="74" as="geometry"/>
                </mxCell>
                <mxCell id="9" value="2&lt;sup style=&quot;font-size: 40px;&quot;&gt;n&lt;/sup&gt;" style="text;html=1;align=center;verticalAlign=middle;resizable=0;points=[];autosize=1;strokeColor=none;fillColor=none;fontSize=40;fontFamily=Helvetica;sketch=1;hachureGap=4;jiggle=2;curveFitting=1;" vertex="1" parent="1">
                    <mxGeometry x="1964" y="821" width="63" height="74" as="geometry"/>
                </mxCell>
                <mxCell id="10" value="n!" style="text;html=1;align=center;verticalAlign=middle;resizable=0;points=[];autosize=1;strokeColor=none;fillColor=none;fontSize=40;fontFamily=Helvetica;sketch=1;hachureGap=4;jiggle=2;curveFitting=1;" vertex="1" parent="1">
                    <mxGeometry x="1968" y="110" width="51" height="60" as="geometry"/>
                </mxCell>
            </root>
        </mxGraphModel>
    </diagram>
</mxfile>